<svg xmlns="http://www.w3.org/2000/svg" width="1200" height="650" viewBox="0 0 1200 650" role="img" aria-labelledby="title desc">
  <title id="title">TraceFold query admission and execution</title>
  <desc id="desc">A query is checked against the embedded contract. Unavailable requests fail explicitly, while legal requests use time bounds to prune blocks, decode candidates, filter and regroup, and serialize exact stable rows.</desc>
  <defs>
    <marker id="arrow" markerWidth="10" markerHeight="10" refX="8" refY="3" orient="auto" markerUnits="strokeWidth"><path d="M0 0L9 3 0 6z" fill="#667168"/></marker>
    <style>
      .sans{font-family:Inter,ui-sans-serif,system-ui,sans-serif}.mono{font-family:ui-monospace,SFMono-Regular,Menlo,monospace}
      .ink{fill:#15241c}.muted{fill:#667168}.title{font-size:30px;font-weight:750;letter-spacing:-.5px}.head{font-size:20px;font-weight:750}.small{font-size:16px}.step{font-size:14px;font-weight:700;letter-spacing:1.2px}
    </style>
  </defs>
  <rect x="1" y="1" width="1198" height="648" rx="18" fill="#f7f2e8" stroke="#c9c0ad" stroke-width="2"/>
  <text x="62" y="62" class="sans title ink">A query is admitted before any answer is attempted</text>
  <text x="62" y="94" class="sans small muted">The reader returns exact canonical rows or an explicit contract error—never a silent partial result.</text>

  <g fill="none" stroke="#667168" stroke-width="2.5" marker-end="url(#arrow)">
    <path d="M244 272H300"/><path d="M490 272H545"/><path d="M735 272H790"/><path d="M980 272H1030"/>
    <path d="M395 340V424"/>
  </g>
  <text x="505" y="250" class="mono step" fill="#284f3c">LEGAL</text>
  <text x="412" y="388" class="mono step" fill="#a93620">OUTSIDE CONTRACT</text>

  <rect x="54" y="204" width="190" height="136" rx="12" fill="#15241c"/>
  <text x="74" y="240" class="mono step" fill="#ef8a70">REQUEST</text>
  <text x="74" y="274" class="sans head" fill="#f7f2e8">Aggregate</text>
  <text x="74" y="298" class="sans head" fill="#f7f2e8">query</text>
  <text x="74" y="322" class="mono small" fill="#b7c2ba">window · filters</text>
  <text x="74" y="339" class="mono small" fill="#b7c2ba">groups · measures</text>

  <rect x="300" y="180" width="190" height="184" rx="12" fill="#fffaf1" stroke="#d64b2a" stroke-width="2"/>
  <text x="320" y="212" class="mono step" fill="#a93620">CONTRACT GATE</text>
  <text x="320" y="250" class="sans head ink">Match a family</text>
  <text x="320" y="284" class="sans small muted">aligned interval?</text>
  <text x="320" y="309" class="sans small muted">declared fields?</text>
  <text x="320" y="334" class="sans small muted">allowed grouping?</text>

  <rect x="545" y="180" width="190" height="184" rx="12" fill="#e4ece6" stroke="#688171" stroke-width="2"/>
  <text x="565" y="212" class="mono step" fill="#284f3c">BLOCK INDEX</text>
  <text x="565" y="250" class="sans head ink">Prune by time</text>
  <rect x="565" y="270" width="28" height="42" fill="#dce5de" stroke="#688171"/>
  <rect x="601" y="270" width="28" height="42" fill="#d64b2a" stroke="#8f2c18"/>
  <rect x="637" y="270" width="28" height="42" fill="#d64b2a" stroke="#8f2c18"/>
  <rect x="673" y="270" width="28" height="42" fill="#dce5de" stroke="#688171"/>
  <text x="565" y="336" class="sans small muted">touch matching</text>
  <text x="565" y="357" class="sans small muted">buckets only</text>

  <rect x="790" y="180" width="190" height="184" rx="12" fill="#e4ece6" stroke="#688171" stroke-width="2"/>
  <text x="810" y="212" class="mono step" fill="#284f3c">DECODE</text>
  <text x="810" y="250" class="sans head ink">Filter + regroup</text>
  <text x="810" y="284" class="sans small muted">verify block digest</text>
  <text x="810" y="309" class="sans small muted">apply dictionary IDs</text>
  <text x="810" y="334" class="sans small muted">combine groups</text>

  <rect x="1030" y="204" width="130" height="136" rx="12" fill="#284f3c"/>
  <text x="1050" y="240" class="mono step" fill="#cfe0d5">ANSWER</text>
  <text x="1050" y="276" class="sans head" fill="#f7f2e8">Exact</text>
  <text x="1050" y="300" class="sans head" fill="#f7f2e8">rows</text>
  <text x="1050" y="324" class="mono" font-size="14" fill="#cfe0d5">stable order</text>

  <rect x="300" y="424" width="350" height="126" rx="12" fill="#f4dfd8" stroke="#a93620" stroke-width="2"/>
  <text x="320" y="458" class="mono step" fill="#a93620">EXPLICIT REJECTION</text>
  <text x="320" y="493" class="sans head ink">Unavailable query</text>
  <text x="320" y="520" class="sans small muted">no scan · no approximation</text>
  <text x="320" y="542" class="sans small muted">no partial answer</text>

  <rect x="700" y="424" width="460" height="126" rx="12" fill="#ebe5d8" stroke="#c9c0ad"/>
  <text x="722" y="458" class="mono step" fill="#667168">INTEGRITY BOUNDARY</text>
  <text x="722" y="490" class="sans head ink">Lengths, hashes, IDs, and</text>
  <text x="722" y="515" class="sans head ink">row ordering are checked</text>
  <text x="722" y="542" class="sans small muted">corruption fails before decoded state is trusted</text>
</svg>
