<?xml version="1.0" encoding="utf-8" standalone="no"?>
<!DOCTYPE svg PUBLIC "-//W3C//DTD SVG 1.1//EN"
  "http://www.w3.org/Graphics/SVG/1.1/DTD/svg11.dtd">
<svg xmlns:xlink="http://www.w3.org/1999/xlink" width="576pt" height="360pt" viewBox="0 0 576 360" xmlns="http://www.w3.org/2000/svg" version="1.1">
 <metadata>
  <rdf:RDF xmlns:dc="http://purl.org/dc/elements/1.1/" xmlns:cc="http://creativecommons.org/ns#" xmlns:rdf="http://www.w3.org/1999/02/22-rdf-syntax-ns#">
   <cc:Work>
    <dc:type rdf:resource="http://purl.org/dc/dcmitype/StillImage"/>
    <dc:format>image/svg+xml</dc:format>
    <dc:creator>
     <cc:Agent>
      <dc:title>Matplotlib v3.10.8, https://matplotlib.org/</dc:title>
     </cc:Agent>
    </dc:creator>
   </cc:Work>
  </rdf:RDF>
 </metadata>
 <defs>
  <style type="text/css">*{stroke-linejoin: round; stroke-linecap: butt}</style>
 </defs>
 <g id="figure_1">
  <g id="patch_1">
   <path d="M 0 360
L 576 360
L 576 0
L 0 0
z
" style="fill: #ffffff"/>
  </g>
  <g id="axes_1">
   <g id="patch_2">
    <path d="M 47.38125 318.84375
L 565.2 318.84375
L 565.2 25.918125
L 47.38125 25.918125
z
" style="fill: #ffffff"/>
   </g>
   <g id="matplotlib.axis_1">
    <g id="xtick_1">
     <g id="line2d_1">
      <path d="M 70.90579 318.84375
L 70.90579 25.918125
" clip-path="url(#p7c108ff515)" style="fill: none; stroke: #b0b0b0; stroke-opacity: 0.2; stroke-width: 0.8; stroke-linecap: square"/>
     </g>
     <g id="line2d_2">
      <defs>
       <path id="m047fb35b2b" d="M 0 0
L 0 3.5
" style="stroke: #000000; stroke-width: 0.8"/>
      </defs>
      <g>
       <use xlink:href="#m047fb35b2b" x="70.90579" y="318.84375" style="stroke: #000000; stroke-width: 0.8"/>
      </g>
     </g>
     <g id="text_1">
      <!-- 0.00 -->
      <g transform="translate(59.772977 333.442187) scale(0.1 -0.1)">
       <defs>
        <path id="DejaVuSans-30" d="M 2034 4250
Q 1547 4250 1301 3770
Q 1056 3291 1056 2328
Q 1056 1369 1301 889
Q 1547 409 2034 409
Q 2525 409 2770 889
Q 3016 1369 3016 2328
Q 3016 3291 2770 3770
Q 2525 4250 2034 4250
z
M 2034 4750
Q 2819 4750 3233 4129
Q 3647 3509 3647 2328
Q 3647 1150 3233 529
Q 2819 -91 2034 -91
Q 1250 -91 836 529
Q 422 1150 422 2328
Q 422 3509 836 4129
Q 1250 4750 2034 4750
z
" transform="scale(0.015625)"/>
        <path id="DejaVuSans-2e" d="M 684 794
L 1344 794
L 1344 0
L 684 0
L 684 794
z
" transform="scale(0.015625)"/>
       </defs>
       <use xlink:href="#DejaVuSans-30"/>
       <use xlink:href="#DejaVuSans-2e" transform="translate(63.623047 0)"/>
       <use xlink:href="#DejaVuSans-30" transform="translate(95.410156 0)"/>
       <use xlink:href="#DejaVuSans-30" transform="translate(159.033203 0)"/>
      </g>
     </g>
    </g>
    <g id="xtick_2">
     <g id="line2d_3">
      <path d="M 129.630189 318.84375
L 129.630189 25.918125
" clip-path="url(#p7c108ff515)" style="fill: none; stroke: #b0b0b0; stroke-opacity: 0.2; stroke-width: 0.8; stroke-linecap: square"/>
     </g>
     <g id="line2d_4">
      <g>
       <use xlink:href="#m047fb35b2b" x="129.630189" y="318.84375" style="stroke: #000000; stroke-width: 0.8"/>
      </g>
     </g>
     <g id="text_2">
      <!-- 0.25 -->
      <g transform="translate(118.497376 333.442187) scale(0.1 -0.1)">
       <defs>
        <path id="DejaVuSans-32" d="M 1228 531
L 3431 531
L 3431 0
L 469 0
L 469 531
Q 828 903 1448 1529
Q 2069 2156 2228 2338
Q 2531 2678 2651 2914
Q 2772 3150 2772 3378
Q 2772 3750 2511 3984
Q 2250 4219 1831 4219
Q 1534 4219 1204 4116
Q 875 4013 500 3803
L 500 4441
Q 881 4594 1212 4672
Q 1544 4750 1819 4750
Q 2544 4750 2975 4387
Q 3406 4025 3406 3419
Q 3406 3131 3298 2873
Q 3191 2616 2906 2266
Q 2828 2175 2409 1742
Q 1991 1309 1228 531
z
" transform="scale(0.015625)"/>
        <path id="DejaVuSans-35" d="M 691 4666
L 3169 4666
L 3169 4134
L 1269 4134
L 1269 2991
Q 1406 3038 1543 3061
Q 1681 3084 1819 3084
Q 2600 3084 3056 2656
Q 3513 2228 3513 1497
Q 3513 744 3044 326
Q 2575 -91 1722 -91
Q 1428 -91 1123 -41
Q 819 9 494 109
L 494 744
Q 775 591 1075 516
Q 1375 441 1709 441
Q 2250 441 2565 725
Q 2881 1009 2881 1497
Q 2881 1984 2565 2268
Q 2250 2553 1709 2553
Q 1456 2553 1204 2497
Q 953 2441 691 2322
L 691 4666
z
" transform="scale(0.015625)"/>
       </defs>
       <use xlink:href="#DejaVuSans-30"/>
       <use xlink:href="#DejaVuSans-2e" transform="translate(63.623047 0)"/>
       <use xlink:href="#DejaVuSans-32" transform="translate(95.410156 0)"/>
       <use xlink:href="#DejaVuSans-35" transform="translate(159.033203 0)"/>
      </g>
     </g>
    </g>
    <g id="xtick_3">
     <g id="line2d_5">
      <path d="M 188.354588 318.84375
L 188.354588 25.918125
" clip-path="url(#p7c108ff515)" style="fill: none; stroke: #b0b0b0; stroke-opacity: 0.2; stroke-width: 0.8; stroke-linecap: square"/>
     </g>
     <g id="line2d_6">
      <g>
       <use xlink:href="#m047fb35b2b" x="188.354588" y="318.84375" style="stroke: #000000; stroke-width: 0.8"/>
      </g>
     </g>
     <g id="text_3">
      <!-- 0.50 -->
      <g transform="translate(177.221776 333.442187) scale(0.1 -0.1)">
       <use xlink:href="#DejaVuSans-30"/>
       <use xlink:href="#DejaVuSans-2e" transform="translate(63.623047 0)"/>
       <use xlink:href="#DejaVuSans-35" transform="translate(95.410156 0)"/>
       <use xlink:href="#DejaVuSans-30" transform="translate(159.033203 0)"/>
      </g>
     </g>
    </g>
    <g id="xtick_4">
     <g id="line2d_7">
      <path d="M 247.078987 318.84375
L 247.078987 25.918125
" clip-path="url(#p7c108ff515)" style="fill: none; stroke: #b0b0b0; stroke-opacity: 0.2; stroke-width: 0.8; stroke-linecap: square"/>
     </g>
     <g id="line2d_8">
      <g>
       <use xlink:href="#m047fb35b2b" x="247.078987" y="318.84375" style="stroke: #000000; stroke-width: 0.8"/>
      </g>
     </g>
     <g id="text_4">
      <!-- 0.75 -->
      <g transform="translate(235.946175 333.442187) scale(0.1 -0.1)">
       <defs>
        <path id="DejaVuSans-37" d="M 525 4666
L 3525 4666
L 3525 4397
L 1831 0
L 1172 0
L 2766 4134
L 525 4134
L 525 4666
z
" transform="scale(0.015625)"/>
       </defs>
       <use xlink:href="#DejaVuSans-30"/>
       <use xlink:href="#DejaVuSans-2e" transform="translate(63.623047 0)"/>
       <use xlink:href="#DejaVuSans-37" transform="translate(95.410156 0)"/>
       <use xlink:href="#DejaVuSans-35" transform="translate(159.033203 0)"/>
      </g>
     </g>
    </g>
    <g id="xtick_5">
     <g id="line2d_9">
      <path d="M 305.803386 318.84375
L 305.803386 25.918125
" clip-path="url(#p7c108ff515)" style="fill: none; stroke: #b0b0b0; stroke-opacity: 0.2; stroke-width: 0.8; stroke-linecap: square"/>
     </g>
     <g id="line2d_10">
      <g>
       <use xlink:href="#m047fb35b2b" x="305.803386" y="318.84375" style="stroke: #000000; stroke-width: 0.8"/>
      </g>
     </g>
     <g id="text_5">
      <!-- 1.00 -->
      <g transform="translate(294.670574 333.442187) scale(0.1 -0.1)">
       <defs>
        <path id="DejaVuSans-31" d="M 794 531
L 1825 531
L 1825 4091
L 703 3866
L 703 4441
L 1819 4666
L 2450 4666
L 2450 531
L 3481 531
L 3481 0
L 794 0
L 794 531
z
" transform="scale(0.015625)"/>
       </defs>
       <use xlink:href="#DejaVuSans-31"/>
       <use xlink:href="#DejaVuSans-2e" transform="translate(63.623047 0)"/>
       <use xlink:href="#DejaVuSans-30" transform="translate(95.410156 0)"/>
       <use xlink:href="#DejaVuSans-30" transform="translate(159.033203 0)"/>
      </g>
     </g>
    </g>
    <g id="xtick_6">
     <g id="line2d_11">
      <path d="M 364.527785 318.84375
L 364.527785 25.918125
" clip-path="url(#p7c108ff515)" style="fill: none; stroke: #b0b0b0; stroke-opacity: 0.2; stroke-width: 0.8; stroke-linecap: square"/>
     </g>
     <g id="line2d_12">
      <g>
       <use xlink:href="#m047fb35b2b" x="364.527785" y="318.84375" style="stroke: #000000; stroke-width: 0.8"/>
      </g>
     </g>
     <g id="text_6">
      <!-- 1.25 -->
      <g transform="translate(353.394973 333.442187) scale(0.1 -0.1)">
       <use xlink:href="#DejaVuSans-31"/>
       <use xlink:href="#DejaVuSans-2e" transform="translate(63.623047 0)"/>
       <use xlink:href="#DejaVuSans-32" transform="translate(95.410156 0)"/>
       <use xlink:href="#DejaVuSans-35" transform="translate(159.033203 0)"/>
      </g>
     </g>
    </g>
    <g id="xtick_7">
     <g id="line2d_13">
      <path d="M 423.252184 318.84375
L 423.252184 25.918125
" clip-path="url(#p7c108ff515)" style="fill: none; stroke: #b0b0b0; stroke-opacity: 0.2; stroke-width: 0.8; stroke-linecap: square"/>
     </g>
     <g id="line2d_14">
      <g>
       <use xlink:href="#m047fb35b2b" x="423.252184" y="318.84375" style="stroke: #000000; stroke-width: 0.8"/>
      </g>
     </g>
     <g id="text_7">
      <!-- 1.50 -->
      <g transform="translate(412.119372 333.442187) scale(0.1 -0.1)">
       <use xlink:href="#DejaVuSans-31"/>
       <use xlink:href="#DejaVuSans-2e" transform="translate(63.623047 0)"/>
       <use xlink:href="#DejaVuSans-35" transform="translate(95.410156 0)"/>
       <use xlink:href="#DejaVuSans-30" transform="translate(159.033203 0)"/>
      </g>
     </g>
    </g>
    <g id="xtick_8">
     <g id="line2d_15">
      <path d="M 481.976583 318.84375
L 481.976583 25.918125
" clip-path="url(#p7c108ff515)" style="fill: none; stroke: #b0b0b0; stroke-opacity: 0.2; stroke-width: 0.8; stroke-linecap: square"/>
     </g>
     <g id="line2d_16">
      <g>
       <use xlink:href="#m047fb35b2b" x="481.976583" y="318.84375" style="stroke: #000000; stroke-width: 0.8"/>
      </g>
     </g>
     <g id="text_8">
      <!-- 1.75 -->
      <g transform="translate(470.843771 333.442187) scale(0.1 -0.1)">
       <use xlink:href="#DejaVuSans-31"/>
       <use xlink:href="#DejaVuSans-2e" transform="translate(63.623047 0)"/>
       <use xlink:href="#DejaVuSans-37" transform="translate(95.410156 0)"/>
       <use xlink:href="#DejaVuSans-35" transform="translate(159.033203 0)"/>
      </g>
     </g>
    </g>
    <g id="xtick_9">
     <g id="line2d_17">
      <path d="M 540.700982 318.84375
L 540.700982 25.918125
" clip-path="url(#p7c108ff515)" style="fill: none; stroke: #b0b0b0; stroke-opacity: 0.2; stroke-width: 0.8; stroke-linecap: square"/>
     </g>
     <g id="line2d_18">
      <g>
       <use xlink:href="#m047fb35b2b" x="540.700982" y="318.84375" style="stroke: #000000; stroke-width: 0.8"/>
      </g>
     </g>
     <g id="text_9">
      <!-- 2.00 -->
      <g transform="translate(529.56817 333.442187) scale(0.1 -0.1)">
       <use xlink:href="#DejaVuSans-32"/>
       <use xlink:href="#DejaVuSans-2e" transform="translate(63.623047 0)"/>
       <use xlink:href="#DejaVuSans-30" transform="translate(95.410156 0)"/>
       <use xlink:href="#DejaVuSans-30" transform="translate(159.033203 0)"/>
      </g>
     </g>
    </g>
    <g id="text_10">
     <!-- archive bytes -->
     <g transform="translate(272.576562 347.120312) scale(0.1 -0.1)">
      <defs>
       <path id="DejaVuSans-61" d="M 2194 1759
Q 1497 1759 1228 1600
Q 959 1441 959 1056
Q 959 750 1161 570
Q 1363 391 1709 391
Q 2188 391 2477 730
Q 2766 1069 2766 1631
L 2766 1759
L 2194 1759
z
M 3341 1997
L 3341 0
L 2766 0
L 2766 531
Q 2569 213 2275 61
Q 1981 -91 1556 -91
Q 1019 -91 701 211
Q 384 513 384 1019
Q 384 1609 779 1909
Q 1175 2209 1959 2209
L 2766 2209
L 2766 2266
Q 2766 2663 2505 2880
Q 2244 3097 1772 3097
Q 1472 3097 1187 3025
Q 903 2953 641 2809
L 641 3341
Q 956 3463 1253 3523
Q 1550 3584 1831 3584
Q 2591 3584 2966 3190
Q 3341 2797 3341 1997
z
" transform="scale(0.015625)"/>
       <path id="DejaVuSans-72" d="M 2631 2963
Q 2534 3019 2420 3045
Q 2306 3072 2169 3072
Q 1681 3072 1420 2755
Q 1159 2438 1159 1844
L 1159 0
L 581 0
L 581 3500
L 1159 3500
L 1159 2956
Q 1341 3275 1631 3429
Q 1922 3584 2338 3584
Q 2397 3584 2469 3576
Q 2541 3569 2628 3553
L 2631 2963
z
" transform="scale(0.015625)"/>
       <path id="DejaVuSans-63" d="M 3122 3366
L 3122 2828
Q 2878 2963 2633 3030
Q 2388 3097 2138 3097
Q 1578 3097 1268 2742
Q 959 2388 959 1747
Q 959 1106 1268 751
Q 1578 397 2138 397
Q 2388 397 2633 464
Q 2878 531 3122 666
L 3122 134
Q 2881 22 2623 -34
Q 2366 -91 2075 -91
Q 1284 -91 818 406
Q 353 903 353 1747
Q 353 2603 823 3093
Q 1294 3584 2113 3584
Q 2378 3584 2631 3529
Q 2884 3475 3122 3366
z
" transform="scale(0.015625)"/>
       <path id="DejaVuSans-68" d="M 3513 2113
L 3513 0
L 2938 0
L 2938 2094
Q 2938 2591 2744 2837
Q 2550 3084 2163 3084
Q 1697 3084 1428 2787
Q 1159 2491 1159 1978
L 1159 0
L 581 0
L 581 4863
L 1159 4863
L 1159 2956
Q 1366 3272 1645 3428
Q 1925 3584 2291 3584
Q 2894 3584 3203 3211
Q 3513 2838 3513 2113
z
" transform="scale(0.015625)"/>
       <path id="DejaVuSans-69" d="M 603 3500
L 1178 3500
L 1178 0
L 603 0
L 603 3500
z
M 603 4863
L 1178 4863
L 1178 4134
L 603 4134
L 603 4863
z
" transform="scale(0.015625)"/>
       <path id="DejaVuSans-76" d="M 191 3500
L 800 3500
L 1894 563
L 2988 3500
L 3597 3500
L 2284 0
L 1503 0
L 191 3500
z
" transform="scale(0.015625)"/>
       <path id="DejaVuSans-65" d="M 3597 1894
L 3597 1613
L 953 1613
Q 991 1019 1311 708
Q 1631 397 2203 397
Q 2534 397 2845 478
Q 3156 559 3463 722
L 3463 178
Q 3153 47 2828 -22
Q 2503 -91 2169 -91
Q 1331 -91 842 396
Q 353 884 353 1716
Q 353 2575 817 3079
Q 1281 3584 2069 3584
Q 2775 3584 3186 3129
Q 3597 2675 3597 1894
z
M 3022 2063
Q 3016 2534 2758 2815
Q 2500 3097 2075 3097
Q 1594 3097 1305 2825
Q 1016 2553 972 2059
L 3022 2063
z
" transform="scale(0.015625)"/>
       <path id="DejaVuSans-20" transform="scale(0.015625)"/>
       <path id="DejaVuSans-62" d="M 3116 1747
Q 3116 2381 2855 2742
Q 2594 3103 2138 3103
Q 1681 3103 1420 2742
Q 1159 2381 1159 1747
Q 1159 1113 1420 752
Q 1681 391 2138 391
Q 2594 391 2855 752
Q 3116 1113 3116 1747
z
M 1159 2969
Q 1341 3281 1617 3432
Q 1894 3584 2278 3584
Q 2916 3584 3314 3078
Q 3713 2572 3713 1747
Q 3713 922 3314 415
Q 2916 -91 2278 -91
Q 1894 -91 1617 61
Q 1341 213 1159 525
L 1159 0
L 581 0
L 581 4863
L 1159 4863
L 1159 2969
z
" transform="scale(0.015625)"/>
       <path id="DejaVuSans-79" d="M 2059 -325
Q 1816 -950 1584 -1140
Q 1353 -1331 966 -1331
L 506 -1331
L 506 -850
L 844 -850
Q 1081 -850 1212 -737
Q 1344 -625 1503 -206
L 1606 56
L 191 3500
L 800 3500
L 1894 763
L 2988 3500
L 3597 3500
L 2059 -325
z
" transform="scale(0.015625)"/>
       <path id="DejaVuSans-74" d="M 1172 4494
L 1172 3500
L 2356 3500
L 2356 3053
L 1172 3053
L 1172 1153
Q 1172 725 1289 603
Q 1406 481 1766 481
L 2356 481
L 2356 0
L 1766 0
Q 1100 0 847 248
Q 594 497 594 1153
L 594 3053
L 172 3053
L 172 3500
L 594 3500
L 594 4494
L 1172 4494
z
" transform="scale(0.015625)"/>
       <path id="DejaVuSans-73" d="M 2834 3397
L 2834 2853
Q 2591 2978 2328 3040
Q 2066 3103 1784 3103
Q 1356 3103 1142 2972
Q 928 2841 928 2578
Q 928 2378 1081 2264
Q 1234 2150 1697 2047
L 1894 2003
Q 2506 1872 2764 1633
Q 3022 1394 3022 966
Q 3022 478 2636 193
Q 2250 -91 1575 -91
Q 1294 -91 989 -36
Q 684 19 347 128
L 347 722
Q 666 556 975 473
Q 1284 391 1588 391
Q 1994 391 2212 530
Q 2431 669 2431 922
Q 2431 1156 2273 1281
Q 2116 1406 1581 1522
L 1381 1569
Q 847 1681 609 1914
Q 372 2147 372 2553
Q 372 3047 722 3315
Q 1072 3584 1716 3584
Q 2034 3584 2315 3537
Q 2597 3491 2834 3397
z
" transform="scale(0.015625)"/>
      </defs>
      <use xlink:href="#DejaVuSans-61"/>
      <use xlink:href="#DejaVuSans-72" transform="translate(61.279297 0)"/>
      <use xlink:href="#DejaVuSans-63" transform="translate(100.142578 0)"/>
      <use xlink:href="#DejaVuSans-68" transform="translate(155.123047 0)"/>
      <use xlink:href="#DejaVuSans-69" transform="translate(218.501953 0)"/>
      <use xlink:href="#DejaVuSans-76" transform="translate(246.285156 0)"/>
      <use xlink:href="#DejaVuSans-65" transform="translate(305.464844 0)"/>
      <use xlink:href="#DejaVuSans-20" transform="translate(366.988281 0)"/>
      <use xlink:href="#DejaVuSans-62" transform="translate(398.775391 0)"/>
      <use xlink:href="#DejaVuSans-79" transform="translate(462.251953 0)"/>
      <use xlink:href="#DejaVuSans-74" transform="translate(521.431641 0)"/>
      <use xlink:href="#DejaVuSans-65" transform="translate(560.640625 0)"/>
      <use xlink:href="#DejaVuSans-73" transform="translate(622.164062 0)"/>
     </g>
    </g>
    <g id="text_11">
     <!-- 1e9 -->
     <g transform="translate(546.321875 346.120312) scale(0.1 -0.1)">
      <defs>
       <path id="DejaVuSans-39" d="M 703 97
L 703 672
Q 941 559 1184 500
Q 1428 441 1663 441
Q 2288 441 2617 861
Q 2947 1281 2994 2138
Q 2813 1869 2534 1725
Q 2256 1581 1919 1581
Q 1219 1581 811 2004
Q 403 2428 403 3163
Q 403 3881 828 4315
Q 1253 4750 1959 4750
Q 2769 4750 3195 4129
Q 3622 3509 3622 2328
Q 3622 1225 3098 567
Q 2575 -91 1691 -91
Q 1453 -91 1209 -44
Q 966 3 703 97
z
M 1959 2075
Q 2384 2075 2632 2365
Q 2881 2656 2881 3163
Q 2881 3666 2632 3958
Q 2384 4250 1959 4250
Q 1534 4250 1286 3958
Q 1038 3666 1038 3163
Q 1038 2656 1286 2365
Q 1534 2075 1959 2075
z
" transform="scale(0.015625)"/>
      </defs>
      <use xlink:href="#DejaVuSans-31"/>
      <use xlink:href="#DejaVuSans-65" transform="translate(63.623047 0)"/>
      <use xlink:href="#DejaVuSans-39" transform="translate(125.146484 0)"/>
     </g>
    </g>
   </g>
   <g id="matplotlib.axis_2">
    <g id="ytick_1">
     <g id="line2d_19">
      <path d="M 47.38125 311.081034
L 565.2 311.081034
" clip-path="url(#p7c108ff515)" style="fill: none; stroke: #b0b0b0; stroke-opacity: 0.2; stroke-width: 0.8; stroke-linecap: square"/>
     </g>
     <g id="line2d_20">
      <defs>
       <path id="mbfb48f10aa" d="M 0 0
L -3.5 0
" style="stroke: #000000; stroke-width: 0.8"/>
      </defs>
      <g>
       <use xlink:href="#mbfb48f10aa" x="47.38125" y="311.081034" style="stroke: #000000; stroke-width: 0.8"/>
      </g>
     </g>
     <g id="text_12">
      <!-- 0.0 -->
      <g transform="translate(24.478125 314.880253) scale(0.1 -0.1)">
       <use xlink:href="#DejaVuSans-30"/>
       <use xlink:href="#DejaVuSans-2e" transform="translate(63.623047 0)"/>
       <use xlink:href="#DejaVuSans-30" transform="translate(95.410156 0)"/>
      </g>
     </g>
    </g>
    <g id="ytick_2">
     <g id="line2d_21">
      <path d="M 47.38125 256.935986
L 565.2 256.935986
" clip-path="url(#p7c108ff515)" style="fill: none; stroke: #b0b0b0; stroke-opacity: 0.2; stroke-width: 0.8; stroke-linecap: square"/>
     </g>
     <g id="line2d_22">
      <g>
       <use xlink:href="#mbfb48f10aa" x="47.38125" y="256.935986" style="stroke: #000000; stroke-width: 0.8"/>
      </g>
     </g>
     <g id="text_13">
      <!-- 0.2 -->
      <g transform="translate(24.478125 260.735204) scale(0.1 -0.1)">
       <use xlink:href="#DejaVuSans-30"/>
       <use xlink:href="#DejaVuSans-2e" transform="translate(63.623047 0)"/>
       <use xlink:href="#DejaVuSans-32" transform="translate(95.410156 0)"/>
      </g>
     </g>
    </g>
    <g id="ytick_3">
     <g id="line2d_23">
      <path d="M 47.38125 202.790937
L 565.2 202.790937
" clip-path="url(#p7c108ff515)" style="fill: none; stroke: #b0b0b0; stroke-opacity: 0.2; stroke-width: 0.8; stroke-linecap: square"/>
     </g>
     <g id="line2d_24">
      <g>
       <use xlink:href="#mbfb48f10aa" x="47.38125" y="202.790937" style="stroke: #000000; stroke-width: 0.8"/>
      </g>
     </g>
     <g id="text_14">
      <!-- 0.4 -->
      <g transform="translate(24.478125 206.590156) scale(0.1 -0.1)">
       <defs>
        <path id="DejaVuSans-34" d="M 2419 4116
L 825 1625
L 2419 1625
L 2419 4116
z
M 2253 4666
L 3047 4666
L 3047 1625
L 3713 1625
L 3713 1100
L 3047 1100
L 3047 0
L 2419 0
L 2419 1100
L 313 1100
L 313 1709
L 2253 4666
z
" transform="scale(0.015625)"/>
       </defs>
       <use xlink:href="#DejaVuSans-30"/>
       <use xlink:href="#DejaVuSans-2e" transform="translate(63.623047 0)"/>
       <use xlink:href="#DejaVuSans-34" transform="translate(95.410156 0)"/>
      </g>
     </g>
    </g>
    <g id="ytick_4">
     <g id="line2d_25">
      <path d="M 47.38125 148.645889
L 565.2 148.645889
" clip-path="url(#p7c108ff515)" style="fill: none; stroke: #b0b0b0; stroke-opacity: 0.2; stroke-width: 0.8; stroke-linecap: square"/>
     </g>
     <g id="line2d_26">
      <g>
       <use xlink:href="#mbfb48f10aa" x="47.38125" y="148.645889" style="stroke: #000000; stroke-width: 0.8"/>
      </g>
     </g>
     <g id="text_15">
      <!-- 0.6 -->
      <g transform="translate(24.478125 152.445107) scale(0.1 -0.1)">
       <defs>
        <path id="DejaVuSans-36" d="M 2113 2584
Q 1688 2584 1439 2293
Q 1191 2003 1191 1497
Q 1191 994 1439 701
Q 1688 409 2113 409
Q 2538 409 2786 701
Q 3034 994 3034 1497
Q 3034 2003 2786 2293
Q 2538 2584 2113 2584
z
M 3366 4563
L 3366 3988
Q 3128 4100 2886 4159
Q 2644 4219 2406 4219
Q 1781 4219 1451 3797
Q 1122 3375 1075 2522
Q 1259 2794 1537 2939
Q 1816 3084 2150 3084
Q 2853 3084 3261 2657
Q 3669 2231 3669 1497
Q 3669 778 3244 343
Q 2819 -91 2113 -91
Q 1303 -91 875 529
Q 447 1150 447 2328
Q 447 3434 972 4092
Q 1497 4750 2381 4750
Q 2619 4750 2861 4703
Q 3103 4656 3366 4563
z
" transform="scale(0.015625)"/>
       </defs>
       <use xlink:href="#DejaVuSans-30"/>
       <use xlink:href="#DejaVuSans-2e" transform="translate(63.623047 0)"/>
       <use xlink:href="#DejaVuSans-36" transform="translate(95.410156 0)"/>
      </g>
     </g>
    </g>
    <g id="ytick_5">
     <g id="line2d_27">
      <path d="M 47.38125 94.50084
L 565.2 94.50084
" clip-path="url(#p7c108ff515)" style="fill: none; stroke: #b0b0b0; stroke-opacity: 0.2; stroke-width: 0.8; stroke-linecap: square"/>
     </g>
     <g id="line2d_28">
      <g>
       <use xlink:href="#mbfb48f10aa" x="47.38125" y="94.50084" style="stroke: #000000; stroke-width: 0.8"/>
      </g>
     </g>
     <g id="text_16">
      <!-- 0.8 -->
      <g transform="translate(24.478125 98.300059) scale(0.1 -0.1)">
       <defs>
        <path id="DejaVuSans-38" d="M 2034 2216
Q 1584 2216 1326 1975
Q 1069 1734 1069 1313
Q 1069 891 1326 650
Q 1584 409 2034 409
Q 2484 409 2743 651
Q 3003 894 3003 1313
Q 3003 1734 2745 1975
Q 2488 2216 2034 2216
z
M 1403 2484
Q 997 2584 770 2862
Q 544 3141 544 3541
Q 544 4100 942 4425
Q 1341 4750 2034 4750
Q 2731 4750 3128 4425
Q 3525 4100 3525 3541
Q 3525 3141 3298 2862
Q 3072 2584 2669 2484
Q 3125 2378 3379 2068
Q 3634 1759 3634 1313
Q 3634 634 3220 271
Q 2806 -91 2034 -91
Q 1263 -91 848 271
Q 434 634 434 1313
Q 434 1759 690 2068
Q 947 2378 1403 2484
z
M 1172 3481
Q 1172 3119 1398 2916
Q 1625 2713 2034 2713
Q 2441 2713 2670 2916
Q 2900 3119 2900 3481
Q 2900 3844 2670 4047
Q 2441 4250 2034 4250
Q 1625 4250 1398 4047
Q 1172 3844 1172 3481
z
" transform="scale(0.015625)"/>
       </defs>
       <use xlink:href="#DejaVuSans-30"/>
       <use xlink:href="#DejaVuSans-2e" transform="translate(63.623047 0)"/>
       <use xlink:href="#DejaVuSans-38" transform="translate(95.410156 0)"/>
      </g>
     </g>
    </g>
    <g id="ytick_6">
     <g id="line2d_29">
      <path d="M 47.38125 40.355792
L 565.2 40.355792
" clip-path="url(#p7c108ff515)" style="fill: none; stroke: #b0b0b0; stroke-opacity: 0.2; stroke-width: 0.8; stroke-linecap: square"/>
     </g>
     <g id="line2d_30">
      <g>
       <use xlink:href="#mbfb48f10aa" x="47.38125" y="40.355792" style="stroke: #000000; stroke-width: 0.8"/>
      </g>
     </g>
     <g id="text_17">
      <!-- 1.0 -->
      <g transform="translate(24.478125 44.15501) scale(0.1 -0.1)">
       <use xlink:href="#DejaVuSans-31"/>
       <use xlink:href="#DejaVuSans-2e" transform="translate(63.623047 0)"/>
       <use xlink:href="#DejaVuSans-30" transform="translate(95.410156 0)"/>
      </g>
     </g>
    </g>
    <g id="text_18">
     <!-- query batch wall time (ns) -->
     <g transform="translate(18.398438 238.190313) rotate(-90) scale(0.1 -0.1)">
      <defs>
       <path id="DejaVuSans-71" d="M 947 1747
Q 947 1113 1208 752
Q 1469 391 1925 391
Q 2381 391 2643 752
Q 2906 1113 2906 1747
Q 2906 2381 2643 2742
Q 2381 3103 1925 3103
Q 1469 3103 1208 2742
Q 947 2381 947 1747
z
M 2906 525
Q 2725 213 2448 61
Q 2172 -91 1784 -91
Q 1150 -91 751 415
Q 353 922 353 1747
Q 353 2572 751 3078
Q 1150 3584 1784 3584
Q 2172 3584 2448 3432
Q 2725 3281 2906 2969
L 2906 3500
L 3481 3500
L 3481 -1331
L 2906 -1331
L 2906 525
z
" transform="scale(0.015625)"/>
       <path id="DejaVuSans-75" d="M 544 1381
L 544 3500
L 1119 3500
L 1119 1403
Q 1119 906 1312 657
Q 1506 409 1894 409
Q 2359 409 2629 706
Q 2900 1003 2900 1516
L 2900 3500
L 3475 3500
L 3475 0
L 2900 0
L 2900 538
Q 2691 219 2414 64
Q 2138 -91 1772 -91
Q 1169 -91 856 284
Q 544 659 544 1381
z
M 1991 3584
L 1991 3584
z
" transform="scale(0.015625)"/>
       <path id="DejaVuSans-77" d="M 269 3500
L 844 3500
L 1563 769
L 2278 3500
L 2956 3500
L 3675 769
L 4391 3500
L 4966 3500
L 4050 0
L 3372 0
L 2619 2869
L 1863 0
L 1184 0
L 269 3500
z
" transform="scale(0.015625)"/>
       <path id="DejaVuSans-6c" d="M 603 4863
L 1178 4863
L 1178 0
L 603 0
L 603 4863
z
" transform="scale(0.015625)"/>
       <path id="DejaVuSans-6d" d="M 3328 2828
Q 3544 3216 3844 3400
Q 4144 3584 4550 3584
Q 5097 3584 5394 3201
Q 5691 2819 5691 2113
L 5691 0
L 5113 0
L 5113 2094
Q 5113 2597 4934 2840
Q 4756 3084 4391 3084
Q 3944 3084 3684 2787
Q 3425 2491 3425 1978
L 3425 0
L 2847 0
L 2847 2094
Q 2847 2600 2669 2842
Q 2491 3084 2119 3084
Q 1678 3084 1418 2786
Q 1159 2488 1159 1978
L 1159 0
L 581 0
L 581 3500
L 1159 3500
L 1159 2956
Q 1356 3278 1631 3431
Q 1906 3584 2284 3584
Q 2666 3584 2933 3390
Q 3200 3197 3328 2828
z
" transform="scale(0.015625)"/>
       <path id="DejaVuSans-28" d="M 1984 4856
Q 1566 4138 1362 3434
Q 1159 2731 1159 2009
Q 1159 1288 1364 580
Q 1569 -128 1984 -844
L 1484 -844
Q 1016 -109 783 600
Q 550 1309 550 2009
Q 550 2706 781 3412
Q 1013 4119 1484 4856
L 1984 4856
z
" transform="scale(0.015625)"/>
       <path id="DejaVuSans-6e" d="M 3513 2113
L 3513 0
L 2938 0
L 2938 2094
Q 2938 2591 2744 2837
Q 2550 3084 2163 3084
Q 1697 3084 1428 2787
Q 1159 2491 1159 1978
L 1159 0
L 581 0
L 581 3500
L 1159 3500
L 1159 2956
Q 1366 3272 1645 3428
Q 1925 3584 2291 3584
Q 2894 3584 3203 3211
Q 3513 2838 3513 2113
z
" transform="scale(0.015625)"/>
       <path id="DejaVuSans-29" d="M 513 4856
L 1013 4856
Q 1481 4119 1714 3412
Q 1947 2706 1947 2009
Q 1947 1309 1714 600
Q 1481 -109 1013 -844
L 513 -844
Q 928 -128 1133 580
Q 1338 1288 1338 2009
Q 1338 2731 1133 3434
Q 928 4138 513 4856
z
" transform="scale(0.015625)"/>
      </defs>
      <use xlink:href="#DejaVuSans-71"/>
      <use xlink:href="#DejaVuSans-75" transform="translate(63.476562 0)"/>
      <use xlink:href="#DejaVuSans-65" transform="translate(126.855469 0)"/>
      <use xlink:href="#DejaVuSans-72" transform="translate(188.378906 0)"/>
      <use xlink:href="#DejaVuSans-79" transform="translate(229.492188 0)"/>
      <use xlink:href="#DejaVuSans-20" transform="translate(288.671875 0)"/>
      <use xlink:href="#DejaVuSans-62" transform="translate(320.458984 0)"/>
      <use xlink:href="#DejaVuSans-61" transform="translate(383.935547 0)"/>
      <use xlink:href="#DejaVuSans-74" transform="translate(445.214844 0)"/>
      <use xlink:href="#DejaVuSans-63" transform="translate(484.423828 0)"/>
      <use xlink:href="#DejaVuSans-68" transform="translate(539.404297 0)"/>
      <use xlink:href="#DejaVuSans-20" transform="translate(602.783203 0)"/>
      <use xlink:href="#DejaVuSans-77" transform="translate(634.570312 0)"/>
      <use xlink:href="#DejaVuSans-61" transform="translate(716.357422 0)"/>
      <use xlink:href="#DejaVuSans-6c" transform="translate(777.636719 0)"/>
      <use xlink:href="#DejaVuSans-6c" transform="translate(805.419922 0)"/>
      <use xlink:href="#DejaVuSans-20" transform="translate(833.203125 0)"/>
      <use xlink:href="#DejaVuSans-74" transform="translate(864.990234 0)"/>
      <use xlink:href="#DejaVuSans-69" transform="translate(904.199219 0)"/>
      <use xlink:href="#DejaVuSans-6d" transform="translate(931.982422 0)"/>
      <use xlink:href="#DejaVuSans-65" transform="translate(1029.394531 0)"/>
      <use xlink:href="#DejaVuSans-20" transform="translate(1090.917969 0)"/>
      <use xlink:href="#DejaVuSans-28" transform="translate(1122.705078 0)"/>
      <use xlink:href="#DejaVuSans-6e" transform="translate(1161.71875 0)"/>
      <use xlink:href="#DejaVuSans-73" transform="translate(1225.097656 0)"/>
      <use xlink:href="#DejaVuSans-29" transform="translate(1277.197266 0)"/>
     </g>
    </g>
    <g id="text_19">
     <!-- 1e10 -->
     <g transform="translate(47.38125 22.918125) scale(0.1 -0.1)">
      <use xlink:href="#DejaVuSans-31"/>
      <use xlink:href="#DejaVuSans-65" transform="translate(63.623047 0)"/>
      <use xlink:href="#DejaVuSans-31" transform="translate(125.146484 0)"/>
      <use xlink:href="#DejaVuSans-30" transform="translate(188.769531 0)"/>
     </g>
    </g>
   </g>
   <g id="PathCollection_1">
    <path d="M 77.896024 303.150648
C 78.785543 303.150648 79.638748 302.797239 80.267733 302.168254
C 80.896717 301.53927 81.250126 300.686064 81.250126 299.796546
C 81.250126 298.907028 80.896717 298.053822 80.267733 297.424838
C 79.638748 296.795854 78.785543 296.442444 77.896024 296.442444
C 77.006506 296.442444 76.1533 296.795854 75.524316 297.424838
C 74.895332 298.053822 74.541922 298.907028 74.541922 299.796546
C 74.541922 300.686064 74.895332 301.53927 75.524316 302.168254
C 76.1533 302.797239 77.006506 303.150648 77.896024 303.150648
z
" clip-path="url(#p7c108ff515)" style="fill: #829087; fill-opacity: 0.58"/>
   </g>
   <g id="PathCollection_2">
    <path d="M 71.126526 303.008531
C 72.016044 303.008531 72.869249 302.655121 73.498234 302.026137
C 74.127218 301.397153 74.480627 300.543947 74.480627 299.654429
C 74.480627 298.764911 74.127218 297.911705 73.498234 297.282721
C 72.869249 296.653736 72.016044 296.300327 71.126526 296.300327
C 70.237007 296.300327 69.383802 296.653736 68.754817 297.282721
C 68.125833 297.911705 67.772424 298.764911 67.772424 299.654429
C 67.772424 300.543947 68.125833 301.397153 68.754817 302.026137
C 69.383802 302.655121 70.237007 303.008531 71.126526 303.008531
z
" clip-path="url(#p7c108ff515)" style="fill: #829087; fill-opacity: 0.58"/>
   </g>
   <g id="PathCollection_3">
    <path d="M 71.135639 303.08731
C 72.025157 303.08731 72.878363 302.733901 73.507347 302.104916
C 74.136331 301.475932 74.489741 300.622726 74.489741 299.733208
C 74.489741 298.84369 74.136331 297.990484 73.507347 297.3615
C 72.878363 296.732516 72.025157 296.379106 71.135639 296.379106
C 70.246121 296.379106 69.392915 296.732516 68.763931 297.3615
C 68.134946 297.990484 67.781537 298.84369 67.781537 299.733208
C 67.781537 300.622726 68.134946 301.475932 68.763931 302.104916
C 69.392915 302.733901 70.246121 303.08731 71.135639 303.08731
z
" clip-path="url(#p7c108ff515)" style="fill: #829087; fill-opacity: 0.58"/>
   </g>
   <g id="PathCollection_4">
    <path d="M 71.068693 302.887816
C 71.958211 302.887816 72.811417 302.534406 73.440401 301.905422
C 74.069386 301.276438 74.422795 300.423232 74.422795 299.533714
C 74.422795 298.644196 74.069386 297.79099 73.440401 297.162006
C 72.811417 296.533021 71.958211 296.179612 71.068693 296.179612
C 70.179175 296.179612 69.325969 296.533021 68.696985 297.162006
C 68.068 297.79099 67.714591 298.644196 67.714591 299.533714
C 67.714591 300.423232 68.068 301.276438 68.696985 301.905422
C 69.325969 302.534406 70.179175 302.887816 71.068693 302.887816
z
" clip-path="url(#p7c108ff515)" style="fill: #829087; fill-opacity: 0.58"/>
   </g>
   <g id="PathCollection_5">
    <path d="M 541.662784 68.756806
C 542.552302 68.756806 543.405508 68.403397 544.034492 67.774412
C 544.663477 67.145428 545.016886 66.292222 545.016886 65.402704
C 545.016886 64.513186 544.663477 63.65998 544.034492 63.030996
C 543.405508 62.402012 542.552302 62.048602 541.662784 62.048602
C 540.773266 62.048602 539.92006 62.402012 539.291076 63.030996
C 538.662091 63.65998 538.308682 64.513186 538.308682 65.402704
C 538.308682 66.292222 538.662091 67.145428 539.291076 67.774412
C 539.92006 68.403397 540.773266 68.756806 541.662784 68.756806
z
" clip-path="url(#p7c108ff515)" style="fill: #829087; fill-opacity: 0.58"/>
   </g>
   <g id="PathCollection_6">
    <path d="M 93.320556 59.095725
C 94.210074 59.095725 95.06328 58.742315 95.692264 58.113331
C 96.321248 57.484346 96.674658 56.631141 96.674658 55.741623
C 96.674658 54.852104 96.321248 53.998899 95.692264 53.369914
C 95.06328 52.74093 94.210074 52.387521 93.320556 52.387521
C 92.431037 52.387521 91.577832 52.74093 90.948847 53.369914
C 90.319863 53.998899 89.966454 54.852104 89.966454 55.741623
C 89.966454 56.631141 90.319863 57.484346 90.948847 58.113331
C 91.577832 58.742315 92.431037 59.095725 93.320556 59.095725
z
" clip-path="url(#p7c108ff515)" style="fill: #829087; fill-opacity: 0.58"/>
   </g>
   <g id="PathCollection_7">
    <path d="M 94.47967 60.378027
C 95.369188 60.378027 96.222394 60.024618 96.851378 59.395633
C 97.480363 58.766649 97.833772 57.913443 97.833772 57.023925
C 97.833772 56.134407 97.480363 55.281201 96.851378 54.652217
C 96.222394 54.023232 95.369188 53.669823 94.47967 53.669823
C 93.590152 53.669823 92.736946 54.023232 92.107962 54.652217
C 91.478977 55.281201 91.125568 56.134407 91.125568 57.023925
C 91.125568 57.913443 91.478977 58.766649 92.107962 59.395633
C 92.736946 60.024618 93.590152 60.378027 94.47967 60.378027
z
" clip-path="url(#p7c108ff515)" style="fill: #829087; fill-opacity: 0.58"/>
   </g>
   <g id="PathCollection_8">
    <path d="M 88.12047 56.122657
C 89.009989 56.122657 89.863194 55.769248 90.492179 55.140264
C 91.121163 54.511279 91.474572 53.658074 91.474572 52.768555
C 91.474572 51.879037 91.121163 51.025832 90.492179 50.396847
C 89.863194 49.767863 89.009989 49.414453 88.12047 49.414453
C 87.230952 49.414453 86.377747 49.767863 85.748762 50.396847
C 85.119778 51.025832 84.766369 51.879037 84.766369 52.768555
C 84.766369 53.658074 85.119778 54.511279 85.748762 55.140264
C 86.377747 55.769248 87.230952 56.122657 88.12047 56.122657
z
" clip-path="url(#p7c108ff515)" style="fill: #829087; fill-opacity: 0.58"/>
   </g>
   <g id="PathCollection_9">
    <path d="M 72.201793 234.160096
C 73.091311 234.160096 73.944517 233.806686 74.573501 233.177702
C 75.202486 232.548717 75.555895 231.695512 75.555895 230.805994
C 75.555895 229.916475 75.202486 229.06327 74.573501 228.434285
C 73.944517 227.805301 73.091311 227.451892 72.201793 227.451892
C 71.312275 227.451892 70.459069 227.805301 69.830085 228.434285
C 69.201101 229.06327 68.847691 229.916475 68.847691 230.805994
C 68.847691 231.695512 69.201101 232.548717 69.830085 233.177702
C 70.459069 233.806686 71.312275 234.160096 72.201793 234.160096
z
" clip-path="url(#p7c108ff515)" style="fill: #829087; fill-opacity: 0.58"/>
   </g>
   <g id="PathCollection_10">
    <path d="M 71.056775 229.921813
C 71.946293 229.921813 72.799499 229.568403 73.428484 228.939419
C 74.057468 228.310434 74.410877 227.457229 74.410877 226.567711
C 74.410877 225.678192 74.057468 224.824987 73.428484 224.196002
C 72.799499 223.567018 71.946293 223.213609 71.056775 223.213609
C 70.167257 223.213609 69.314051 223.567018 68.685067 224.196002
C 68.056083 224.824987 67.702673 225.678192 67.702673 226.567711
C 67.702673 227.457229 68.056083 228.310434 68.685067 228.939419
C 69.314051 229.568403 70.167257 229.921813 71.056775 229.921813
z
" clip-path="url(#p7c108ff515)" style="fill: #829087; fill-opacity: 0.58"/>
   </g>
   <g id="PathCollection_11">
    <path d="M 70.955276 225.303468
C 71.844794 225.303468 72.698 224.950058 73.326984 224.321074
C 73.955969 223.69209 74.309378 222.838884 74.309378 221.949366
C 74.309378 221.059847 73.955969 220.206642 73.326984 219.577657
C 72.698 218.948673 71.844794 218.595264 70.955276 218.595264
C 70.065758 218.595264 69.212552 218.948673 68.583568 219.577657
C 67.954583 220.206642 67.601174 221.059847 67.601174 221.949366
C 67.601174 222.838884 67.954583 223.69209 68.583568 224.321074
C 69.212552 224.950058 70.065758 225.303468 70.955276 225.303468
z
" clip-path="url(#p7c108ff515)" style="fill: #829087; fill-opacity: 0.58"/>
   </g>
   <g id="PathCollection_12">
    <path d="M 151.451386 77.412679
C 152.340905 77.412679 153.19411 77.059269 153.823095 76.430285
C 154.452079 75.801301 154.805488 74.948095 154.805488 74.058577
C 154.805488 73.169059 154.452079 72.315853 153.823095 71.686869
C 153.19411 71.057884 152.340905 70.704475 151.451386 70.704475
C 150.561868 70.704475 149.708663 71.057884 149.079678 71.686869
C 148.450694 72.315853 148.097284 73.169059 148.097284 74.058577
C 148.097284 74.948095 148.450694 75.801301 149.079678 76.430285
C 149.708663 77.059269 150.561868 77.412679 151.451386 77.412679
z
" clip-path="url(#p7c108ff515)" style="fill: #829087; fill-opacity: 0.58"/>
   </g>
   <g id="PathCollection_13">
    <path d="M 89.921673 70.990585
C 90.811191 70.990585 91.664396 70.637175 92.293381 70.008191
C 92.922365 69.379207 93.275774 68.526001 93.275774 67.636483
C 93.275774 66.746964 92.922365 65.893759 92.293381 65.264774
C 91.664396 64.63579 90.811191 64.282381 89.921673 64.282381
C 89.032154 64.282381 88.178949 64.63579 87.549964 65.264774
C 86.92098 65.893759 86.567571 66.746964 86.567571 67.636483
C 86.567571 68.526001 86.92098 69.379207 87.549964 70.008191
C 88.178949 70.637175 89.032154 70.990585 89.921673 70.990585
z
" clip-path="url(#p7c108ff515)" style="fill: #829087; fill-opacity: 0.58"/>
   </g>
   <g id="PathCollection_14">
    <path d="M 72.415391 42.587028
C 73.304909 42.587028 74.158115 42.233619 74.787099 41.604634
C 75.416083 40.97565 75.769493 40.122444 75.769493 39.232926
C 75.769493 38.343408 75.416083 37.490202 74.787099 36.861218
C 74.158115 36.232234 73.304909 35.878824 72.415391 35.878824
C 71.525873 35.878824 70.672667 36.232234 70.043683 36.861218
C 69.414698 37.490202 69.061289 38.343408 69.061289 39.232926
C 69.061289 40.122444 69.414698 40.97565 70.043683 41.604634
C 70.672667 42.233619 71.525873 42.587028 72.415391 42.587028
z
" clip-path="url(#p7c108ff515)" style="fill: #829087; fill-opacity: 0.58"/>
   </g>
   <g id="PathCollection_15">
    <path d="M 71.995149 308.883051
C 72.884668 308.883051 73.737873 308.529641 74.366858 307.900657
C 74.995842 307.271673 75.349251 306.418467 75.349251 305.528949
C 75.349251 304.639431 74.995842 303.786225 74.366858 303.157241
C 73.737873 302.528256 72.884668 302.174847 71.995149 302.174847
C 71.105631 302.174847 70.252425 302.528256 69.623441 303.157241
C 68.994457 303.786225 68.641047 304.639431 68.641047 305.528949
C 68.641047 306.418467 68.994457 307.271673 69.623441 307.900657
C 70.252425 308.529641 71.105631 308.883051 71.995149 308.883051
z
" clip-path="url(#p7c108ff515)" style="fill: #829087; fill-opacity: 0.58"/>
   </g>
   <g id="PathCollection_16">
    <path d="M 71.01369 308.834791
C 71.903209 308.834791 72.756414 308.481382 73.385399 307.852397
C 74.014383 307.223413 74.367792 306.370207 74.367792 305.480689
C 74.367792 304.591171 74.014383 303.737965 73.385399 303.108981
C 72.756414 302.479997 71.903209 302.126587 71.01369 302.126587
C 70.124172 302.126587 69.270966 302.479997 68.641982 303.108981
C 68.012998 303.737965 67.659588 304.591171 67.659588 305.480689
C 67.659588 306.370207 68.012998 307.223413 68.641982 307.852397
C 69.270966 308.481382 70.124172 308.834791 71.01369 308.834791
z
" clip-path="url(#p7c108ff515)" style="fill: #829087; fill-opacity: 0.58"/>
   </g>
   <g id="PathCollection_17">
    <path d="M 71.013065 308.771041
C 71.902583 308.771041 72.755789 308.417632 73.384773 307.788647
C 74.013758 307.159663 74.367167 306.306457 74.367167 305.416939
C 74.367167 304.527421 74.013758 303.674215 73.384773 303.045231
C 72.755789 302.416247 71.902583 302.062837 71.013065 302.062837
C 70.123547 302.062837 69.270341 302.416247 68.641357 303.045231
C 68.012372 303.674215 67.658963 304.527421 67.658963 305.416939
C 67.658963 306.306457 68.012372 307.159663 68.641357 307.788647
C 69.270341 308.417632 70.123547 308.771041 71.013065 308.771041
z
" clip-path="url(#p7c108ff515)" style="fill: #829087; fill-opacity: 0.58"/>
   </g>
   <g id="PathCollection_18">
    <path d="M 70.997442 308.878683
C 71.88696 308.878683 72.740165 308.525274 73.36915 307.896289
C 73.998134 307.267305 74.351544 306.414099 74.351544 305.524581
C 74.351544 304.635063 73.998134 303.781857 73.36915 303.152873
C 72.740165 302.523888 71.88696 302.170479 70.997442 302.170479
C 70.107923 302.170479 69.254718 302.523888 68.625733 303.152873
C 67.996749 303.781857 67.64334 304.635063 67.64334 305.524581
C 67.64334 306.414099 67.996749 307.267305 68.625733 307.896289
C 69.254718 308.525274 70.107923 308.878683 70.997442 308.878683
z
" clip-path="url(#p7c108ff515)" style="fill: #829087; fill-opacity: 0.58"/>
   </g>
   <g id="PathCollection_19">
    <path d="M 71.093407 274.410195
C 71.982926 274.410195 72.836131 274.056786 73.465116 273.427801
C 74.0941 272.798817 74.447509 271.945611 74.447509 271.056093
C 74.447509 270.166575 74.0941 269.313369 73.465116 268.684385
C 72.836131 268.0554 71.982926 267.701991 71.093407 267.701991
C 70.203889 267.701991 69.350683 268.0554 68.721699 268.684385
C 68.092715 269.313369 67.739305 270.166575 67.739305 271.056093
C 67.739305 271.945611 68.092715 272.798817 68.721699 273.427801
C 69.350683 274.056786 70.203889 274.410195 71.093407 274.410195
z
" clip-path="url(#p7c108ff515)" style="fill: #829087; fill-opacity: 0.58"/>
   </g>
   <g id="PathCollection_20">
    <path d="M 70.96466 272.67537
C 71.854178 272.67537 72.707384 272.321961 73.336368 271.692976
C 73.965353 271.063992 74.318762 270.210786 74.318762 269.321268
C 74.318762 268.43175 73.965353 267.578544 73.336368 266.94956
C 72.707384 266.320576 71.854178 265.967166 70.96466 265.967166
C 70.075142 265.967166 69.221936 266.320576 68.592952 266.94956
C 67.963967 267.578544 67.610558 268.43175 67.610558 269.321268
C 67.610558 270.210786 67.963967 271.063992 68.592952 271.692976
C 69.221936 272.321961 70.075142 272.67537 70.96466 272.67537
z
" clip-path="url(#p7c108ff515)" style="fill: #829087; fill-opacity: 0.58"/>
   </g>
   <g id="PathCollection_21">
    <path d="M 71.229301 268.531182
C 72.118819 268.531182 72.972025 268.177773 73.601009 267.548788
C 74.229994 266.919804 74.583403 266.066598 74.583403 265.17708
C 74.583403 264.287562 74.229994 263.434356 73.601009 262.805372
C 72.972025 262.176388 72.118819 261.822978 71.229301 261.822978
C 70.339783 261.822978 69.486577 262.176388 68.857593 262.805372
C 68.228608 263.434356 67.875199 264.287562 67.875199 265.17708
C 67.875199 266.066598 68.228608 266.919804 68.857593 267.548788
C 69.486577 268.177773 70.339783 268.531182 71.229301 268.531182
z
" clip-path="url(#p7c108ff515)" style="fill: #829087; fill-opacity: 0.58"/>
   </g>
   <g id="patch_3">
    <path d="M 47.38125 318.84375
L 47.38125 25.918125
" style="fill: none; stroke: #000000; stroke-width: 0.8; stroke-linejoin: miter; stroke-linecap: square"/>
   </g>
   <g id="patch_4">
    <path d="M 565.2 318.84375
L 565.2 25.918125
" style="fill: none; stroke: #000000; stroke-width: 0.8; stroke-linejoin: miter; stroke-linecap: square"/>
   </g>
   <g id="patch_5">
    <path d="M 47.38125 318.84375
L 565.2 318.84375
" style="fill: none; stroke: #000000; stroke-width: 0.8; stroke-linejoin: miter; stroke-linecap: square"/>
   </g>
   <g id="patch_6">
    <path d="M 47.38125 25.918125
L 565.2 25.918125
" style="fill: none; stroke: #000000; stroke-width: 0.8; stroke-linejoin: miter; stroke-linecap: square"/>
   </g>
   <g id="text_20">
    <!-- jsonl -->
    <g style="fill: #566159" transform="translate(79.896024 297.796546) scale(0.07 -0.07)">
     <defs>
      <path id="DejaVuSans-6a" d="M 603 3500
L 1178 3500
L 1178 -63
Q 1178 -731 923 -1031
Q 669 -1331 103 -1331
L -116 -1331
L -116 -844
L 38 -844
Q 366 -844 484 -692
Q 603 -541 603 -63
L 603 3500
z
M 603 4863
L 1178 4863
L 1178 4134
L 603 4134
L 603 4863
z
" transform="scale(0.015625)"/>
      <path id="DejaVuSans-6f" d="M 1959 3097
Q 1497 3097 1228 2736
Q 959 2375 959 1747
Q 959 1119 1226 758
Q 1494 397 1959 397
Q 2419 397 2687 759
Q 2956 1122 2956 1747
Q 2956 2369 2687 2733
Q 2419 3097 1959 3097
z
M 1959 3584
Q 2709 3584 3137 3096
Q 3566 2609 3566 1747
Q 3566 888 3137 398
Q 2709 -91 1959 -91
Q 1206 -91 779 398
Q 353 888 353 1747
Q 353 2609 779 3096
Q 1206 3584 1959 3584
z
" transform="scale(0.015625)"/>
     </defs>
     <use xlink:href="#DejaVuSans-6a"/>
     <use xlink:href="#DejaVuSans-73" transform="translate(27.783203 0)"/>
     <use xlink:href="#DejaVuSans-6f" transform="translate(79.882812 0)"/>
     <use xlink:href="#DejaVuSans-6e" transform="translate(141.064453 0)"/>
     <use xlink:href="#DejaVuSans-6c" transform="translate(204.443359 0)"/>
    </g>
   </g>
   <g id="text_21">
    <!-- gzip-6 -->
    <g style="fill: #566159" transform="translate(73.126526 297.654429) scale(0.07 -0.07)">
     <defs>
      <path id="DejaVuSans-67" d="M 2906 1791
Q 2906 2416 2648 2759
Q 2391 3103 1925 3103
Q 1463 3103 1205 2759
Q 947 2416 947 1791
Q 947 1169 1205 825
Q 1463 481 1925 481
Q 2391 481 2648 825
Q 2906 1169 2906 1791
z
M 3481 434
Q 3481 -459 3084 -895
Q 2688 -1331 1869 -1331
Q 1566 -1331 1297 -1286
Q 1028 -1241 775 -1147
L 775 -588
Q 1028 -725 1275 -790
Q 1522 -856 1778 -856
Q 2344 -856 2625 -561
Q 2906 -266 2906 331
L 2906 616
Q 2728 306 2450 153
Q 2172 0 1784 0
Q 1141 0 747 490
Q 353 981 353 1791
Q 353 2603 747 3093
Q 1141 3584 1784 3584
Q 2172 3584 2450 3431
Q 2728 3278 2906 2969
L 2906 3500
L 3481 3500
L 3481 434
z
" transform="scale(0.015625)"/>
      <path id="DejaVuSans-7a" d="M 353 3500
L 3084 3500
L 3084 2975
L 922 459
L 3084 459
L 3084 0
L 275 0
L 275 525
L 2438 3041
L 353 3041
L 353 3500
z
" transform="scale(0.015625)"/>
      <path id="DejaVuSans-70" d="M 1159 525
L 1159 -1331
L 581 -1331
L 581 3500
L 1159 3500
L 1159 2969
Q 1341 3281 1617 3432
Q 1894 3584 2278 3584
Q 2916 3584 3314 3078
Q 3713 2572 3713 1747
Q 3713 922 3314 415
Q 2916 -91 2278 -91
Q 1894 -91 1617 61
Q 1341 213 1159 525
z
M 3116 1747
Q 3116 2381 2855 2742
Q 2594 3103 2138 3103
Q 1681 3103 1420 2742
Q 1159 2381 1159 1747
Q 1159 1113 1420 752
Q 1681 391 2138 391
Q 2594 391 2855 752
Q 3116 1113 3116 1747
z
" transform="scale(0.015625)"/>
      <path id="DejaVuSans-2d" d="M 313 2009
L 1997 2009
L 1997 1497
L 313 1497
L 313 2009
z
" transform="scale(0.015625)"/>
     </defs>
     <use xlink:href="#DejaVuSans-67"/>
     <use xlink:href="#DejaVuSans-7a" transform="translate(63.476562 0)"/>
     <use xlink:href="#DejaVuSans-69" transform="translate(115.966797 0)"/>
     <use xlink:href="#DejaVuSans-70" transform="translate(143.75 0)"/>
     <use xlink:href="#DejaVuSans-2d" transform="translate(207.226562 0)"/>
     <use xlink:href="#DejaVuSans-36" transform="translate(243.310547 0)"/>
    </g>
   </g>
   <g id="text_22">
    <!-- zstd-3 -->
    <g style="fill: #566159" transform="translate(73.135639 297.733208) scale(0.07 -0.07)">
     <defs>
      <path id="DejaVuSans-64" d="M 2906 2969
L 2906 4863
L 3481 4863
L 3481 0
L 2906 0
L 2906 525
Q 2725 213 2448 61
Q 2172 -91 1784 -91
Q 1150 -91 751 415
Q 353 922 353 1747
Q 353 2572 751 3078
Q 1150 3584 1784 3584
Q 2172 3584 2448 3432
Q 2725 3281 2906 2969
z
M 947 1747
Q 947 1113 1208 752
Q 1469 391 1925 391
Q 2381 391 2643 752
Q 2906 1113 2906 1747
Q 2906 2381 2643 2742
Q 2381 3103 1925 3103
Q 1469 3103 1208 2742
Q 947 2381 947 1747
z
" transform="scale(0.015625)"/>
      <path id="DejaVuSans-33" d="M 2597 2516
Q 3050 2419 3304 2112
Q 3559 1806 3559 1356
Q 3559 666 3084 287
Q 2609 -91 1734 -91
Q 1441 -91 1130 -33
Q 819 25 488 141
L 488 750
Q 750 597 1062 519
Q 1375 441 1716 441
Q 2309 441 2620 675
Q 2931 909 2931 1356
Q 2931 1769 2642 2001
Q 2353 2234 1838 2234
L 1294 2234
L 1294 2753
L 1863 2753
Q 2328 2753 2575 2939
Q 2822 3125 2822 3475
Q 2822 3834 2567 4026
Q 2313 4219 1838 4219
Q 1578 4219 1281 4162
Q 984 4106 628 3988
L 628 4550
Q 988 4650 1302 4700
Q 1616 4750 1894 4750
Q 2613 4750 3031 4423
Q 3450 4097 3450 3541
Q 3450 3153 3228 2886
Q 3006 2619 2597 2516
z
" transform="scale(0.015625)"/>
     </defs>
     <use xlink:href="#DejaVuSans-7a"/>
     <use xlink:href="#DejaVuSans-73" transform="translate(52.490234 0)"/>
     <use xlink:href="#DejaVuSans-74" transform="translate(104.589844 0)"/>
     <use xlink:href="#DejaVuSans-64" transform="translate(143.798828 0)"/>
     <use xlink:href="#DejaVuSans-2d" transform="translate(207.275391 0)"/>
     <use xlink:href="#DejaVuSans-33" transform="translate(243.359375 0)"/>
    </g>
   </g>
   <g id="text_23">
    <!-- zstd-9 -->
    <g style="fill: #566159" transform="translate(73.068693 297.533714) scale(0.07 -0.07)">
     <use xlink:href="#DejaVuSans-7a"/>
     <use xlink:href="#DejaVuSans-73" transform="translate(52.490234 0)"/>
     <use xlink:href="#DejaVuSans-74" transform="translate(104.589844 0)"/>
     <use xlink:href="#DejaVuSans-64" transform="translate(143.798828 0)"/>
     <use xlink:href="#DejaVuSans-2d" transform="translate(207.275391 0)"/>
     <use xlink:href="#DejaVuSans-39" transform="translate(243.359375 0)"/>
    </g>
   </g>
   <g id="text_24">
    <!-- TraceFold · ours (loghub-zookeeper) -->
    <g style="fill: #8f2c18" transform="translate(76.918466 281.2998) scale(0.09 -0.09)">
     <defs>
      <path id="DejaVuSans-Bold-54" d="M 31 4666
L 4331 4666
L 4331 3756
L 2784 3756
L 2784 0
L 1581 0
L 1581 3756
L 31 3756
L 31 4666
z
" transform="scale(0.015625)"/>
      <path id="DejaVuSans-Bold-72" d="M 3138 2547
Q 2991 2616 2845 2648
Q 2700 2681 2553 2681
Q 2122 2681 1889 2404
Q 1656 2128 1656 1613
L 1656 0
L 538 0
L 538 3500
L 1656 3500
L 1656 2925
Q 1872 3269 2151 3426
Q 2431 3584 2822 3584
Q 2878 3584 2943 3579
Q 3009 3575 3134 3559
L 3138 2547
z
" transform="scale(0.015625)"/>
      <path id="DejaVuSans-Bold-61" d="M 2106 1575
Q 1756 1575 1579 1456
Q 1403 1338 1403 1106
Q 1403 894 1545 773
Q 1688 653 1941 653
Q 2256 653 2472 879
Q 2688 1106 2688 1447
L 2688 1575
L 2106 1575
z
M 3816 1997
L 3816 0
L 2688 0
L 2688 519
Q 2463 200 2181 54
Q 1900 -91 1497 -91
Q 953 -91 614 226
Q 275 544 275 1050
Q 275 1666 698 1953
Q 1122 2241 2028 2241
L 2688 2241
L 2688 2328
Q 2688 2594 2478 2717
Q 2269 2841 1825 2841
Q 1466 2841 1156 2769
Q 847 2697 581 2553
L 581 3406
Q 941 3494 1303 3539
Q 1666 3584 2028 3584
Q 2975 3584 3395 3211
Q 3816 2838 3816 1997
z
" transform="scale(0.015625)"/>
      <path id="DejaVuSans-Bold-63" d="M 3366 3391
L 3366 2478
Q 3138 2634 2908 2709
Q 2678 2784 2431 2784
Q 1963 2784 1702 2511
Q 1441 2238 1441 1747
Q 1441 1256 1702 982
Q 1963 709 2431 709
Q 2694 709 2930 787
Q 3166 866 3366 1019
L 3366 103
Q 3103 6 2833 -42
Q 2563 -91 2291 -91
Q 1344 -91 809 395
Q 275 881 275 1747
Q 275 2613 809 3098
Q 1344 3584 2291 3584
Q 2566 3584 2833 3536
Q 3100 3488 3366 3391
z
" transform="scale(0.015625)"/>
      <path id="DejaVuSans-Bold-65" d="M 4031 1759
L 4031 1441
L 1416 1441
Q 1456 1047 1700 850
Q 1944 653 2381 653
Q 2734 653 3104 758
Q 3475 863 3866 1075
L 3866 213
Q 3469 63 3072 -14
Q 2675 -91 2278 -91
Q 1328 -91 801 392
Q 275 875 275 1747
Q 275 2603 792 3093
Q 1309 3584 2216 3584
Q 3041 3584 3536 3087
Q 4031 2591 4031 1759
z
M 2881 2131
Q 2881 2450 2695 2645
Q 2509 2841 2209 2841
Q 1884 2841 1681 2658
Q 1478 2475 1428 2131
L 2881 2131
z
" transform="scale(0.015625)"/>
      <path id="DejaVuSans-Bold-46" d="M 588 4666
L 3834 4666
L 3834 3756
L 1791 3756
L 1791 2888
L 3713 2888
L 3713 1978
L 1791 1978
L 1791 0
L 588 0
L 588 4666
z
" transform="scale(0.015625)"/>
      <path id="DejaVuSans-Bold-6f" d="M 2203 2784
Q 1831 2784 1636 2517
Q 1441 2250 1441 1747
Q 1441 1244 1636 976
Q 1831 709 2203 709
Q 2569 709 2762 976
Q 2956 1244 2956 1747
Q 2956 2250 2762 2517
Q 2569 2784 2203 2784
z
M 2203 3584
Q 3106 3584 3614 3096
Q 4122 2609 4122 1747
Q 4122 884 3614 396
Q 3106 -91 2203 -91
Q 1297 -91 786 396
Q 275 884 275 1747
Q 275 2609 786 3096
Q 1297 3584 2203 3584
z
" transform="scale(0.015625)"/>
      <path id="DejaVuSans-Bold-6c" d="M 538 4863
L 1656 4863
L 1656 0
L 538 0
L 538 4863
z
" transform="scale(0.015625)"/>
      <path id="DejaVuSans-Bold-64" d="M 2919 2988
L 2919 4863
L 4044 4863
L 4044 0
L 2919 0
L 2919 506
Q 2688 197 2409 53
Q 2131 -91 1766 -91
Q 1119 -91 703 423
Q 288 938 288 1747
Q 288 2556 703 3070
Q 1119 3584 1766 3584
Q 2128 3584 2408 3439
Q 2688 3294 2919 2988
z
M 2181 722
Q 2541 722 2730 984
Q 2919 1247 2919 1747
Q 2919 2247 2730 2509
Q 2541 2772 2181 2772
Q 1825 2772 1636 2509
Q 1447 2247 1447 1747
Q 1447 1247 1636 984
Q 1825 722 2181 722
z
" transform="scale(0.015625)"/>
      <path id="DejaVuSans-Bold-20" transform="scale(0.015625)"/>
      <path id="DejaVuSans-Bold-b7" d="M 653 2828
L 1778 2828
L 1778 1619
L 653 1619
L 653 2828
z
" transform="scale(0.015625)"/>
      <path id="DejaVuSans-Bold-75" d="M 500 1363
L 500 3500
L 1625 3500
L 1625 3150
Q 1625 2866 1622 2436
Q 1619 2006 1619 1863
Q 1619 1441 1641 1255
Q 1663 1069 1716 984
Q 1784 875 1895 815
Q 2006 756 2150 756
Q 2500 756 2700 1025
Q 2900 1294 2900 1772
L 2900 3500
L 4019 3500
L 4019 0
L 2900 0
L 2900 506
Q 2647 200 2364 54
Q 2081 -91 1741 -91
Q 1134 -91 817 281
Q 500 653 500 1363
z
" transform="scale(0.015625)"/>
      <path id="DejaVuSans-Bold-73" d="M 3272 3391
L 3272 2541
Q 2913 2691 2578 2766
Q 2244 2841 1947 2841
Q 1628 2841 1473 2761
Q 1319 2681 1319 2516
Q 1319 2381 1436 2309
Q 1553 2238 1856 2203
L 2053 2175
Q 2913 2066 3209 1816
Q 3506 1566 3506 1031
Q 3506 472 3093 190
Q 2681 -91 1863 -91
Q 1516 -91 1145 -36
Q 775 19 384 128
L 384 978
Q 719 816 1070 734
Q 1422 653 1784 653
Q 2113 653 2278 743
Q 2444 834 2444 1013
Q 2444 1163 2330 1236
Q 2216 1309 1875 1350
L 1678 1375
Q 931 1469 631 1722
Q 331 1975 331 2491
Q 331 3047 712 3315
Q 1094 3584 1881 3584
Q 2191 3584 2531 3537
Q 2872 3491 3272 3391
z
" transform="scale(0.015625)"/>
      <path id="DejaVuSans-Bold-28" d="M 2413 -844
L 1484 -844
Q 1006 -72 778 623
Q 550 1319 550 2003
Q 550 2688 779 3389
Q 1009 4091 1484 4856
L 2413 4856
Q 2013 4116 1813 3408
Q 1613 2700 1613 2009
Q 1613 1319 1811 609
Q 2009 -100 2413 -844
z
" transform="scale(0.015625)"/>
      <path id="DejaVuSans-Bold-67" d="M 2919 594
Q 2688 288 2409 144
Q 2131 0 1766 0
Q 1125 0 706 504
Q 288 1009 288 1791
Q 288 2575 706 3076
Q 1125 3578 1766 3578
Q 2131 3578 2409 3434
Q 2688 3291 2919 2981
L 2919 3500
L 4044 3500
L 4044 353
Q 4044 -491 3511 -936
Q 2978 -1381 1966 -1381
Q 1638 -1381 1331 -1331
Q 1025 -1281 716 -1178
L 716 -306
Q 1009 -475 1290 -558
Q 1572 -641 1856 -641
Q 2406 -641 2662 -400
Q 2919 -159 2919 353
L 2919 594
z
M 2181 2772
Q 1834 2772 1640 2515
Q 1447 2259 1447 1791
Q 1447 1309 1634 1061
Q 1822 813 2181 813
Q 2531 813 2725 1069
Q 2919 1325 2919 1791
Q 2919 2259 2725 2515
Q 2531 2772 2181 2772
z
" transform="scale(0.015625)"/>
      <path id="DejaVuSans-Bold-68" d="M 4056 2131
L 4056 0
L 2931 0
L 2931 347
L 2931 1625
Q 2931 2084 2911 2256
Q 2891 2428 2841 2509
Q 2775 2619 2662 2680
Q 2550 2741 2406 2741
Q 2056 2741 1856 2470
Q 1656 2200 1656 1722
L 1656 0
L 538 0
L 538 4863
L 1656 4863
L 1656 2988
Q 1909 3294 2193 3439
Q 2478 3584 2822 3584
Q 3428 3584 3742 3212
Q 4056 2841 4056 2131
z
" transform="scale(0.015625)"/>
      <path id="DejaVuSans-Bold-62" d="M 2400 722
Q 2759 722 2948 984
Q 3138 1247 3138 1747
Q 3138 2247 2948 2509
Q 2759 2772 2400 2772
Q 2041 2772 1848 2508
Q 1656 2244 1656 1747
Q 1656 1250 1848 986
Q 2041 722 2400 722
z
M 1656 2988
Q 1888 3294 2169 3439
Q 2450 3584 2816 3584
Q 3463 3584 3878 3070
Q 4294 2556 4294 1747
Q 4294 938 3878 423
Q 3463 -91 2816 -91
Q 2450 -91 2169 54
Q 1888 200 1656 506
L 1656 0
L 538 0
L 538 4863
L 1656 4863
L 1656 2988
z
" transform="scale(0.015625)"/>
      <path id="DejaVuSans-Bold-2d" d="M 347 2297
L 2309 2297
L 2309 1388
L 347 1388
L 347 2297
z
" transform="scale(0.015625)"/>
      <path id="DejaVuSans-Bold-7a" d="M 366 3500
L 3419 3500
L 3419 2719
L 1575 800
L 3419 800
L 3419 0
L 288 0
L 288 781
L 2131 2700
L 366 2700
L 366 3500
z
" transform="scale(0.015625)"/>
      <path id="DejaVuSans-Bold-6b" d="M 538 4863
L 1656 4863
L 1656 2216
L 2944 3500
L 4244 3500
L 2534 1894
L 4378 0
L 3022 0
L 1656 1459
L 1656 0
L 538 0
L 538 4863
z
" transform="scale(0.015625)"/>
      <path id="DejaVuSans-Bold-70" d="M 1656 506
L 1656 -1331
L 538 -1331
L 538 3500
L 1656 3500
L 1656 2988
Q 1888 3294 2169 3439
Q 2450 3584 2816 3584
Q 3463 3584 3878 3070
Q 4294 2556 4294 1747
Q 4294 938 3878 423
Q 3463 -91 2816 -91
Q 2450 -91 2169 54
Q 1888 200 1656 506
z
M 2400 2772
Q 2041 2772 1848 2508
Q 1656 2244 1656 1747
Q 1656 1250 1848 986
Q 2041 722 2400 722
Q 2759 722 2948 984
Q 3138 1247 3138 1747
Q 3138 2247 2948 2509
Q 2759 2772 2400 2772
z
" transform="scale(0.015625)"/>
      <path id="DejaVuSans-Bold-29" d="M 513 -844
Q 913 -100 1113 609
Q 1313 1319 1313 2009
Q 1313 2700 1113 3408
Q 913 4116 513 4856
L 1441 4856
Q 1916 4091 2145 3389
Q 2375 2688 2375 2003
Q 2375 1319 2147 623
Q 1919 -72 1441 -844
L 513 -844
z
" transform="scale(0.015625)"/>
     </defs>
     <use xlink:href="#DejaVuSans-Bold-54"/>
     <use xlink:href="#DejaVuSans-Bold-72" transform="translate(57.212891 0)"/>
     <use xlink:href="#DejaVuSans-Bold-61" transform="translate(106.529297 0)"/>
     <use xlink:href="#DejaVuSans-Bold-63" transform="translate(174.009766 0)"/>
     <use xlink:href="#DejaVuSans-Bold-65" transform="translate(233.287109 0)"/>
     <use xlink:href="#DejaVuSans-Bold-46" transform="translate(301.109375 0)"/>
     <use xlink:href="#DejaVuSans-Bold-6f" transform="translate(365.419922 0)"/>
     <use xlink:href="#DejaVuSans-Bold-6c" transform="translate(434.121094 0)"/>
     <use xlink:href="#DejaVuSans-Bold-64" transform="translate(468.398438 0)"/>
     <use xlink:href="#DejaVuSans-Bold-20" transform="translate(539.980469 0)"/>
     <use xlink:href="#DejaVuSans-Bold-b7" transform="translate(574.794922 0)"/>
     <use xlink:href="#DejaVuSans-Bold-20" transform="translate(612.783203 0)"/>
     <use xlink:href="#DejaVuSans-Bold-6f" transform="translate(647.597656 0)"/>
     <use xlink:href="#DejaVuSans-Bold-75" transform="translate(716.298828 0)"/>
     <use xlink:href="#DejaVuSans-Bold-72" transform="translate(787.490234 0)"/>
     <use xlink:href="#DejaVuSans-Bold-73" transform="translate(836.806641 0)"/>
     <use xlink:href="#DejaVuSans-Bold-20" transform="translate(896.328125 0)"/>
     <use xlink:href="#DejaVuSans-Bold-28" transform="translate(931.142578 0)"/>
     <use xlink:href="#DejaVuSans-Bold-6c" transform="translate(976.845703 0)"/>
     <use xlink:href="#DejaVuSans-Bold-6f" transform="translate(1011.123047 0)"/>
     <use xlink:href="#DejaVuSans-Bold-67" transform="translate(1079.824219 0)"/>
     <use xlink:href="#DejaVuSans-Bold-68" transform="translate(1151.40625 0)"/>
     <use xlink:href="#DejaVuSans-Bold-75" transform="translate(1222.597656 0)"/>
     <use xlink:href="#DejaVuSans-Bold-62" transform="translate(1293.789062 0)"/>
     <use xlink:href="#DejaVuSans-Bold-2d" transform="translate(1365.371094 0)"/>
     <use xlink:href="#DejaVuSans-Bold-7a" transform="translate(1406.875 0)"/>
     <use xlink:href="#DejaVuSans-Bold-6f" transform="translate(1465.078125 0)"/>
     <use xlink:href="#DejaVuSans-Bold-6f" transform="translate(1533.779297 0)"/>
     <use xlink:href="#DejaVuSans-Bold-6b" transform="translate(1602.480469 0)"/>
     <use xlink:href="#DejaVuSans-Bold-65" transform="translate(1666.359375 0)"/>
     <use xlink:href="#DejaVuSans-Bold-65" transform="translate(1734.181641 0)"/>
     <use xlink:href="#DejaVuSans-Bold-70" transform="translate(1802.003906 0)"/>
     <use xlink:href="#DejaVuSans-Bold-65" transform="translate(1873.585938 0)"/>
     <use xlink:href="#DejaVuSans-Bold-72" transform="translate(1941.408203 0)"/>
     <use xlink:href="#DejaVuSans-Bold-29" transform="translate(1990.724609 0)"/>
    </g>
   </g>
   <g id="text_25">
    <!-- jsonl -->
    <g style="fill: #566159" transform="translate(543.662784 63.402704) scale(0.07 -0.07)">
     <use xlink:href="#DejaVuSans-6a"/>
     <use xlink:href="#DejaVuSans-73" transform="translate(27.783203 0)"/>
     <use xlink:href="#DejaVuSans-6f" transform="translate(79.882812 0)"/>
     <use xlink:href="#DejaVuSans-6e" transform="translate(141.064453 0)"/>
     <use xlink:href="#DejaVuSans-6c" transform="translate(204.443359 0)"/>
    </g>
   </g>
   <g id="text_26">
    <!-- gzip-6 -->
    <g style="fill: #566159" transform="translate(95.320556 53.741623) scale(0.07 -0.07)">
     <use xlink:href="#DejaVuSans-67"/>
     <use xlink:href="#DejaVuSans-7a" transform="translate(63.476562 0)"/>
     <use xlink:href="#DejaVuSans-69" transform="translate(115.966797 0)"/>
     <use xlink:href="#DejaVuSans-70" transform="translate(143.75 0)"/>
     <use xlink:href="#DejaVuSans-2d" transform="translate(207.226562 0)"/>
     <use xlink:href="#DejaVuSans-36" transform="translate(243.310547 0)"/>
    </g>
   </g>
   <g id="text_27">
    <!-- zstd-3 -->
    <g style="fill: #566159" transform="translate(96.47967 55.023925) scale(0.07 -0.07)">
     <use xlink:href="#DejaVuSans-7a"/>
     <use xlink:href="#DejaVuSans-73" transform="translate(52.490234 0)"/>
     <use xlink:href="#DejaVuSans-74" transform="translate(104.589844 0)"/>
     <use xlink:href="#DejaVuSans-64" transform="translate(143.798828 0)"/>
     <use xlink:href="#DejaVuSans-2d" transform="translate(207.275391 0)"/>
     <use xlink:href="#DejaVuSans-33" transform="translate(243.359375 0)"/>
    </g>
   </g>
   <g id="text_28">
    <!-- zstd-9 -->
    <g style="fill: #566159" transform="translate(90.12047 50.768555) scale(0.07 -0.07)">
     <use xlink:href="#DejaVuSans-7a"/>
     <use xlink:href="#DejaVuSans-73" transform="translate(52.490234 0)"/>
     <use xlink:href="#DejaVuSans-74" transform="translate(104.589844 0)"/>
     <use xlink:href="#DejaVuSans-64" transform="translate(143.798828 0)"/>
     <use xlink:href="#DejaVuSans-2d" transform="translate(207.275391 0)"/>
     <use xlink:href="#DejaVuSans-39" transform="translate(243.359375 0)"/>
    </g>
   </g>
   <g id="text_29">
    <!-- TraceFold · ours (loghub-bgl) -->
    <g style="fill: #8f2c18" transform="translate(78.009498 225.861959) scale(0.09 -0.09)">
     <use xlink:href="#DejaVuSans-Bold-54"/>
     <use xlink:href="#DejaVuSans-Bold-72" transform="translate(57.212891 0)"/>
     <use xlink:href="#DejaVuSans-Bold-61" transform="translate(106.529297 0)"/>
     <use xlink:href="#DejaVuSans-Bold-63" transform="translate(174.009766 0)"/>
     <use xlink:href="#DejaVuSans-Bold-65" transform="translate(233.287109 0)"/>
     <use xlink:href="#DejaVuSans-Bold-46" transform="translate(301.109375 0)"/>
     <use xlink:href="#DejaVuSans-Bold-6f" transform="translate(365.419922 0)"/>
     <use xlink:href="#DejaVuSans-Bold-6c" transform="translate(434.121094 0)"/>
     <use xlink:href="#DejaVuSans-Bold-64" transform="translate(468.398438 0)"/>
     <use xlink:href="#DejaVuSans-Bold-20" transform="translate(539.980469 0)"/>
     <use xlink:href="#DejaVuSans-Bold-b7" transform="translate(574.794922 0)"/>
     <use xlink:href="#DejaVuSans-Bold-20" transform="translate(612.783203 0)"/>
     <use xlink:href="#DejaVuSans-Bold-6f" transform="translate(647.597656 0)"/>
     <use xlink:href="#DejaVuSans-Bold-75" transform="translate(716.298828 0)"/>
     <use xlink:href="#DejaVuSans-Bold-72" transform="translate(787.490234 0)"/>
     <use xlink:href="#DejaVuSans-Bold-73" transform="translate(836.806641 0)"/>
     <use xlink:href="#DejaVuSans-Bold-20" transform="translate(896.328125 0)"/>
     <use xlink:href="#DejaVuSans-Bold-28" transform="translate(931.142578 0)"/>
     <use xlink:href="#DejaVuSans-Bold-6c" transform="translate(976.845703 0)"/>
     <use xlink:href="#DejaVuSans-Bold-6f" transform="translate(1011.123047 0)"/>
     <use xlink:href="#DejaVuSans-Bold-67" transform="translate(1079.824219 0)"/>
     <use xlink:href="#DejaVuSans-Bold-68" transform="translate(1151.40625 0)"/>
     <use xlink:href="#DejaVuSans-Bold-75" transform="translate(1222.597656 0)"/>
     <use xlink:href="#DejaVuSans-Bold-62" transform="translate(1293.789062 0)"/>
     <use xlink:href="#DejaVuSans-Bold-2d" transform="translate(1365.371094 0)"/>
     <use xlink:href="#DejaVuSans-Bold-62" transform="translate(1406.875 0)"/>
     <use xlink:href="#DejaVuSans-Bold-67" transform="translate(1478.457031 0)"/>
     <use xlink:href="#DejaVuSans-Bold-6c" transform="translate(1550.039062 0)"/>
     <use xlink:href="#DejaVuSans-Bold-29" transform="translate(1584.316406 0)"/>
    </g>
   </g>
   <g id="text_30">
    <!-- duckdb-raw -->
    <g style="fill: #566159" transform="translate(74.201793 228.805994) scale(0.07 -0.07)">
     <defs>
      <path id="DejaVuSans-6b" d="M 581 4863
L 1159 4863
L 1159 1991
L 2875 3500
L 3609 3500
L 1753 1863
L 3688 0
L 2938 0
L 1159 1709
L 1159 0
L 581 0
L 581 4863
z
" transform="scale(0.015625)"/>
     </defs>
     <use xlink:href="#DejaVuSans-64"/>
     <use xlink:href="#DejaVuSans-75" transform="translate(63.476562 0)"/>
     <use xlink:href="#DejaVuSans-63" transform="translate(126.855469 0)"/>
     <use xlink:href="#DejaVuSans-6b" transform="translate(181.835938 0)"/>
     <use xlink:href="#DejaVuSans-64" transform="translate(239.746094 0)"/>
     <use xlink:href="#DejaVuSans-62" transform="translate(303.222656 0)"/>
     <use xlink:href="#DejaVuSans-2d" transform="translate(366.699219 0)"/>
     <use xlink:href="#DejaVuSans-72" transform="translate(402.783203 0)"/>
     <use xlink:href="#DejaVuSans-61" transform="translate(443.896484 0)"/>
     <use xlink:href="#DejaVuSans-77" transform="translate(505.175781 0)"/>
    </g>
   </g>
   <g id="text_31">
    <!-- parquet-raw-zstd -->
    <g style="fill: #566159" transform="translate(73.056775 224.567711) scale(0.07 -0.07)">
     <use xlink:href="#DejaVuSans-70"/>
     <use xlink:href="#DejaVuSans-61" transform="translate(63.476562 0)"/>
     <use xlink:href="#DejaVuSans-72" transform="translate(124.755859 0)"/>
     <use xlink:href="#DejaVuSans-71" transform="translate(164.119141 0)"/>
     <use xlink:href="#DejaVuSans-75" transform="translate(227.595703 0)"/>
     <use xlink:href="#DejaVuSans-65" transform="translate(290.974609 0)"/>
     <use xlink:href="#DejaVuSans-74" transform="translate(352.498047 0)"/>
     <use xlink:href="#DejaVuSans-2d" transform="translate(391.707031 0)"/>
     <use xlink:href="#DejaVuSans-72" transform="translate(427.791016 0)"/>
     <use xlink:href="#DejaVuSans-61" transform="translate(468.904297 0)"/>
     <use xlink:href="#DejaVuSans-77" transform="translate(530.183594 0)"/>
     <use xlink:href="#DejaVuSans-2d" transform="translate(611.970703 0)"/>
     <use xlink:href="#DejaVuSans-7a" transform="translate(648.054688 0)"/>
     <use xlink:href="#DejaVuSans-73" transform="translate(700.544922 0)"/>
     <use xlink:href="#DejaVuSans-74" transform="translate(752.644531 0)"/>
     <use xlink:href="#DejaVuSans-64" transform="translate(791.853516 0)"/>
    </g>
   </g>
   <g id="text_32">
    <!-- views-parquet-zstd -->
    <g style="fill: #566159" transform="translate(72.955276 219.949366) scale(0.07 -0.07)">
     <use xlink:href="#DejaVuSans-76"/>
     <use xlink:href="#DejaVuSans-69" transform="translate(59.179688 0)"/>
     <use xlink:href="#DejaVuSans-65" transform="translate(86.962891 0)"/>
     <use xlink:href="#DejaVuSans-77" transform="translate(148.486328 0)"/>
     <use xlink:href="#DejaVuSans-73" transform="translate(230.273438 0)"/>
     <use xlink:href="#DejaVuSans-2d" transform="translate(282.373047 0)"/>
     <use xlink:href="#DejaVuSans-70" transform="translate(318.457031 0)"/>
     <use xlink:href="#DejaVuSans-61" transform="translate(381.933594 0)"/>
     <use xlink:href="#DejaVuSans-72" transform="translate(443.212891 0)"/>
     <use xlink:href="#DejaVuSans-71" transform="translate(482.576172 0)"/>
     <use xlink:href="#DejaVuSans-75" transform="translate(546.052734 0)"/>
     <use xlink:href="#DejaVuSans-65" transform="translate(609.431641 0)"/>
     <use xlink:href="#DejaVuSans-74" transform="translate(670.955078 0)"/>
     <use xlink:href="#DejaVuSans-2d" transform="translate(710.164062 0)"/>
     <use xlink:href="#DejaVuSans-7a" transform="translate(746.248047 0)"/>
     <use xlink:href="#DejaVuSans-73" transform="translate(798.738281 0)"/>
     <use xlink:href="#DejaVuSans-74" transform="translate(850.837891 0)"/>
     <use xlink:href="#DejaVuSans-64" transform="translate(890.046875 0)"/>
    </g>
   </g>
   <g id="text_33">
    <!-- duckdb-raw -->
    <g style="fill: #566159" transform="translate(153.451386 72.058577) scale(0.07 -0.07)">
     <use xlink:href="#DejaVuSans-64"/>
     <use xlink:href="#DejaVuSans-75" transform="translate(63.476562 0)"/>
     <use xlink:href="#DejaVuSans-63" transform="translate(126.855469 0)"/>
     <use xlink:href="#DejaVuSans-6b" transform="translate(181.835938 0)"/>
     <use xlink:href="#DejaVuSans-64" transform="translate(239.746094 0)"/>
     <use xlink:href="#DejaVuSans-62" transform="translate(303.222656 0)"/>
     <use xlink:href="#DejaVuSans-2d" transform="translate(366.699219 0)"/>
     <use xlink:href="#DejaVuSans-72" transform="translate(402.783203 0)"/>
     <use xlink:href="#DejaVuSans-61" transform="translate(443.896484 0)"/>
     <use xlink:href="#DejaVuSans-77" transform="translate(505.175781 0)"/>
    </g>
   </g>
   <g id="text_34">
    <!-- parquet-raw-zstd -->
    <g style="fill: #566159" transform="translate(91.921673 65.636483) scale(0.07 -0.07)">
     <use xlink:href="#DejaVuSans-70"/>
     <use xlink:href="#DejaVuSans-61" transform="translate(63.476562 0)"/>
     <use xlink:href="#DejaVuSans-72" transform="translate(124.755859 0)"/>
     <use xlink:href="#DejaVuSans-71" transform="translate(164.119141 0)"/>
     <use xlink:href="#DejaVuSans-75" transform="translate(227.595703 0)"/>
     <use xlink:href="#DejaVuSans-65" transform="translate(290.974609 0)"/>
     <use xlink:href="#DejaVuSans-74" transform="translate(352.498047 0)"/>
     <use xlink:href="#DejaVuSans-2d" transform="translate(391.707031 0)"/>
     <use xlink:href="#DejaVuSans-72" transform="translate(427.791016 0)"/>
     <use xlink:href="#DejaVuSans-61" transform="translate(468.904297 0)"/>
     <use xlink:href="#DejaVuSans-77" transform="translate(530.183594 0)"/>
     <use xlink:href="#DejaVuSans-2d" transform="translate(611.970703 0)"/>
     <use xlink:href="#DejaVuSans-7a" transform="translate(648.054688 0)"/>
     <use xlink:href="#DejaVuSans-73" transform="translate(700.544922 0)"/>
     <use xlink:href="#DejaVuSans-74" transform="translate(752.644531 0)"/>
     <use xlink:href="#DejaVuSans-64" transform="translate(791.853516 0)"/>
    </g>
   </g>
   <g id="text_35">
    <!-- views-parquet-zstd -->
    <g style="fill: #566159" transform="translate(74.415391 37.232926) scale(0.07 -0.07)">
     <use xlink:href="#DejaVuSans-76"/>
     <use xlink:href="#DejaVuSans-69" transform="translate(59.179688 0)"/>
     <use xlink:href="#DejaVuSans-65" transform="translate(86.962891 0)"/>
     <use xlink:href="#DejaVuSans-77" transform="translate(148.486328 0)"/>
     <use xlink:href="#DejaVuSans-73" transform="translate(230.273438 0)"/>
     <use xlink:href="#DejaVuSans-2d" transform="translate(282.373047 0)"/>
     <use xlink:href="#DejaVuSans-70" transform="translate(318.457031 0)"/>
     <use xlink:href="#DejaVuSans-61" transform="translate(381.933594 0)"/>
     <use xlink:href="#DejaVuSans-72" transform="translate(443.212891 0)"/>
     <use xlink:href="#DejaVuSans-71" transform="translate(482.576172 0)"/>
     <use xlink:href="#DejaVuSans-75" transform="translate(546.052734 0)"/>
     <use xlink:href="#DejaVuSans-65" transform="translate(609.431641 0)"/>
     <use xlink:href="#DejaVuSans-74" transform="translate(670.955078 0)"/>
     <use xlink:href="#DejaVuSans-2d" transform="translate(710.164062 0)"/>
     <use xlink:href="#DejaVuSans-7a" transform="translate(746.248047 0)"/>
     <use xlink:href="#DejaVuSans-73" transform="translate(798.738281 0)"/>
     <use xlink:href="#DejaVuSans-74" transform="translate(850.837891 0)"/>
     <use xlink:href="#DejaVuSans-64" transform="translate(890.046875 0)"/>
    </g>
   </g>
   <g id="text_36">
    <!-- jsonl -->
    <g style="fill: #566159" transform="translate(73.995149 303.528949) scale(0.07 -0.07)">
     <use xlink:href="#DejaVuSans-6a"/>
     <use xlink:href="#DejaVuSans-73" transform="translate(27.783203 0)"/>
     <use xlink:href="#DejaVuSans-6f" transform="translate(79.882812 0)"/>
     <use xlink:href="#DejaVuSans-6e" transform="translate(141.064453 0)"/>
     <use xlink:href="#DejaVuSans-6c" transform="translate(204.443359 0)"/>
    </g>
   </g>
   <g id="text_37">
    <!-- gzip-6 -->
    <g style="fill: #566159" transform="translate(73.01369 303.480689) scale(0.07 -0.07)">
     <use xlink:href="#DejaVuSans-67"/>
     <use xlink:href="#DejaVuSans-7a" transform="translate(63.476562 0)"/>
     <use xlink:href="#DejaVuSans-69" transform="translate(115.966797 0)"/>
     <use xlink:href="#DejaVuSans-70" transform="translate(143.75 0)"/>
     <use xlink:href="#DejaVuSans-2d" transform="translate(207.226562 0)"/>
     <use xlink:href="#DejaVuSans-36" transform="translate(243.310547 0)"/>
    </g>
   </g>
   <g id="text_38">
    <!-- zstd-3 -->
    <g style="fill: #566159" transform="translate(73.013065 303.416939) scale(0.07 -0.07)">
     <use xlink:href="#DejaVuSans-7a"/>
     <use xlink:href="#DejaVuSans-73" transform="translate(52.490234 0)"/>
     <use xlink:href="#DejaVuSans-74" transform="translate(104.589844 0)"/>
     <use xlink:href="#DejaVuSans-64" transform="translate(143.798828 0)"/>
     <use xlink:href="#DejaVuSans-2d" transform="translate(207.275391 0)"/>
     <use xlink:href="#DejaVuSans-33" transform="translate(243.359375 0)"/>
    </g>
   </g>
   <g id="text_39">
    <!-- zstd-9 -->
    <g style="fill: #566159" transform="translate(72.997442 303.524581) scale(0.07 -0.07)">
     <use xlink:href="#DejaVuSans-7a"/>
     <use xlink:href="#DejaVuSans-73" transform="translate(52.490234 0)"/>
     <use xlink:href="#DejaVuSans-74" transform="translate(104.589844 0)"/>
     <use xlink:href="#DejaVuSans-64" transform="translate(143.798828 0)"/>
     <use xlink:href="#DejaVuSans-2d" transform="translate(207.275391 0)"/>
     <use xlink:href="#DejaVuSans-39" transform="translate(243.359375 0)"/>
    </g>
   </g>
   <g id="text_40">
    <!-- TraceFold · ours (smoke-standard-10000) -->
    <g style="fill: #8f2c18" transform="translate(76.957027 266.133135) scale(0.09 -0.09)">
     <defs>
      <path id="DejaVuSans-Bold-6d" d="M 3781 2919
Q 3994 3244 4286 3414
Q 4578 3584 4928 3584
Q 5531 3584 5847 3212
Q 6163 2841 6163 2131
L 6163 0
L 5038 0
L 5038 1825
Q 5041 1866 5042 1909
Q 5044 1953 5044 2034
Q 5044 2406 4934 2573
Q 4825 2741 4581 2741
Q 4263 2741 4089 2478
Q 3916 2216 3909 1719
L 3909 0
L 2784 0
L 2784 1825
Q 2784 2406 2684 2573
Q 2584 2741 2328 2741
Q 2006 2741 1831 2477
Q 1656 2213 1656 1722
L 1656 0
L 531 0
L 531 3500
L 1656 3500
L 1656 2988
Q 1863 3284 2130 3434
Q 2397 3584 2719 3584
Q 3081 3584 3359 3409
Q 3638 3234 3781 2919
z
" transform="scale(0.015625)"/>
      <path id="DejaVuSans-Bold-74" d="M 1759 4494
L 1759 3500
L 2913 3500
L 2913 2700
L 1759 2700
L 1759 1216
Q 1759 972 1856 886
Q 1953 800 2241 800
L 2816 800
L 2816 0
L 1856 0
Q 1194 0 917 276
Q 641 553 641 1216
L 641 2700
L 84 2700
L 84 3500
L 641 3500
L 641 4494
L 1759 4494
z
" transform="scale(0.015625)"/>
      <path id="DejaVuSans-Bold-6e" d="M 4056 2131
L 4056 0
L 2931 0
L 2931 347
L 2931 1631
Q 2931 2084 2911 2256
Q 2891 2428 2841 2509
Q 2775 2619 2662 2680
Q 2550 2741 2406 2741
Q 2056 2741 1856 2470
Q 1656 2200 1656 1722
L 1656 0
L 538 0
L 538 3500
L 1656 3500
L 1656 2988
Q 1909 3294 2193 3439
Q 2478 3584 2822 3584
Q 3428 3584 3742 3212
Q 4056 2841 4056 2131
z
" transform="scale(0.015625)"/>
      <path id="DejaVuSans-Bold-31" d="M 750 831
L 1813 831
L 1813 3847
L 722 3622
L 722 4441
L 1806 4666
L 2950 4666
L 2950 831
L 4013 831
L 4013 0
L 750 0
L 750 831
z
" transform="scale(0.015625)"/>
      <path id="DejaVuSans-Bold-30" d="M 2944 2338
Q 2944 3213 2780 3570
Q 2616 3928 2228 3928
Q 1841 3928 1675 3570
Q 1509 3213 1509 2338
Q 1509 1453 1675 1090
Q 1841 728 2228 728
Q 2613 728 2778 1090
Q 2944 1453 2944 2338
z
M 4147 2328
Q 4147 1169 3647 539
Q 3147 -91 2228 -91
Q 1306 -91 806 539
Q 306 1169 306 2328
Q 306 3491 806 4120
Q 1306 4750 2228 4750
Q 3147 4750 3647 4120
Q 4147 3491 4147 2328
z
" transform="scale(0.015625)"/>
     </defs>
     <use xlink:href="#DejaVuSans-Bold-54"/>
     <use xlink:href="#DejaVuSans-Bold-72" transform="translate(57.212891 0)"/>
     <use xlink:href="#DejaVuSans-Bold-61" transform="translate(106.529297 0)"/>
     <use xlink:href="#DejaVuSans-Bold-63" transform="translate(174.009766 0)"/>
     <use xlink:href="#DejaVuSans-Bold-65" transform="translate(233.287109 0)"/>
     <use xlink:href="#DejaVuSans-Bold-46" transform="translate(301.109375 0)"/>
     <use xlink:href="#DejaVuSans-Bold-6f" transform="translate(365.419922 0)"/>
     <use xlink:href="#DejaVuSans-Bold-6c" transform="translate(434.121094 0)"/>
     <use xlink:href="#DejaVuSans-Bold-64" transform="translate(468.398438 0)"/>
     <use xlink:href="#DejaVuSans-Bold-20" transform="translate(539.980469 0)"/>
     <use xlink:href="#DejaVuSans-Bold-b7" transform="translate(574.794922 0)"/>
     <use xlink:href="#DejaVuSans-Bold-20" transform="translate(612.783203 0)"/>
     <use xlink:href="#DejaVuSans-Bold-6f" transform="translate(647.597656 0)"/>
     <use xlink:href="#DejaVuSans-Bold-75" transform="translate(716.298828 0)"/>
     <use xlink:href="#DejaVuSans-Bold-72" transform="translate(787.490234 0)"/>
     <use xlink:href="#DejaVuSans-Bold-73" transform="translate(836.806641 0)"/>
     <use xlink:href="#DejaVuSans-Bold-20" transform="translate(896.328125 0)"/>
     <use xlink:href="#DejaVuSans-Bold-28" transform="translate(931.142578 0)"/>
     <use xlink:href="#DejaVuSans-Bold-73" transform="translate(976.845703 0)"/>
     <use xlink:href="#DejaVuSans-Bold-6d" transform="translate(1036.367188 0)"/>
     <use xlink:href="#DejaVuSans-Bold-6f" transform="translate(1140.566406 0)"/>
     <use xlink:href="#DejaVuSans-Bold-6b" transform="translate(1209.267578 0)"/>
     <use xlink:href="#DejaVuSans-Bold-65" transform="translate(1273.146484 0)"/>
     <use xlink:href="#DejaVuSans-Bold-2d" transform="translate(1340.96875 0)"/>
     <use xlink:href="#DejaVuSans-Bold-73" transform="translate(1382.472656 0)"/>
     <use xlink:href="#DejaVuSans-Bold-74" transform="translate(1441.994141 0)"/>
     <use xlink:href="#DejaVuSans-Bold-61" transform="translate(1489.796875 0)"/>
     <use xlink:href="#DejaVuSans-Bold-6e" transform="translate(1557.277344 0)"/>
     <use xlink:href="#DejaVuSans-Bold-64" transform="translate(1628.46875 0)"/>
     <use xlink:href="#DejaVuSans-Bold-61" transform="translate(1700.050781 0)"/>
     <use xlink:href="#DejaVuSans-Bold-72" transform="translate(1767.53125 0)"/>
     <use xlink:href="#DejaVuSans-Bold-64" transform="translate(1816.847656 0)"/>
     <use xlink:href="#DejaVuSans-Bold-2d" transform="translate(1888.429688 0)"/>
     <use xlink:href="#DejaVuSans-Bold-31" transform="translate(1929.933594 0)"/>
     <use xlink:href="#DejaVuSans-Bold-30" transform="translate(1999.513672 0)"/>
     <use xlink:href="#DejaVuSans-Bold-30" transform="translate(2069.09375 0)"/>
     <use xlink:href="#DejaVuSans-Bold-30" transform="translate(2138.673828 0)"/>
     <use xlink:href="#DejaVuSans-Bold-30" transform="translate(2208.253906 0)"/>
     <use xlink:href="#DejaVuSans-Bold-29" transform="translate(2277.833984 0)"/>
    </g>
   </g>
   <g id="text_41">
    <!-- duckdb-raw -->
    <g style="fill: #566159" transform="translate(73.093407 269.056093) scale(0.07 -0.07)">
     <use xlink:href="#DejaVuSans-64"/>
     <use xlink:href="#DejaVuSans-75" transform="translate(63.476562 0)"/>
     <use xlink:href="#DejaVuSans-63" transform="translate(126.855469 0)"/>
     <use xlink:href="#DejaVuSans-6b" transform="translate(181.835938 0)"/>
     <use xlink:href="#DejaVuSans-64" transform="translate(239.746094 0)"/>
     <use xlink:href="#DejaVuSans-62" transform="translate(303.222656 0)"/>
     <use xlink:href="#DejaVuSans-2d" transform="translate(366.699219 0)"/>
     <use xlink:href="#DejaVuSans-72" transform="translate(402.783203 0)"/>
     <use xlink:href="#DejaVuSans-61" transform="translate(443.896484 0)"/>
     <use xlink:href="#DejaVuSans-77" transform="translate(505.175781 0)"/>
    </g>
   </g>
   <g id="text_42">
    <!-- parquet-raw-zstd -->
    <g style="fill: #566159" transform="translate(72.96466 267.321268) scale(0.07 -0.07)">
     <use xlink:href="#DejaVuSans-70"/>
     <use xlink:href="#DejaVuSans-61" transform="translate(63.476562 0)"/>
     <use xlink:href="#DejaVuSans-72" transform="translate(124.755859 0)"/>
     <use xlink:href="#DejaVuSans-71" transform="translate(164.119141 0)"/>
     <use xlink:href="#DejaVuSans-75" transform="translate(227.595703 0)"/>
     <use xlink:href="#DejaVuSans-65" transform="translate(290.974609 0)"/>
     <use xlink:href="#DejaVuSans-74" transform="translate(352.498047 0)"/>
     <use xlink:href="#DejaVuSans-2d" transform="translate(391.707031 0)"/>
     <use xlink:href="#DejaVuSans-72" transform="translate(427.791016 0)"/>
     <use xlink:href="#DejaVuSans-61" transform="translate(468.904297 0)"/>
     <use xlink:href="#DejaVuSans-77" transform="translate(530.183594 0)"/>
     <use xlink:href="#DejaVuSans-2d" transform="translate(611.970703 0)"/>
     <use xlink:href="#DejaVuSans-7a" transform="translate(648.054688 0)"/>
     <use xlink:href="#DejaVuSans-73" transform="translate(700.544922 0)"/>
     <use xlink:href="#DejaVuSans-74" transform="translate(752.644531 0)"/>
     <use xlink:href="#DejaVuSans-64" transform="translate(791.853516 0)"/>
    </g>
   </g>
   <g id="text_43">
    <!-- views-parquet-zstd -->
    <g style="fill: #566159" transform="translate(73.229301 263.17708) scale(0.07 -0.07)">
     <use xlink:href="#DejaVuSans-76"/>
     <use xlink:href="#DejaVuSans-69" transform="translate(59.179688 0)"/>
     <use xlink:href="#DejaVuSans-65" transform="translate(86.962891 0)"/>
     <use xlink:href="#DejaVuSans-77" transform="translate(148.486328 0)"/>
     <use xlink:href="#DejaVuSans-73" transform="translate(230.273438 0)"/>
     <use xlink:href="#DejaVuSans-2d" transform="translate(282.373047 0)"/>
     <use xlink:href="#DejaVuSans-70" transform="translate(318.457031 0)"/>
     <use xlink:href="#DejaVuSans-61" transform="translate(381.933594 0)"/>
     <use xlink:href="#DejaVuSans-72" transform="translate(443.212891 0)"/>
     <use xlink:href="#DejaVuSans-71" transform="translate(482.576172 0)"/>
     <use xlink:href="#DejaVuSans-75" transform="translate(546.052734 0)"/>
     <use xlink:href="#DejaVuSans-65" transform="translate(609.431641 0)"/>
     <use xlink:href="#DejaVuSans-74" transform="translate(670.955078 0)"/>
     <use xlink:href="#DejaVuSans-2d" transform="translate(710.164062 0)"/>
     <use xlink:href="#DejaVuSans-7a" transform="translate(746.248047 0)"/>
     <use xlink:href="#DejaVuSans-73" transform="translate(798.738281 0)"/>
     <use xlink:href="#DejaVuSans-74" transform="translate(850.837891 0)"/>
     <use xlink:href="#DejaVuSans-64" transform="translate(890.046875 0)"/>
    </g>
   </g>
   <g id="text_44">
    <!-- Storage–query latency frontier -->
    <g transform="translate(214.543125 19.918125) scale(0.12 -0.12)">
     <defs>
      <path id="DejaVuSans-53" d="M 3425 4513
L 3425 3897
Q 3066 4069 2747 4153
Q 2428 4238 2131 4238
Q 1616 4238 1336 4038
Q 1056 3838 1056 3469
Q 1056 3159 1242 3001
Q 1428 2844 1947 2747
L 2328 2669
Q 3034 2534 3370 2195
Q 3706 1856 3706 1288
Q 3706 609 3251 259
Q 2797 -91 1919 -91
Q 1588 -91 1214 -16
Q 841 59 441 206
L 441 856
Q 825 641 1194 531
Q 1563 422 1919 422
Q 2459 422 2753 634
Q 3047 847 3047 1241
Q 3047 1584 2836 1778
Q 2625 1972 2144 2069
L 1759 2144
Q 1053 2284 737 2584
Q 422 2884 422 3419
Q 422 4038 858 4394
Q 1294 4750 2059 4750
Q 2388 4750 2728 4690
Q 3069 4631 3425 4513
z
" transform="scale(0.015625)"/>
      <path id="DejaVuSans-2013" d="M 313 1978
L 2888 1978
L 2888 1528
L 313 1528
L 313 1978
z
" transform="scale(0.015625)"/>
      <path id="DejaVuSans-66" d="M 2375 4863
L 2375 4384
L 1825 4384
Q 1516 4384 1395 4259
Q 1275 4134 1275 3809
L 1275 3500
L 2222 3500
L 2222 3053
L 1275 3053
L 1275 0
L 697 0
L 697 3053
L 147 3053
L 147 3500
L 697 3500
L 697 3744
Q 697 4328 969 4595
Q 1241 4863 1831 4863
L 2375 4863
z
" transform="scale(0.015625)"/>
     </defs>
     <use xlink:href="#DejaVuSans-53"/>
     <use xlink:href="#DejaVuSans-74" transform="translate(63.476562 0)"/>
     <use xlink:href="#DejaVuSans-6f" transform="translate(102.685547 0)"/>
     <use xlink:href="#DejaVuSans-72" transform="translate(163.867188 0)"/>
     <use xlink:href="#DejaVuSans-61" transform="translate(204.980469 0)"/>
     <use xlink:href="#DejaVuSans-67" transform="translate(266.259766 0)"/>
     <use xlink:href="#DejaVuSans-65" transform="translate(329.736328 0)"/>
     <use xlink:href="#DejaVuSans-2013" transform="translate(391.259766 0)"/>
     <use xlink:href="#DejaVuSans-71" transform="translate(441.259766 0)"/>
     <use xlink:href="#DejaVuSans-75" transform="translate(504.736328 0)"/>
     <use xlink:href="#DejaVuSans-65" transform="translate(568.115234 0)"/>
     <use xlink:href="#DejaVuSans-72" transform="translate(629.638672 0)"/>
     <use xlink:href="#DejaVuSans-79" transform="translate(670.751953 0)"/>
     <use xlink:href="#DejaVuSans-20" transform="translate(729.931641 0)"/>
     <use xlink:href="#DejaVuSans-6c" transform="translate(761.71875 0)"/>
     <use xlink:href="#DejaVuSans-61" transform="translate(789.501953 0)"/>
     <use xlink:href="#DejaVuSans-74" transform="translate(850.78125 0)"/>
     <use xlink:href="#DejaVuSans-65" transform="translate(889.990234 0)"/>
     <use xlink:href="#DejaVuSans-6e" transform="translate(951.513672 0)"/>
     <use xlink:href="#DejaVuSans-63" transform="translate(1014.892578 0)"/>
     <use xlink:href="#DejaVuSans-79" transform="translate(1069.873047 0)"/>
     <use xlink:href="#DejaVuSans-20" transform="translate(1129.052734 0)"/>
     <use xlink:href="#DejaVuSans-66" transform="translate(1160.839844 0)"/>
     <use xlink:href="#DejaVuSans-72" transform="translate(1196.044922 0)"/>
     <use xlink:href="#DejaVuSans-6f" transform="translate(1234.908203 0)"/>
     <use xlink:href="#DejaVuSans-6e" transform="translate(1296.089844 0)"/>
     <use xlink:href="#DejaVuSans-74" transform="translate(1359.46875 0)"/>
     <use xlink:href="#DejaVuSans-69" transform="translate(1398.677734 0)"/>
     <use xlink:href="#DejaVuSans-65" transform="translate(1426.460938 0)"/>
     <use xlink:href="#DejaVuSans-72" transform="translate(1487.984375 0)"/>
    </g>
   </g>
   <g id="PathCollection_22">
    <defs>
     <path id="m929e25a1fc" d="M 0 -6.892024
L -1.547356 -2.129753
L -6.554705 -2.129753
L -2.503674 0.813493
L -4.05103 5.575765
L -0 2.632519
L 4.05103 5.575765
L 2.503674 0.813493
L 6.554705 -2.129753
L 1.547356 -2.129753
z
" style="stroke: #8f2c18; stroke-width: 1.2"/>
    </defs>
    <g clip-path="url(#p7c108ff515)">
     <use xlink:href="#m929e25a1fc" x="70.918466" y="288.2998" style="fill: #d64b2a; stroke: #8f2c18; stroke-width: 1.2"/>
    </g>
   </g>
   <g id="PathCollection_23">
    <g clip-path="url(#p7c108ff515)">
     <use xlink:href="#m929e25a1fc" x="72.009498" y="240.861959" style="fill: #d64b2a; stroke: #8f2c18; stroke-width: 1.2"/>
    </g>
   </g>
   <g id="PathCollection_24">
    <g clip-path="url(#p7c108ff515)">
     <use xlink:href="#m929e25a1fc" x="70.957027" y="289.133135" style="fill: #d64b2a; stroke: #8f2c18; stroke-width: 1.2"/>
    </g>
   </g>
   <g id="legend_1">
    <g id="line2d_31">
     <path d="M 418.053125 289.585938
L 428.053125 289.585938
L 438.053125 289.585938
" style="fill: none; stroke: #000000; stroke-opacity: 0; stroke-width: 1.5; stroke-linecap: square"/>
     <defs>
      <path id="m89da4205b9" d="M 0 -7
L -1.571598 -2.163119
L -6.657396 -2.163119
L -2.542899 0.826238
L -4.114497 5.663119
L -0 2.673762
L 4.114497 5.663119
L 2.542899 0.826238
L 6.657396 -2.163119
L 1.571598 -2.163119
z
" style="stroke: #8f2c18; stroke-linejoin: bevel"/>
     </defs>
     <g>
      <use xlink:href="#m89da4205b9" x="428.053125" y="289.585938" style="fill: #d64b2a; stroke: #8f2c18; stroke-linejoin: bevel"/>
     </g>
    </g>
    <g id="text_45">
     <!-- TraceFold · ours -->
     <g transform="translate(446.053125 293.085938) scale(0.1 -0.1)">
      <defs>
       <path id="DejaVuSans-54" d="M -19 4666
L 3928 4666
L 3928 4134
L 2272 4134
L 2272 0
L 1638 0
L 1638 4134
L -19 4134
L -19 4666
z
" transform="scale(0.015625)"/>
       <path id="DejaVuSans-46" d="M 628 4666
L 3309 4666
L 3309 4134
L 1259 4134
L 1259 2759
L 3109 2759
L 3109 2228
L 1259 2228
L 1259 0
L 628 0
L 628 4666
z
" transform="scale(0.015625)"/>
       <path id="DejaVuSans-b7" d="M 684 2619
L 1344 2619
L 1344 1825
L 684 1825
L 684 2619
z
" transform="scale(0.015625)"/>
      </defs>
      <use xlink:href="#DejaVuSans-54"/>
      <use xlink:href="#DejaVuSans-72" transform="translate(46.333984 0)"/>
      <use xlink:href="#DejaVuSans-61" transform="translate(87.447266 0)"/>
      <use xlink:href="#DejaVuSans-63" transform="translate(148.726562 0)"/>
      <use xlink:href="#DejaVuSans-65" transform="translate(203.707031 0)"/>
      <use xlink:href="#DejaVuSans-46" transform="translate(265.230469 0)"/>
      <use xlink:href="#DejaVuSans-6f" transform="translate(319.125 0)"/>
      <use xlink:href="#DejaVuSans-6c" transform="translate(380.306641 0)"/>
      <use xlink:href="#DejaVuSans-64" transform="translate(408.089844 0)"/>
      <use xlink:href="#DejaVuSans-20" transform="translate(471.566406 0)"/>
      <use xlink:href="#DejaVuSans-b7" transform="translate(503.353516 0)"/>
      <use xlink:href="#DejaVuSans-20" transform="translate(535.140625 0)"/>
      <use xlink:href="#DejaVuSans-6f" transform="translate(566.927734 0)"/>
      <use xlink:href="#DejaVuSans-75" transform="translate(628.109375 0)"/>
      <use xlink:href="#DejaVuSans-72" transform="translate(691.488281 0)"/>
      <use xlink:href="#DejaVuSans-73" transform="translate(732.601562 0)"/>
     </g>
    </g>
    <g id="line2d_32">
     <path d="M 418.053125 304.264062
L 428.053125 304.264062
L 438.053125 304.264062
" style="fill: none; stroke: #000000; stroke-opacity: 0; stroke-width: 1.5; stroke-linecap: square"/>
     <defs>
      <path id="m0523beaf16" d="M 0 3.5
C 0.928211 3.5 1.81853 3.131218 2.474874 2.474874
C 3.131218 1.81853 3.5 0.928211 3.5 0
C 3.5 -0.928211 3.131218 -1.81853 2.474874 -2.474874
C 1.81853 -3.131218 0.928211 -3.5 0 -3.5
C -0.928211 -3.5 -1.81853 -3.131218 -2.474874 -2.474874
C -3.131218 -1.81853 -3.5 -0.928211 -3.5 0
C -3.5 0.928211 -3.131218 1.81853 -2.474874 2.474874
C -1.81853 3.131218 -0.928211 3.5 0 3.5
z
" style="stroke: #000000"/>
     </defs>
     <g>
      <use xlink:href="#m0523beaf16" x="428.053125" y="304.264062" style="fill: #829087; stroke: #000000"/>
     </g>
    </g>
    <g id="text_46">
     <!-- Comparison baselines -->
     <g transform="translate(446.053125 307.764062) scale(0.1 -0.1)">
      <defs>
       <path id="DejaVuSans-43" d="M 4122 4306
L 4122 3641
Q 3803 3938 3442 4084
Q 3081 4231 2675 4231
Q 1875 4231 1450 3742
Q 1025 3253 1025 2328
Q 1025 1406 1450 917
Q 1875 428 2675 428
Q 3081 428 3442 575
Q 3803 722 4122 1019
L 4122 359
Q 3791 134 3420 21
Q 3050 -91 2638 -91
Q 1578 -91 968 557
Q 359 1206 359 2328
Q 359 3453 968 4101
Q 1578 4750 2638 4750
Q 3056 4750 3426 4639
Q 3797 4528 4122 4306
z
" transform="scale(0.015625)"/>
      </defs>
      <use xlink:href="#DejaVuSans-43"/>
      <use xlink:href="#DejaVuSans-6f" transform="translate(69.824219 0)"/>
      <use xlink:href="#DejaVuSans-6d" transform="translate(131.005859 0)"/>
      <use xlink:href="#DejaVuSans-70" transform="translate(228.417969 0)"/>
      <use xlink:href="#DejaVuSans-61" transform="translate(291.894531 0)"/>
      <use xlink:href="#DejaVuSans-72" transform="translate(353.173828 0)"/>
      <use xlink:href="#DejaVuSans-69" transform="translate(394.287109 0)"/>
      <use xlink:href="#DejaVuSans-73" transform="translate(422.070312 0)"/>
      <use xlink:href="#DejaVuSans-6f" transform="translate(474.169922 0)"/>
      <use xlink:href="#DejaVuSans-6e" transform="translate(535.351562 0)"/>
      <use xlink:href="#DejaVuSans-20" transform="translate(598.730469 0)"/>
      <use xlink:href="#DejaVuSans-62" transform="translate(630.517578 0)"/>
      <use xlink:href="#DejaVuSans-61" transform="translate(693.994141 0)"/>
      <use xlink:href="#DejaVuSans-73" transform="translate(755.273438 0)"/>
      <use xlink:href="#DejaVuSans-65" transform="translate(807.373047 0)"/>
      <use xlink:href="#DejaVuSans-6c" transform="translate(868.896484 0)"/>
      <use xlink:href="#DejaVuSans-69" transform="translate(896.679688 0)"/>
      <use xlink:href="#DejaVuSans-6e" transform="translate(924.462891 0)"/>
      <use xlink:href="#DejaVuSans-65" transform="translate(987.841797 0)"/>
      <use xlink:href="#DejaVuSans-73" transform="translate(1049.365234 0)"/>
     </g>
    </g>
   </g>
  </g>
 </g>
 <defs>
  <clipPath id="p7c108ff515">
   <rect x="47.38125" y="25.918125" width="517.81875" height="292.925625"/>
  </clipPath>
 </defs>
</svg>
