<?xml version="1.0" encoding="utf-8" standalone="no"?>
<!DOCTYPE svg PUBLIC "-//W3C//DTD SVG 1.1//EN"
  "http://www.w3.org/Graphics/SVG/1.1/DTD/svg11.dtd">
<svg xmlns:xlink="http://www.w3.org/1999/xlink" width="576pt" height="360pt" viewBox="0 0 576 360" xmlns="http://www.w3.org/2000/svg" version="1.1">
 <metadata>
  <rdf:RDF xmlns:dc="http://purl.org/dc/elements/1.1/" xmlns:cc="http://creativecommons.org/ns#" xmlns:rdf="http://www.w3.org/1999/02/22-rdf-syntax-ns#">
   <cc:Work>
    <dc:type rdf:resource="http://purl.org/dc/dcmitype/StillImage"/>
    <dc:format>image/svg+xml</dc:format>
    <dc:creator>
     <cc:Agent>
      <dc:title>Matplotlib v3.10.8, https://matplotlib.org/</dc:title>
     </cc:Agent>
    </dc:creator>
   </cc:Work>
  </rdf:RDF>
 </metadata>
 <defs>
  <style type="text/css">*{stroke-linejoin: round; stroke-linecap: butt}</style>
 </defs>
 <g id="figure_1">
  <g id="patch_1">
   <path d="M 0 360
L 576 360
L 576 0
L 0 0
z
" style="fill: #ffffff"/>
  </g>
  <g id="axes_1">
   <g id="patch_2">
    <path d="M 47.38125 318.84375
L 565.2 318.84375
L 565.2 25.918125
L 47.38125 25.918125
z
" style="fill: #ffffff"/>
   </g>
   <g id="matplotlib.axis_1">
    <g id="xtick_1">
     <g id="line2d_1">
      <path d="M 70.893657 318.84375
L 70.893657 25.918125
" clip-path="url(#p3de57a5adb)" style="fill: none; stroke: #b0b0b0; stroke-opacity: 0.2; stroke-width: 0.8; stroke-linecap: square"/>
     </g>
     <g id="line2d_2">
      <defs>
       <path id="m719b068498" d="M 0 0
L 0 3.5
" style="stroke: #000000; stroke-width: 0.8"/>
      </defs>
      <g>
       <use xlink:href="#m719b068498" x="70.893657" y="318.84375" style="stroke: #000000; stroke-width: 0.8"/>
      </g>
     </g>
     <g id="text_1">
      <!-- 0.00 -->
      <g transform="translate(59.760844 333.442187) scale(0.1 -0.1)">
       <defs>
        <path id="DejaVuSans-30" d="M 2034 4250
Q 1547 4250 1301 3770
Q 1056 3291 1056 2328
Q 1056 1369 1301 889
Q 1547 409 2034 409
Q 2525 409 2770 889
Q 3016 1369 3016 2328
Q 3016 3291 2770 3770
Q 2525 4250 2034 4250
z
M 2034 4750
Q 2819 4750 3233 4129
Q 3647 3509 3647 2328
Q 3647 1150 3233 529
Q 2819 -91 2034 -91
Q 1250 -91 836 529
Q 422 1150 422 2328
Q 422 3509 836 4129
Q 1250 4750 2034 4750
z
" transform="scale(0.015625)"/>
        <path id="DejaVuSans-2e" d="M 684 794
L 1344 794
L 1344 0
L 684 0
L 684 794
z
" transform="scale(0.015625)"/>
       </defs>
       <use xlink:href="#DejaVuSans-30"/>
       <use xlink:href="#DejaVuSans-2e" transform="translate(63.623047 0)"/>
       <use xlink:href="#DejaVuSans-30" transform="translate(95.410156 0)"/>
       <use xlink:href="#DejaVuSans-30" transform="translate(159.033203 0)"/>
      </g>
     </g>
    </g>
    <g id="xtick_2">
     <g id="line2d_3">
      <path d="M 129.619569 318.84375
L 129.619569 25.918125
" clip-path="url(#p3de57a5adb)" style="fill: none; stroke: #b0b0b0; stroke-opacity: 0.2; stroke-width: 0.8; stroke-linecap: square"/>
     </g>
     <g id="line2d_4">
      <g>
       <use xlink:href="#m719b068498" x="129.619569" y="318.84375" style="stroke: #000000; stroke-width: 0.8"/>
      </g>
     </g>
     <g id="text_2">
      <!-- 0.25 -->
      <g transform="translate(118.486757 333.442187) scale(0.1 -0.1)">
       <defs>
        <path id="DejaVuSans-32" d="M 1228 531
L 3431 531
L 3431 0
L 469 0
L 469 531
Q 828 903 1448 1529
Q 2069 2156 2228 2338
Q 2531 2678 2651 2914
Q 2772 3150 2772 3378
Q 2772 3750 2511 3984
Q 2250 4219 1831 4219
Q 1534 4219 1204 4116
Q 875 4013 500 3803
L 500 4441
Q 881 4594 1212 4672
Q 1544 4750 1819 4750
Q 2544 4750 2975 4387
Q 3406 4025 3406 3419
Q 3406 3131 3298 2873
Q 3191 2616 2906 2266
Q 2828 2175 2409 1742
Q 1991 1309 1228 531
z
" transform="scale(0.015625)"/>
        <path id="DejaVuSans-35" d="M 691 4666
L 3169 4666
L 3169 4134
L 1269 4134
L 1269 2991
Q 1406 3038 1543 3061
Q 1681 3084 1819 3084
Q 2600 3084 3056 2656
Q 3513 2228 3513 1497
Q 3513 744 3044 326
Q 2575 -91 1722 -91
Q 1428 -91 1123 -41
Q 819 9 494 109
L 494 744
Q 775 591 1075 516
Q 1375 441 1709 441
Q 2250 441 2565 725
Q 2881 1009 2881 1497
Q 2881 1984 2565 2268
Q 2250 2553 1709 2553
Q 1456 2553 1204 2497
Q 953 2441 691 2322
L 691 4666
z
" transform="scale(0.015625)"/>
       </defs>
       <use xlink:href="#DejaVuSans-30"/>
       <use xlink:href="#DejaVuSans-2e" transform="translate(63.623047 0)"/>
       <use xlink:href="#DejaVuSans-32" transform="translate(95.410156 0)"/>
       <use xlink:href="#DejaVuSans-35" transform="translate(159.033203 0)"/>
      </g>
     </g>
    </g>
    <g id="xtick_3">
     <g id="line2d_5">
      <path d="M 188.345482 318.84375
L 188.345482 25.918125
" clip-path="url(#p3de57a5adb)" style="fill: none; stroke: #b0b0b0; stroke-opacity: 0.2; stroke-width: 0.8; stroke-linecap: square"/>
     </g>
     <g id="line2d_6">
      <g>
       <use xlink:href="#m719b068498" x="188.345482" y="318.84375" style="stroke: #000000; stroke-width: 0.8"/>
      </g>
     </g>
     <g id="text_3">
      <!-- 0.50 -->
      <g transform="translate(177.212669 333.442187) scale(0.1 -0.1)">
       <use xlink:href="#DejaVuSans-30"/>
       <use xlink:href="#DejaVuSans-2e" transform="translate(63.623047 0)"/>
       <use xlink:href="#DejaVuSans-35" transform="translate(95.410156 0)"/>
       <use xlink:href="#DejaVuSans-30" transform="translate(159.033203 0)"/>
      </g>
     </g>
    </g>
    <g id="xtick_4">
     <g id="line2d_7">
      <path d="M 247.071394 318.84375
L 247.071394 25.918125
" clip-path="url(#p3de57a5adb)" style="fill: none; stroke: #b0b0b0; stroke-opacity: 0.2; stroke-width: 0.8; stroke-linecap: square"/>
     </g>
     <g id="line2d_8">
      <g>
       <use xlink:href="#m719b068498" x="247.071394" y="318.84375" style="stroke: #000000; stroke-width: 0.8"/>
      </g>
     </g>
     <g id="text_4">
      <!-- 0.75 -->
      <g transform="translate(235.938582 333.442187) scale(0.1 -0.1)">
       <defs>
        <path id="DejaVuSans-37" d="M 525 4666
L 3525 4666
L 3525 4397
L 1831 0
L 1172 0
L 2766 4134
L 525 4134
L 525 4666
z
" transform="scale(0.015625)"/>
       </defs>
       <use xlink:href="#DejaVuSans-30"/>
       <use xlink:href="#DejaVuSans-2e" transform="translate(63.623047 0)"/>
       <use xlink:href="#DejaVuSans-37" transform="translate(95.410156 0)"/>
       <use xlink:href="#DejaVuSans-35" transform="translate(159.033203 0)"/>
      </g>
     </g>
    </g>
    <g id="xtick_5">
     <g id="line2d_9">
      <path d="M 305.797307 318.84375
L 305.797307 25.918125
" clip-path="url(#p3de57a5adb)" style="fill: none; stroke: #b0b0b0; stroke-opacity: 0.2; stroke-width: 0.8; stroke-linecap: square"/>
     </g>
     <g id="line2d_10">
      <g>
       <use xlink:href="#m719b068498" x="305.797307" y="318.84375" style="stroke: #000000; stroke-width: 0.8"/>
      </g>
     </g>
     <g id="text_5">
      <!-- 1.00 -->
      <g transform="translate(294.664495 333.442187) scale(0.1 -0.1)">
       <defs>
        <path id="DejaVuSans-31" d="M 794 531
L 1825 531
L 1825 4091
L 703 3866
L 703 4441
L 1819 4666
L 2450 4666
L 2450 531
L 3481 531
L 3481 0
L 794 0
L 794 531
z
" transform="scale(0.015625)"/>
       </defs>
       <use xlink:href="#DejaVuSans-31"/>
       <use xlink:href="#DejaVuSans-2e" transform="translate(63.623047 0)"/>
       <use xlink:href="#DejaVuSans-30" transform="translate(95.410156 0)"/>
       <use xlink:href="#DejaVuSans-30" transform="translate(159.033203 0)"/>
      </g>
     </g>
    </g>
    <g id="xtick_6">
     <g id="line2d_11">
      <path d="M 364.52322 318.84375
L 364.52322 25.918125
" clip-path="url(#p3de57a5adb)" style="fill: none; stroke: #b0b0b0; stroke-opacity: 0.2; stroke-width: 0.8; stroke-linecap: square"/>
     </g>
     <g id="line2d_12">
      <g>
       <use xlink:href="#m719b068498" x="364.52322" y="318.84375" style="stroke: #000000; stroke-width: 0.8"/>
      </g>
     </g>
     <g id="text_6">
      <!-- 1.25 -->
      <g transform="translate(353.390407 333.442187) scale(0.1 -0.1)">
       <use xlink:href="#DejaVuSans-31"/>
       <use xlink:href="#DejaVuSans-2e" transform="translate(63.623047 0)"/>
       <use xlink:href="#DejaVuSans-32" transform="translate(95.410156 0)"/>
       <use xlink:href="#DejaVuSans-35" transform="translate(159.033203 0)"/>
      </g>
     </g>
    </g>
    <g id="xtick_7">
     <g id="line2d_13">
      <path d="M 423.249132 318.84375
L 423.249132 25.918125
" clip-path="url(#p3de57a5adb)" style="fill: none; stroke: #b0b0b0; stroke-opacity: 0.2; stroke-width: 0.8; stroke-linecap: square"/>
     </g>
     <g id="line2d_14">
      <g>
       <use xlink:href="#m719b068498" x="423.249132" y="318.84375" style="stroke: #000000; stroke-width: 0.8"/>
      </g>
     </g>
     <g id="text_7">
      <!-- 1.50 -->
      <g transform="translate(412.11632 333.442187) scale(0.1 -0.1)">
       <use xlink:href="#DejaVuSans-31"/>
       <use xlink:href="#DejaVuSans-2e" transform="translate(63.623047 0)"/>
       <use xlink:href="#DejaVuSans-35" transform="translate(95.410156 0)"/>
       <use xlink:href="#DejaVuSans-30" transform="translate(159.033203 0)"/>
      </g>
     </g>
    </g>
    <g id="xtick_8">
     <g id="line2d_15">
      <path d="M 481.975045 318.84375
L 481.975045 25.918125
" clip-path="url(#p3de57a5adb)" style="fill: none; stroke: #b0b0b0; stroke-opacity: 0.2; stroke-width: 0.8; stroke-linecap: square"/>
     </g>
     <g id="line2d_16">
      <g>
       <use xlink:href="#m719b068498" x="481.975045" y="318.84375" style="stroke: #000000; stroke-width: 0.8"/>
      </g>
     </g>
     <g id="text_8">
      <!-- 1.75 -->
      <g transform="translate(470.842233 333.442187) scale(0.1 -0.1)">
       <use xlink:href="#DejaVuSans-31"/>
       <use xlink:href="#DejaVuSans-2e" transform="translate(63.623047 0)"/>
       <use xlink:href="#DejaVuSans-37" transform="translate(95.410156 0)"/>
       <use xlink:href="#DejaVuSans-35" transform="translate(159.033203 0)"/>
      </g>
     </g>
    </g>
    <g id="xtick_9">
     <g id="line2d_17">
      <path d="M 540.700958 318.84375
L 540.700958 25.918125
" clip-path="url(#p3de57a5adb)" style="fill: none; stroke: #b0b0b0; stroke-opacity: 0.2; stroke-width: 0.8; stroke-linecap: square"/>
     </g>
     <g id="line2d_18">
      <g>
       <use xlink:href="#m719b068498" x="540.700958" y="318.84375" style="stroke: #000000; stroke-width: 0.8"/>
      </g>
     </g>
     <g id="text_9">
      <!-- 2.00 -->
      <g transform="translate(529.568145 333.442187) scale(0.1 -0.1)">
       <use xlink:href="#DejaVuSans-32"/>
       <use xlink:href="#DejaVuSans-2e" transform="translate(63.623047 0)"/>
       <use xlink:href="#DejaVuSans-30" transform="translate(95.410156 0)"/>
       <use xlink:href="#DejaVuSans-30" transform="translate(159.033203 0)"/>
      </g>
     </g>
    </g>
    <g id="text_10">
     <!-- archive bytes -->
     <g transform="translate(272.576562 347.120312) scale(0.1 -0.1)">
      <defs>
       <path id="DejaVuSans-61" d="M 2194 1759
Q 1497 1759 1228 1600
Q 959 1441 959 1056
Q 959 750 1161 570
Q 1363 391 1709 391
Q 2188 391 2477 730
Q 2766 1069 2766 1631
L 2766 1759
L 2194 1759
z
M 3341 1997
L 3341 0
L 2766 0
L 2766 531
Q 2569 213 2275 61
Q 1981 -91 1556 -91
Q 1019 -91 701 211
Q 384 513 384 1019
Q 384 1609 779 1909
Q 1175 2209 1959 2209
L 2766 2209
L 2766 2266
Q 2766 2663 2505 2880
Q 2244 3097 1772 3097
Q 1472 3097 1187 3025
Q 903 2953 641 2809
L 641 3341
Q 956 3463 1253 3523
Q 1550 3584 1831 3584
Q 2591 3584 2966 3190
Q 3341 2797 3341 1997
z
" transform="scale(0.015625)"/>
       <path id="DejaVuSans-72" d="M 2631 2963
Q 2534 3019 2420 3045
Q 2306 3072 2169 3072
Q 1681 3072 1420 2755
Q 1159 2438 1159 1844
L 1159 0
L 581 0
L 581 3500
L 1159 3500
L 1159 2956
Q 1341 3275 1631 3429
Q 1922 3584 2338 3584
Q 2397 3584 2469 3576
Q 2541 3569 2628 3553
L 2631 2963
z
" transform="scale(0.015625)"/>
       <path id="DejaVuSans-63" d="M 3122 3366
L 3122 2828
Q 2878 2963 2633 3030
Q 2388 3097 2138 3097
Q 1578 3097 1268 2742
Q 959 2388 959 1747
Q 959 1106 1268 751
Q 1578 397 2138 397
Q 2388 397 2633 464
Q 2878 531 3122 666
L 3122 134
Q 2881 22 2623 -34
Q 2366 -91 2075 -91
Q 1284 -91 818 406
Q 353 903 353 1747
Q 353 2603 823 3093
Q 1294 3584 2113 3584
Q 2378 3584 2631 3529
Q 2884 3475 3122 3366
z
" transform="scale(0.015625)"/>
       <path id="DejaVuSans-68" d="M 3513 2113
L 3513 0
L 2938 0
L 2938 2094
Q 2938 2591 2744 2837
Q 2550 3084 2163 3084
Q 1697 3084 1428 2787
Q 1159 2491 1159 1978
L 1159 0
L 581 0
L 581 4863
L 1159 4863
L 1159 2956
Q 1366 3272 1645 3428
Q 1925 3584 2291 3584
Q 2894 3584 3203 3211
Q 3513 2838 3513 2113
z
" transform="scale(0.015625)"/>
       <path id="DejaVuSans-69" d="M 603 3500
L 1178 3500
L 1178 0
L 603 0
L 603 3500
z
M 603 4863
L 1178 4863
L 1178 4134
L 603 4134
L 603 4863
z
" transform="scale(0.015625)"/>
       <path id="DejaVuSans-76" d="M 191 3500
L 800 3500
L 1894 563
L 2988 3500
L 3597 3500
L 2284 0
L 1503 0
L 191 3500
z
" transform="scale(0.015625)"/>
       <path id="DejaVuSans-65" d="M 3597 1894
L 3597 1613
L 953 1613
Q 991 1019 1311 708
Q 1631 397 2203 397
Q 2534 397 2845 478
Q 3156 559 3463 722
L 3463 178
Q 3153 47 2828 -22
Q 2503 -91 2169 -91
Q 1331 -91 842 396
Q 353 884 353 1716
Q 353 2575 817 3079
Q 1281 3584 2069 3584
Q 2775 3584 3186 3129
Q 3597 2675 3597 1894
z
M 3022 2063
Q 3016 2534 2758 2815
Q 2500 3097 2075 3097
Q 1594 3097 1305 2825
Q 1016 2553 972 2059
L 3022 2063
z
" transform="scale(0.015625)"/>
       <path id="DejaVuSans-20" transform="scale(0.015625)"/>
       <path id="DejaVuSans-62" d="M 3116 1747
Q 3116 2381 2855 2742
Q 2594 3103 2138 3103
Q 1681 3103 1420 2742
Q 1159 2381 1159 1747
Q 1159 1113 1420 752
Q 1681 391 2138 391
Q 2594 391 2855 752
Q 3116 1113 3116 1747
z
M 1159 2969
Q 1341 3281 1617 3432
Q 1894 3584 2278 3584
Q 2916 3584 3314 3078
Q 3713 2572 3713 1747
Q 3713 922 3314 415
Q 2916 -91 2278 -91
Q 1894 -91 1617 61
Q 1341 213 1159 525
L 1159 0
L 581 0
L 581 4863
L 1159 4863
L 1159 2969
z
" transform="scale(0.015625)"/>
       <path id="DejaVuSans-79" d="M 2059 -325
Q 1816 -950 1584 -1140
Q 1353 -1331 966 -1331
L 506 -1331
L 506 -850
L 844 -850
Q 1081 -850 1212 -737
Q 1344 -625 1503 -206
L 1606 56
L 191 3500
L 800 3500
L 1894 763
L 2988 3500
L 3597 3500
L 2059 -325
z
" transform="scale(0.015625)"/>
       <path id="DejaVuSans-74" d="M 1172 4494
L 1172 3500
L 2356 3500
L 2356 3053
L 1172 3053
L 1172 1153
Q 1172 725 1289 603
Q 1406 481 1766 481
L 2356 481
L 2356 0
L 1766 0
Q 1100 0 847 248
Q 594 497 594 1153
L 594 3053
L 172 3053
L 172 3500
L 594 3500
L 594 4494
L 1172 4494
z
" transform="scale(0.015625)"/>
       <path id="DejaVuSans-73" d="M 2834 3397
L 2834 2853
Q 2591 2978 2328 3040
Q 2066 3103 1784 3103
Q 1356 3103 1142 2972
Q 928 2841 928 2578
Q 928 2378 1081 2264
Q 1234 2150 1697 2047
L 1894 2003
Q 2506 1872 2764 1633
Q 3022 1394 3022 966
Q 3022 478 2636 193
Q 2250 -91 1575 -91
Q 1294 -91 989 -36
Q 684 19 347 128
L 347 722
Q 666 556 975 473
Q 1284 391 1588 391
Q 1994 391 2212 530
Q 2431 669 2431 922
Q 2431 1156 2273 1281
Q 2116 1406 1581 1522
L 1381 1569
Q 847 1681 609 1914
Q 372 2147 372 2553
Q 372 3047 722 3315
Q 1072 3584 1716 3584
Q 2034 3584 2315 3537
Q 2597 3491 2834 3397
z
" transform="scale(0.015625)"/>
      </defs>
      <use xlink:href="#DejaVuSans-61"/>
      <use xlink:href="#DejaVuSans-72" transform="translate(61.279297 0)"/>
      <use xlink:href="#DejaVuSans-63" transform="translate(100.142578 0)"/>
      <use xlink:href="#DejaVuSans-68" transform="translate(155.123047 0)"/>
      <use xlink:href="#DejaVuSans-69" transform="translate(218.501953 0)"/>
      <use xlink:href="#DejaVuSans-76" transform="translate(246.285156 0)"/>
      <use xlink:href="#DejaVuSans-65" transform="translate(305.464844 0)"/>
      <use xlink:href="#DejaVuSans-20" transform="translate(366.988281 0)"/>
      <use xlink:href="#DejaVuSans-62" transform="translate(398.775391 0)"/>
      <use xlink:href="#DejaVuSans-79" transform="translate(462.251953 0)"/>
      <use xlink:href="#DejaVuSans-74" transform="translate(521.431641 0)"/>
      <use xlink:href="#DejaVuSans-65" transform="translate(560.640625 0)"/>
      <use xlink:href="#DejaVuSans-73" transform="translate(622.164062 0)"/>
     </g>
    </g>
    <g id="text_11">
     <!-- 1e9 -->
     <g transform="translate(546.321875 346.120312) scale(0.1 -0.1)">
      <defs>
       <path id="DejaVuSans-39" d="M 703 97
L 703 672
Q 941 559 1184 500
Q 1428 441 1663 441
Q 2288 441 2617 861
Q 2947 1281 2994 2138
Q 2813 1869 2534 1725
Q 2256 1581 1919 1581
Q 1219 1581 811 2004
Q 403 2428 403 3163
Q 403 3881 828 4315
Q 1253 4750 1959 4750
Q 2769 4750 3195 4129
Q 3622 3509 3622 2328
Q 3622 1225 3098 567
Q 2575 -91 1691 -91
Q 1453 -91 1209 -44
Q 966 3 703 97
z
M 1959 2075
Q 2384 2075 2632 2365
Q 2881 2656 2881 3163
Q 2881 3666 2632 3958
Q 2384 4250 1959 4250
Q 1534 4250 1286 3958
Q 1038 3666 1038 3163
Q 1038 2656 1286 2365
Q 1534 2075 1959 2075
z
" transform="scale(0.015625)"/>
      </defs>
      <use xlink:href="#DejaVuSans-31"/>
      <use xlink:href="#DejaVuSans-65" transform="translate(63.623047 0)"/>
      <use xlink:href="#DejaVuSans-39" transform="translate(125.146484 0)"/>
     </g>
    </g>
   </g>
   <g id="matplotlib.axis_2">
    <g id="ytick_1">
     <g id="line2d_19">
      <path d="M 47.38125 310.849425
L 565.2 310.849425
" clip-path="url(#p3de57a5adb)" style="fill: none; stroke: #b0b0b0; stroke-opacity: 0.2; stroke-width: 0.8; stroke-linecap: square"/>
     </g>
     <g id="line2d_20">
      <defs>
       <path id="m701e31a131" d="M 0 0
L -3.5 0
" style="stroke: #000000; stroke-width: 0.8"/>
      </defs>
      <g>
       <use xlink:href="#m701e31a131" x="47.38125" y="310.849425" style="stroke: #000000; stroke-width: 0.8"/>
      </g>
     </g>
     <g id="text_12">
      <!-- 0.0 -->
      <g transform="translate(24.478125 314.648644) scale(0.1 -0.1)">
       <use xlink:href="#DejaVuSans-30"/>
       <use xlink:href="#DejaVuSans-2e" transform="translate(63.623047 0)"/>
       <use xlink:href="#DejaVuSans-30" transform="translate(95.410156 0)"/>
      </g>
     </g>
    </g>
    <g id="ytick_2">
     <g id="line2d_21">
      <path d="M 47.38125 257.306625
L 565.2 257.306625
" clip-path="url(#p3de57a5adb)" style="fill: none; stroke: #b0b0b0; stroke-opacity: 0.2; stroke-width: 0.8; stroke-linecap: square"/>
     </g>
     <g id="line2d_22">
      <g>
       <use xlink:href="#m701e31a131" x="47.38125" y="257.306625" style="stroke: #000000; stroke-width: 0.8"/>
      </g>
     </g>
     <g id="text_13">
      <!-- 0.2 -->
      <g transform="translate(24.478125 261.105844) scale(0.1 -0.1)">
       <use xlink:href="#DejaVuSans-30"/>
       <use xlink:href="#DejaVuSans-2e" transform="translate(63.623047 0)"/>
       <use xlink:href="#DejaVuSans-32" transform="translate(95.410156 0)"/>
      </g>
     </g>
    </g>
    <g id="ytick_3">
     <g id="line2d_23">
      <path d="M 47.38125 203.763825
L 565.2 203.763825
" clip-path="url(#p3de57a5adb)" style="fill: none; stroke: #b0b0b0; stroke-opacity: 0.2; stroke-width: 0.8; stroke-linecap: square"/>
     </g>
     <g id="line2d_24">
      <g>
       <use xlink:href="#m701e31a131" x="47.38125" y="203.763825" style="stroke: #000000; stroke-width: 0.8"/>
      </g>
     </g>
     <g id="text_14">
      <!-- 0.4 -->
      <g transform="translate(24.478125 207.563044) scale(0.1 -0.1)">
       <defs>
        <path id="DejaVuSans-34" d="M 2419 4116
L 825 1625
L 2419 1625
L 2419 4116
z
M 2253 4666
L 3047 4666
L 3047 1625
L 3713 1625
L 3713 1100
L 3047 1100
L 3047 0
L 2419 0
L 2419 1100
L 313 1100
L 313 1709
L 2253 4666
z
" transform="scale(0.015625)"/>
       </defs>
       <use xlink:href="#DejaVuSans-30"/>
       <use xlink:href="#DejaVuSans-2e" transform="translate(63.623047 0)"/>
       <use xlink:href="#DejaVuSans-34" transform="translate(95.410156 0)"/>
      </g>
     </g>
    </g>
    <g id="ytick_4">
     <g id="line2d_25">
      <path d="M 47.38125 150.221025
L 565.2 150.221025
" clip-path="url(#p3de57a5adb)" style="fill: none; stroke: #b0b0b0; stroke-opacity: 0.2; stroke-width: 0.8; stroke-linecap: square"/>
     </g>
     <g id="line2d_26">
      <g>
       <use xlink:href="#m701e31a131" x="47.38125" y="150.221025" style="stroke: #000000; stroke-width: 0.8"/>
      </g>
     </g>
     <g id="text_15">
      <!-- 0.6 -->
      <g transform="translate(24.478125 154.020244) scale(0.1 -0.1)">
       <defs>
        <path id="DejaVuSans-36" d="M 2113 2584
Q 1688 2584 1439 2293
Q 1191 2003 1191 1497
Q 1191 994 1439 701
Q 1688 409 2113 409
Q 2538 409 2786 701
Q 3034 994 3034 1497
Q 3034 2003 2786 2293
Q 2538 2584 2113 2584
z
M 3366 4563
L 3366 3988
Q 3128 4100 2886 4159
Q 2644 4219 2406 4219
Q 1781 4219 1451 3797
Q 1122 3375 1075 2522
Q 1259 2794 1537 2939
Q 1816 3084 2150 3084
Q 2853 3084 3261 2657
Q 3669 2231 3669 1497
Q 3669 778 3244 343
Q 2819 -91 2113 -91
Q 1303 -91 875 529
Q 447 1150 447 2328
Q 447 3434 972 4092
Q 1497 4750 2381 4750
Q 2619 4750 2861 4703
Q 3103 4656 3366 4563
z
" transform="scale(0.015625)"/>
       </defs>
       <use xlink:href="#DejaVuSans-30"/>
       <use xlink:href="#DejaVuSans-2e" transform="translate(63.623047 0)"/>
       <use xlink:href="#DejaVuSans-36" transform="translate(95.410156 0)"/>
      </g>
     </g>
    </g>
    <g id="ytick_5">
     <g id="line2d_27">
      <path d="M 47.38125 96.678226
L 565.2 96.678226
" clip-path="url(#p3de57a5adb)" style="fill: none; stroke: #b0b0b0; stroke-opacity: 0.2; stroke-width: 0.8; stroke-linecap: square"/>
     </g>
     <g id="line2d_28">
      <g>
       <use xlink:href="#m701e31a131" x="47.38125" y="96.678226" style="stroke: #000000; stroke-width: 0.8"/>
      </g>
     </g>
     <g id="text_16">
      <!-- 0.8 -->
      <g transform="translate(24.478125 100.477444) scale(0.1 -0.1)">
       <defs>
        <path id="DejaVuSans-38" d="M 2034 2216
Q 1584 2216 1326 1975
Q 1069 1734 1069 1313
Q 1069 891 1326 650
Q 1584 409 2034 409
Q 2484 409 2743 651
Q 3003 894 3003 1313
Q 3003 1734 2745 1975
Q 2488 2216 2034 2216
z
M 1403 2484
Q 997 2584 770 2862
Q 544 3141 544 3541
Q 544 4100 942 4425
Q 1341 4750 2034 4750
Q 2731 4750 3128 4425
Q 3525 4100 3525 3541
Q 3525 3141 3298 2862
Q 3072 2584 2669 2484
Q 3125 2378 3379 2068
Q 3634 1759 3634 1313
Q 3634 634 3220 271
Q 2806 -91 2034 -91
Q 1263 -91 848 271
Q 434 634 434 1313
Q 434 1759 690 2068
Q 947 2378 1403 2484
z
M 1172 3481
Q 1172 3119 1398 2916
Q 1625 2713 2034 2713
Q 2441 2713 2670 2916
Q 2900 3119 2900 3481
Q 2900 3844 2670 4047
Q 2441 4250 2034 4250
Q 1625 4250 1398 4047
Q 1172 3844 1172 3481
z
" transform="scale(0.015625)"/>
       </defs>
       <use xlink:href="#DejaVuSans-30"/>
       <use xlink:href="#DejaVuSans-2e" transform="translate(63.623047 0)"/>
       <use xlink:href="#DejaVuSans-38" transform="translate(95.410156 0)"/>
      </g>
     </g>
    </g>
    <g id="ytick_6">
     <g id="line2d_29">
      <path d="M 47.38125 43.135426
L 565.2 43.135426
" clip-path="url(#p3de57a5adb)" style="fill: none; stroke: #b0b0b0; stroke-opacity: 0.2; stroke-width: 0.8; stroke-linecap: square"/>
     </g>
     <g id="line2d_30">
      <g>
       <use xlink:href="#m701e31a131" x="47.38125" y="43.135426" style="stroke: #000000; stroke-width: 0.8"/>
      </g>
     </g>
     <g id="text_17">
      <!-- 1.0 -->
      <g transform="translate(24.478125 46.934644) scale(0.1 -0.1)">
       <use xlink:href="#DejaVuSans-31"/>
       <use xlink:href="#DejaVuSans-2e" transform="translate(63.623047 0)"/>
       <use xlink:href="#DejaVuSans-30" transform="translate(95.410156 0)"/>
      </g>
     </g>
    </g>
    <g id="text_18">
     <!-- query batch wall time (ns) -->
     <g transform="translate(18.398438 238.190313) rotate(-90) scale(0.1 -0.1)">
      <defs>
       <path id="DejaVuSans-71" d="M 947 1747
Q 947 1113 1208 752
Q 1469 391 1925 391
Q 2381 391 2643 752
Q 2906 1113 2906 1747
Q 2906 2381 2643 2742
Q 2381 3103 1925 3103
Q 1469 3103 1208 2742
Q 947 2381 947 1747
z
M 2906 525
Q 2725 213 2448 61
Q 2172 -91 1784 -91
Q 1150 -91 751 415
Q 353 922 353 1747
Q 353 2572 751 3078
Q 1150 3584 1784 3584
Q 2172 3584 2448 3432
Q 2725 3281 2906 2969
L 2906 3500
L 3481 3500
L 3481 -1331
L 2906 -1331
L 2906 525
z
" transform="scale(0.015625)"/>
       <path id="DejaVuSans-75" d="M 544 1381
L 544 3500
L 1119 3500
L 1119 1403
Q 1119 906 1312 657
Q 1506 409 1894 409
Q 2359 409 2629 706
Q 2900 1003 2900 1516
L 2900 3500
L 3475 3500
L 3475 0
L 2900 0
L 2900 538
Q 2691 219 2414 64
Q 2138 -91 1772 -91
Q 1169 -91 856 284
Q 544 659 544 1381
z
M 1991 3584
L 1991 3584
z
" transform="scale(0.015625)"/>
       <path id="DejaVuSans-77" d="M 269 3500
L 844 3500
L 1563 769
L 2278 3500
L 2956 3500
L 3675 769
L 4391 3500
L 4966 3500
L 4050 0
L 3372 0
L 2619 2869
L 1863 0
L 1184 0
L 269 3500
z
" transform="scale(0.015625)"/>
       <path id="DejaVuSans-6c" d="M 603 4863
L 1178 4863
L 1178 0
L 603 0
L 603 4863
z
" transform="scale(0.015625)"/>
       <path id="DejaVuSans-6d" d="M 3328 2828
Q 3544 3216 3844 3400
Q 4144 3584 4550 3584
Q 5097 3584 5394 3201
Q 5691 2819 5691 2113
L 5691 0
L 5113 0
L 5113 2094
Q 5113 2597 4934 2840
Q 4756 3084 4391 3084
Q 3944 3084 3684 2787
Q 3425 2491 3425 1978
L 3425 0
L 2847 0
L 2847 2094
Q 2847 2600 2669 2842
Q 2491 3084 2119 3084
Q 1678 3084 1418 2786
Q 1159 2488 1159 1978
L 1159 0
L 581 0
L 581 3500
L 1159 3500
L 1159 2956
Q 1356 3278 1631 3431
Q 1906 3584 2284 3584
Q 2666 3584 2933 3390
Q 3200 3197 3328 2828
z
" transform="scale(0.015625)"/>
       <path id="DejaVuSans-28" d="M 1984 4856
Q 1566 4138 1362 3434
Q 1159 2731 1159 2009
Q 1159 1288 1364 580
Q 1569 -128 1984 -844
L 1484 -844
Q 1016 -109 783 600
Q 550 1309 550 2009
Q 550 2706 781 3412
Q 1013 4119 1484 4856
L 1984 4856
z
" transform="scale(0.015625)"/>
       <path id="DejaVuSans-6e" d="M 3513 2113
L 3513 0
L 2938 0
L 2938 2094
Q 2938 2591 2744 2837
Q 2550 3084 2163 3084
Q 1697 3084 1428 2787
Q 1159 2491 1159 1978
L 1159 0
L 581 0
L 581 3500
L 1159 3500
L 1159 2956
Q 1366 3272 1645 3428
Q 1925 3584 2291 3584
Q 2894 3584 3203 3211
Q 3513 2838 3513 2113
z
" transform="scale(0.015625)"/>
       <path id="DejaVuSans-29" d="M 513 4856
L 1013 4856
Q 1481 4119 1714 3412
Q 1947 2706 1947 2009
Q 1947 1309 1714 600
Q 1481 -109 1013 -844
L 513 -844
Q 928 -128 1133 580
Q 1338 1288 1338 2009
Q 1338 2731 1133 3434
Q 928 4138 513 4856
z
" transform="scale(0.015625)"/>
      </defs>
      <use xlink:href="#DejaVuSans-71"/>
      <use xlink:href="#DejaVuSans-75" transform="translate(63.476562 0)"/>
      <use xlink:href="#DejaVuSans-65" transform="translate(126.855469 0)"/>
      <use xlink:href="#DejaVuSans-72" transform="translate(188.378906 0)"/>
      <use xlink:href="#DejaVuSans-79" transform="translate(229.492188 0)"/>
      <use xlink:href="#DejaVuSans-20" transform="translate(288.671875 0)"/>
      <use xlink:href="#DejaVuSans-62" transform="translate(320.458984 0)"/>
      <use xlink:href="#DejaVuSans-61" transform="translate(383.935547 0)"/>
      <use xlink:href="#DejaVuSans-74" transform="translate(445.214844 0)"/>
      <use xlink:href="#DejaVuSans-63" transform="translate(484.423828 0)"/>
      <use xlink:href="#DejaVuSans-68" transform="translate(539.404297 0)"/>
      <use xlink:href="#DejaVuSans-20" transform="translate(602.783203 0)"/>
      <use xlink:href="#DejaVuSans-77" transform="translate(634.570312 0)"/>
      <use xlink:href="#DejaVuSans-61" transform="translate(716.357422 0)"/>
      <use xlink:href="#DejaVuSans-6c" transform="translate(777.636719 0)"/>
      <use xlink:href="#DejaVuSans-6c" transform="translate(805.419922 0)"/>
      <use xlink:href="#DejaVuSans-20" transform="translate(833.203125 0)"/>
      <use xlink:href="#DejaVuSans-74" transform="translate(864.990234 0)"/>
      <use xlink:href="#DejaVuSans-69" transform="translate(904.199219 0)"/>
      <use xlink:href="#DejaVuSans-6d" transform="translate(931.982422 0)"/>
      <use xlink:href="#DejaVuSans-65" transform="translate(1029.394531 0)"/>
      <use xlink:href="#DejaVuSans-20" transform="translate(1090.917969 0)"/>
      <use xlink:href="#DejaVuSans-28" transform="translate(1122.705078 0)"/>
      <use xlink:href="#DejaVuSans-6e" transform="translate(1161.71875 0)"/>
      <use xlink:href="#DejaVuSans-73" transform="translate(1225.097656 0)"/>
      <use xlink:href="#DejaVuSans-29" transform="translate(1277.197266 0)"/>
     </g>
    </g>
    <g id="text_19">
     <!-- 1e10 -->
     <g transform="translate(47.38125 22.918125) scale(0.1 -0.1)">
      <use xlink:href="#DejaVuSans-31"/>
      <use xlink:href="#DejaVuSans-65" transform="translate(63.623047 0)"/>
      <use xlink:href="#DejaVuSans-31" transform="translate(125.146484 0)"/>
      <use xlink:href="#DejaVuSans-30" transform="translate(188.769531 0)"/>
     </g>
    </g>
   </g>
   <g id="PathCollection_1">
    <path d="M 541.662784 69.140865
C 542.552302 69.140865 543.405508 68.787456 544.034492 68.158472
C 544.663477 67.529487 545.016886 66.676282 545.016886 65.786763
C 545.016886 64.897245 544.663477 64.04404 544.034492 63.415055
C 543.405508 62.786071 542.552302 62.432661 541.662784 62.432661
C 540.773266 62.432661 539.92006 62.786071 539.291076 63.415055
C 538.662091 64.04404 538.308682 64.897245 538.308682 65.786763
C 538.308682 66.676282 538.662091 67.529487 539.291076 68.158472
C 539.92006 68.787456 540.773266 69.140865 541.662784 69.140865
z
" clip-path="url(#p3de57a5adb)" style="fill: #829087; fill-opacity: 0.58"/>
   </g>
   <g id="PathCollection_2">
    <path d="M 93.309 56.000278
C 94.198518 56.000278 95.051724 55.646869 95.680708 55.017884
C 96.309693 54.3889 96.663102 53.535694 96.663102 52.646176
C 96.663102 51.756658 96.309693 50.903452 95.680708 50.274468
C 95.051724 49.645483 94.198518 49.292074 93.309 49.292074
C 92.419482 49.292074 91.566276 49.645483 90.937292 50.274468
C 90.308307 50.903452 89.954898 51.756658 89.954898 52.646176
C 89.954898 53.535694 90.308307 54.3889 90.937292 55.017884
C 91.566276 55.646869 92.419482 56.000278 93.309 56.000278
z
" clip-path="url(#p3de57a5adb)" style="fill: #829087; fill-opacity: 0.58"/>
   </g>
   <g id="PathCollection_3">
    <path d="M 94.468144 56.387446
C 95.357662 56.387446 96.210868 56.034037 96.839852 55.405052
C 97.468837 54.776068 97.822246 53.922862 97.822246 53.033344
C 97.822246 52.143826 97.468837 51.29062 96.839852 50.661636
C 96.210868 50.032651 95.357662 49.679242 94.468144 49.679242
C 93.578626 49.679242 92.72542 50.032651 92.096436 50.661636
C 91.467452 51.29062 91.114042 52.143826 91.114042 53.033344
C 91.114042 53.922862 91.467452 54.776068 92.096436 55.405052
C 92.72542 56.034037 93.578626 56.387446 94.468144 56.387446
z
" clip-path="url(#p3de57a5adb)" style="fill: #829087; fill-opacity: 0.58"/>
   </g>
   <g id="PathCollection_4">
    <path d="M 88.108781 61.852707
C 88.998299 61.852707 89.851505 61.499297 90.480489 60.870313
C 91.109473 60.241329 91.462883 59.388123 91.462883 58.498605
C 91.462883 57.609087 91.109473 56.755881 90.480489 56.126897
C 89.851505 55.497912 88.998299 55.144503 88.108781 55.144503
C 87.219263 55.144503 86.366057 55.497912 85.737073 56.126897
C 85.108088 56.755881 84.754679 57.609087 84.754679 58.498605
C 84.754679 59.388123 85.108088 60.241329 85.737073 60.870313
C 86.366057 61.499297 87.219263 61.852707 88.108781 61.852707
z
" clip-path="url(#p3de57a5adb)" style="fill: #829087; fill-opacity: 0.58"/>
   </g>
   <g id="PathCollection_5">
    <path d="M 151.133436 82.557635
C 152.022954 82.557635 152.87616 82.204225 153.505144 81.575241
C 154.134129 80.946257 154.487538 80.093051 154.487538 79.203533
C 154.487538 78.314015 154.134129 77.460809 153.505144 76.831824
C 152.87616 76.20284 152.022954 75.849431 151.133436 75.849431
C 150.243918 75.849431 149.390712 76.20284 148.761728 76.831824
C 148.132744 77.460809 147.779334 78.314015 147.779334 79.203533
C 147.779334 80.093051 148.132744 80.946257 148.761728 81.575241
C 149.390712 82.204225 150.243918 82.557635 151.133436 82.557635
z
" clip-path="url(#p3de57a5adb)" style="fill: #829087; fill-opacity: 0.58"/>
   </g>
   <g id="PathCollection_6">
    <path d="M 89.903102 68.800064
C 90.79262 68.800064 91.645826 68.446654 92.27481 67.81767
C 92.903794 67.188685 93.257204 66.33548 93.257204 65.445962
C 93.257204 64.556443 92.903794 63.703238 92.27481 63.074253
C 91.645826 62.445269 90.79262 62.09186 89.903102 62.09186
C 89.013584 62.09186 88.160378 62.445269 87.531394 63.074253
C 86.902409 63.703238 86.549 64.556443 86.549 65.445962
C 86.549 66.33548 86.902409 67.188685 87.531394 67.81767
C 88.160378 68.446654 89.013584 68.800064 89.903102 68.800064
z
" clip-path="url(#p3de57a5adb)" style="fill: #829087; fill-opacity: 0.58"/>
   </g>
   <g id="PathCollection_7">
    <path d="M 72.402314 42.587028
C 73.291832 42.587028 74.145037 42.233619 74.774022 41.604634
C 75.403006 40.97565 75.756415 40.122444 75.756415 39.232926
C 75.756415 38.343408 75.403006 37.490202 74.774022 36.861218
C 74.145037 36.232234 73.291832 35.878824 72.402314 35.878824
C 71.512795 35.878824 70.65959 36.232234 70.030605 36.861218
C 69.401621 37.490202 69.048212 38.343408 69.048212 39.232926
C 69.048212 40.122444 69.401621 40.97565 70.030605 41.604634
C 70.65959 42.233619 71.512795 42.587028 72.402314 42.587028
z
" clip-path="url(#p3de57a5adb)" style="fill: #829087; fill-opacity: 0.58"/>
   </g>
   <g id="PathCollection_8">
    <path d="M 71.983044 308.673594
C 72.872562 308.673594 73.725768 308.320185 74.354752 307.691201
C 74.983737 307.062216 75.337146 306.209011 75.337146 305.319492
C 75.337146 304.429974 74.983737 303.576768 74.354752 302.947784
C 73.725768 302.3188 72.872562 301.96539 71.983044 301.96539
C 71.093526 301.96539 70.24032 302.3188 69.611336 302.947784
C 68.982351 303.576768 68.628942 304.429974 68.628942 305.319492
C 68.628942 306.209011 68.982351 307.062216 69.611336 307.691201
C 70.24032 308.320185 71.093526 308.673594 71.983044 308.673594
z
" clip-path="url(#p3de57a5adb)" style="fill: #829087; fill-opacity: 0.58"/>
   </g>
   <g id="PathCollection_9">
    <path d="M 71.00156 308.843088
C 71.891078 308.843088 72.744284 308.489679 73.373268 307.860694
C 74.002252 307.23171 74.355662 306.378504 74.355662 305.488986
C 74.355662 304.599468 74.002252 303.746262 73.373268 303.117278
C 72.744284 302.488294 71.891078 302.134884 71.00156 302.134884
C 70.112042 302.134884 69.258836 302.488294 68.629852 303.117278
C 68.000867 303.746262 67.647458 304.599468 67.647458 305.488986
C 67.647458 306.378504 68.000867 307.23171 68.629852 307.860694
C 69.258836 308.489679 70.112042 308.843088 71.00156 308.843088
z
" clip-path="url(#p3de57a5adb)" style="fill: #829087; fill-opacity: 0.58"/>
   </g>
   <g id="PathCollection_10">
    <path d="M 71.000934 308.883051
C 71.890453 308.883051 72.743658 308.529641 73.372643 307.900657
C 74.001627 307.271673 74.355036 306.418467 74.355036 305.528949
C 74.355036 304.639431 74.001627 303.786225 73.372643 303.157241
C 72.743658 302.528256 71.890453 302.174847 71.000934 302.174847
C 70.111416 302.174847 69.258211 302.528256 68.629226 303.157241
C 68.000242 303.786225 67.646833 304.639431 67.646833 305.528949
C 67.646833 306.418467 68.000242 307.271673 68.629226 307.900657
C 69.258211 308.529641 70.111416 308.883051 71.000934 308.883051
z
" clip-path="url(#p3de57a5adb)" style="fill: #829087; fill-opacity: 0.58"/>
   </g>
   <g id="PathCollection_11">
    <path d="M 70.985311 308.758823
C 71.874829 308.758823 72.728034 308.405414 73.357019 307.77643
C 73.986003 307.147445 74.339413 306.29424 74.339413 305.404721
C 74.339413 304.515203 73.986003 303.661997 73.357019 303.033013
C 72.728034 302.404029 71.874829 302.050619 70.985311 302.050619
C 70.095792 302.050619 69.242587 302.404029 68.613602 303.033013
C 67.984618 303.661997 67.631209 304.515203 67.631209 305.404721
C 67.631209 306.29424 67.984618 307.147445 68.613602 307.77643
C 69.242587 308.405414 70.095792 308.758823 70.985311 308.758823
z
" clip-path="url(#p3de57a5adb)" style="fill: #829087; fill-opacity: 0.58"/>
   </g>
   <g id="PathCollection_12">
    <path d="M 71.081279 274.67455
C 71.970797 274.67455 72.824003 274.32114 73.452987 273.692156
C 74.081971 273.063172 74.435381 272.209966 74.435381 271.320448
C 74.435381 270.430929 74.081971 269.577724 73.452987 268.948739
C 72.824003 268.319755 71.970797 267.966346 71.081279 267.966346
C 70.191761 267.966346 69.338555 268.319755 68.709571 268.948739
C 68.080586 269.577724 67.727177 270.430929 67.727177 271.320448
C 67.727177 272.209966 68.080586 273.063172 68.709571 273.692156
C 69.338555 274.32114 70.191761 274.67455 71.081279 274.67455
z
" clip-path="url(#p3de57a5adb)" style="fill: #829087; fill-opacity: 0.58"/>
   </g>
   <g id="PathCollection_13">
    <path d="M 70.952528 272.562708
C 71.842046 272.562708 72.695252 272.209298 73.324236 271.580314
C 73.953221 270.951329 74.30663 270.098124 74.30663 269.208606
C 74.30663 268.319087 73.953221 267.465882 73.324236 266.836897
C 72.695252 266.207913 71.842046 265.854504 70.952528 265.854504
C 70.06301 265.854504 69.209804 266.207913 68.58082 266.836897
C 67.951835 267.465882 67.598426 268.319087 67.598426 269.208606
C 67.598426 270.098124 67.951835 270.951329 68.58082 271.580314
C 69.209804 272.209298 70.06301 272.562708 70.952528 272.562708
z
" clip-path="url(#p3de57a5adb)" style="fill: #829087; fill-opacity: 0.58"/>
   </g>
   <g id="PathCollection_14">
    <path d="M 71.217191 267.944305
C 72.106709 267.944305 72.959914 267.590896 73.588899 266.961911
C 74.217883 266.332927 74.571292 265.479721 74.571292 264.590203
C 74.571292 263.700685 74.217883 262.847479 73.588899 262.218495
C 72.959914 261.58951 72.106709 261.236101 71.217191 261.236101
C 70.327672 261.236101 69.474467 261.58951 68.845482 262.218495
C 68.216498 262.847479 67.863089 263.700685 67.863089 264.590203
C 67.863089 265.479721 68.216498 266.332927 68.845482 266.961911
C 69.474467 267.590896 70.327672 267.944305 71.217191 267.944305
z
" clip-path="url(#p3de57a5adb)" style="fill: #829087; fill-opacity: 0.58"/>
   </g>
   <g id="PathCollection_15">
    <path d="M 77.884071 302.963448
C 78.773589 302.963448 79.626795 302.610039 80.255779 301.981055
C 80.884764 301.35207 81.238173 300.498865 81.238173 299.609346
C 81.238173 298.719828 80.884764 297.866623 80.255779 297.237638
C 79.626795 296.608654 78.773589 296.255244 77.884071 296.255244
C 76.994553 296.255244 76.141347 296.608654 75.512363 297.237638
C 74.883379 297.866623 74.529969 298.719828 74.529969 299.609346
C 74.529969 300.498865 74.883379 301.35207 75.512363 301.981055
C 76.141347 302.610039 76.994553 302.963448 77.884071 302.963448
z
" clip-path="url(#p3de57a5adb)" style="fill: #829087; fill-opacity: 0.58"/>
   </g>
   <g id="PathCollection_16">
    <path d="M 71.114398 303.036447
C 72.003916 303.036447 72.857122 302.683038 73.486106 302.054054
C 74.11509 301.425069 74.4685 300.571864 74.4685 299.682346
C 74.4685 298.792827 74.11509 297.939622 73.486106 297.310637
C 72.857122 296.681653 72.003916 296.328244 71.114398 296.328244
C 70.22488 296.328244 69.371674 296.681653 68.74269 297.310637
C 68.113705 297.939622 67.760296 298.792827 67.760296 299.682346
C 67.760296 300.571864 68.113705 301.425069 68.74269 302.054054
C 69.371674 302.683038 70.22488 303.036447 71.114398 303.036447
z
" clip-path="url(#p3de57a5adb)" style="fill: #829087; fill-opacity: 0.58"/>
   </g>
   <g id="PathCollection_17">
    <path d="M 71.123511 302.857817
C 72.01303 302.857817 72.866235 302.504408 73.49522 301.875423
C 74.124204 301.246439 74.477613 300.393233 74.477613 299.503715
C 74.477613 298.614197 74.124204 297.760991 73.49522 297.132007
C 72.866235 296.503022 72.01303 296.149613 71.123511 296.149613
C 70.233993 296.149613 69.380788 296.503022 68.751803 297.132007
C 68.122819 297.760991 67.769409 298.614197 67.769409 299.503715
C 67.769409 300.393233 68.122819 301.246439 68.751803 301.875423
C 69.380788 302.504408 70.233993 302.857817 71.123511 302.857817
z
" clip-path="url(#p3de57a5adb)" style="fill: #829087; fill-opacity: 0.58"/>
   </g>
   <g id="PathCollection_18">
    <path d="M 71.056564 303.056978
C 71.946082 303.056978 72.799288 302.703569 73.428272 302.074584
C 74.057257 301.4456 74.410666 300.592394 74.410666 299.702876
C 74.410666 298.813358 74.057257 297.960152 73.428272 297.331168
C 72.799288 296.702183 71.946082 296.348774 71.056564 296.348774
C 70.167046 296.348774 69.31384 296.702183 68.684856 297.331168
C 68.055871 297.960152 67.702462 298.813358 67.702462 299.702876
C 67.702462 300.592394 68.055871 301.4456 68.684856 302.074584
C 69.31384 302.703569 70.167046 303.056978 71.056564 303.056978
z
" clip-path="url(#p3de57a5adb)" style="fill: #829087; fill-opacity: 0.58"/>
   </g>
   <g id="PathCollection_19">
    <path d="M 72.251272 237.072688
C 73.14079 237.072688 73.993996 236.719279 74.62298 236.090295
C 75.251964 235.46131 75.605374 234.608105 75.605374 233.718586
C 75.605374 232.829068 75.251964 231.975863 74.62298 231.346878
C 73.993996 230.717894 73.14079 230.364484 72.251272 230.364484
C 71.361754 230.364484 70.508548 230.717894 69.879564 231.346878
C 69.250579 231.975863 68.89717 232.829068 68.89717 233.718586
C 68.89717 234.608105 69.250579 235.46131 69.879564 236.090295
C 70.508548 236.719279 71.361754 237.072688 72.251272 237.072688
z
" clip-path="url(#p3de57a5adb)" style="fill: #829087; fill-opacity: 0.58"/>
   </g>
   <g id="PathCollection_20">
    <path d="M 71.044646 234.385271
C 71.934164 234.385271 72.78737 234.031861 73.416354 233.402877
C 74.045338 232.773893 74.398748 231.920687 74.398748 231.031169
C 74.398748 230.141651 74.045338 229.288445 73.416354 228.659461
C 72.78737 228.030476 71.934164 227.677067 71.044646 227.677067
C 70.155128 227.677067 69.301922 228.030476 68.672938 228.659461
C 68.043953 229.288445 67.690544 230.141651 67.690544 231.031169
C 67.690544 231.920687 68.043953 232.773893 68.672938 233.402877
C 69.301922 234.031861 70.155128 234.385271 71.044646 234.385271
z
" clip-path="url(#p3de57a5adb)" style="fill: #829087; fill-opacity: 0.58"/>
   </g>
   <g id="PathCollection_21">
    <path d="M 70.943252 229.152335
C 71.83277 229.152335 72.685975 228.798925 73.31496 228.169941
C 73.943944 227.540956 74.297353 226.687751 74.297353 225.798233
C 74.297353 224.908714 73.943944 224.055509 73.31496 223.426524
C 72.685975 222.79754 71.83277 222.444131 70.943252 222.444131
C 70.053733 222.444131 69.200528 222.79754 68.571543 223.426524
C 67.942559 224.055509 67.58915 224.908714 67.58915 225.798233
C 67.58915 226.687751 67.942559 227.540956 68.571543 228.169941
C 69.200528 228.798925 70.053733 229.152335 70.943252 229.152335
z
" clip-path="url(#p3de57a5adb)" style="fill: #829087; fill-opacity: 0.58"/>
   </g>
   <g id="patch_3">
    <path d="M 47.38125 318.84375
L 47.38125 25.918125
" style="fill: none; stroke: #000000; stroke-width: 0.8; stroke-linejoin: miter; stroke-linecap: square"/>
   </g>
   <g id="patch_4">
    <path d="M 565.2 318.84375
L 565.2 25.918125
" style="fill: none; stroke: #000000; stroke-width: 0.8; stroke-linejoin: miter; stroke-linecap: square"/>
   </g>
   <g id="patch_5">
    <path d="M 47.38125 318.84375
L 565.2 318.84375
" style="fill: none; stroke: #000000; stroke-width: 0.8; stroke-linejoin: miter; stroke-linecap: square"/>
   </g>
   <g id="patch_6">
    <path d="M 47.38125 25.918125
L 565.2 25.918125
" style="fill: none; stroke: #000000; stroke-width: 0.8; stroke-linejoin: miter; stroke-linecap: square"/>
   </g>
   <g id="text_20">
    <!-- jsonl -->
    <g style="fill: #566159" transform="translate(543.662784 63.786763) scale(0.07 -0.07)">
     <defs>
      <path id="DejaVuSans-6a" d="M 603 3500
L 1178 3500
L 1178 -63
Q 1178 -731 923 -1031
Q 669 -1331 103 -1331
L -116 -1331
L -116 -844
L 38 -844
Q 366 -844 484 -692
Q 603 -541 603 -63
L 603 3500
z
M 603 4863
L 1178 4863
L 1178 4134
L 603 4134
L 603 4863
z
" transform="scale(0.015625)"/>
      <path id="DejaVuSans-6f" d="M 1959 3097
Q 1497 3097 1228 2736
Q 959 2375 959 1747
Q 959 1119 1226 758
Q 1494 397 1959 397
Q 2419 397 2687 759
Q 2956 1122 2956 1747
Q 2956 2369 2687 2733
Q 2419 3097 1959 3097
z
M 1959 3584
Q 2709 3584 3137 3096
Q 3566 2609 3566 1747
Q 3566 888 3137 398
Q 2709 -91 1959 -91
Q 1206 -91 779 398
Q 353 888 353 1747
Q 353 2609 779 3096
Q 1206 3584 1959 3584
z
" transform="scale(0.015625)"/>
     </defs>
     <use xlink:href="#DejaVuSans-6a"/>
     <use xlink:href="#DejaVuSans-73" transform="translate(27.783203 0)"/>
     <use xlink:href="#DejaVuSans-6f" transform="translate(79.882812 0)"/>
     <use xlink:href="#DejaVuSans-6e" transform="translate(141.064453 0)"/>
     <use xlink:href="#DejaVuSans-6c" transform="translate(204.443359 0)"/>
    </g>
   </g>
   <g id="text_21">
    <!-- gzip-6 -->
    <g style="fill: #566159" transform="translate(95.309 50.646176) scale(0.07 -0.07)">
     <defs>
      <path id="DejaVuSans-67" d="M 2906 1791
Q 2906 2416 2648 2759
Q 2391 3103 1925 3103
Q 1463 3103 1205 2759
Q 947 2416 947 1791
Q 947 1169 1205 825
Q 1463 481 1925 481
Q 2391 481 2648 825
Q 2906 1169 2906 1791
z
M 3481 434
Q 3481 -459 3084 -895
Q 2688 -1331 1869 -1331
Q 1566 -1331 1297 -1286
Q 1028 -1241 775 -1147
L 775 -588
Q 1028 -725 1275 -790
Q 1522 -856 1778 -856
Q 2344 -856 2625 -561
Q 2906 -266 2906 331
L 2906 616
Q 2728 306 2450 153
Q 2172 0 1784 0
Q 1141 0 747 490
Q 353 981 353 1791
Q 353 2603 747 3093
Q 1141 3584 1784 3584
Q 2172 3584 2450 3431
Q 2728 3278 2906 2969
L 2906 3500
L 3481 3500
L 3481 434
z
" transform="scale(0.015625)"/>
      <path id="DejaVuSans-7a" d="M 353 3500
L 3084 3500
L 3084 2975
L 922 459
L 3084 459
L 3084 0
L 275 0
L 275 525
L 2438 3041
L 353 3041
L 353 3500
z
" transform="scale(0.015625)"/>
      <path id="DejaVuSans-70" d="M 1159 525
L 1159 -1331
L 581 -1331
L 581 3500
L 1159 3500
L 1159 2969
Q 1341 3281 1617 3432
Q 1894 3584 2278 3584
Q 2916 3584 3314 3078
Q 3713 2572 3713 1747
Q 3713 922 3314 415
Q 2916 -91 2278 -91
Q 1894 -91 1617 61
Q 1341 213 1159 525
z
M 3116 1747
Q 3116 2381 2855 2742
Q 2594 3103 2138 3103
Q 1681 3103 1420 2742
Q 1159 2381 1159 1747
Q 1159 1113 1420 752
Q 1681 391 2138 391
Q 2594 391 2855 752
Q 3116 1113 3116 1747
z
" transform="scale(0.015625)"/>
      <path id="DejaVuSans-2d" d="M 313 2009
L 1997 2009
L 1997 1497
L 313 1497
L 313 2009
z
" transform="scale(0.015625)"/>
     </defs>
     <use xlink:href="#DejaVuSans-67"/>
     <use xlink:href="#DejaVuSans-7a" transform="translate(63.476562 0)"/>
     <use xlink:href="#DejaVuSans-69" transform="translate(115.966797 0)"/>
     <use xlink:href="#DejaVuSans-70" transform="translate(143.75 0)"/>
     <use xlink:href="#DejaVuSans-2d" transform="translate(207.226562 0)"/>
     <use xlink:href="#DejaVuSans-36" transform="translate(243.310547 0)"/>
    </g>
   </g>
   <g id="text_22">
    <!-- zstd-3 -->
    <g style="fill: #566159" transform="translate(96.468144 51.033344) scale(0.07 -0.07)">
     <defs>
      <path id="DejaVuSans-64" d="M 2906 2969
L 2906 4863
L 3481 4863
L 3481 0
L 2906 0
L 2906 525
Q 2725 213 2448 61
Q 2172 -91 1784 -91
Q 1150 -91 751 415
Q 353 922 353 1747
Q 353 2572 751 3078
Q 1150 3584 1784 3584
Q 2172 3584 2448 3432
Q 2725 3281 2906 2969
z
M 947 1747
Q 947 1113 1208 752
Q 1469 391 1925 391
Q 2381 391 2643 752
Q 2906 1113 2906 1747
Q 2906 2381 2643 2742
Q 2381 3103 1925 3103
Q 1469 3103 1208 2742
Q 947 2381 947 1747
z
" transform="scale(0.015625)"/>
      <path id="DejaVuSans-33" d="M 2597 2516
Q 3050 2419 3304 2112
Q 3559 1806 3559 1356
Q 3559 666 3084 287
Q 2609 -91 1734 -91
Q 1441 -91 1130 -33
Q 819 25 488 141
L 488 750
Q 750 597 1062 519
Q 1375 441 1716 441
Q 2309 441 2620 675
Q 2931 909 2931 1356
Q 2931 1769 2642 2001
Q 2353 2234 1838 2234
L 1294 2234
L 1294 2753
L 1863 2753
Q 2328 2753 2575 2939
Q 2822 3125 2822 3475
Q 2822 3834 2567 4026
Q 2313 4219 1838 4219
Q 1578 4219 1281 4162
Q 984 4106 628 3988
L 628 4550
Q 988 4650 1302 4700
Q 1616 4750 1894 4750
Q 2613 4750 3031 4423
Q 3450 4097 3450 3541
Q 3450 3153 3228 2886
Q 3006 2619 2597 2516
z
" transform="scale(0.015625)"/>
     </defs>
     <use xlink:href="#DejaVuSans-7a"/>
     <use xlink:href="#DejaVuSans-73" transform="translate(52.490234 0)"/>
     <use xlink:href="#DejaVuSans-74" transform="translate(104.589844 0)"/>
     <use xlink:href="#DejaVuSans-64" transform="translate(143.798828 0)"/>
     <use xlink:href="#DejaVuSans-2d" transform="translate(207.275391 0)"/>
     <use xlink:href="#DejaVuSans-33" transform="translate(243.359375 0)"/>
    </g>
   </g>
   <g id="text_23">
    <!-- zstd-9 -->
    <g style="fill: #566159" transform="translate(90.108781 56.498605) scale(0.07 -0.07)">
     <use xlink:href="#DejaVuSans-7a"/>
     <use xlink:href="#DejaVuSans-73" transform="translate(52.490234 0)"/>
     <use xlink:href="#DejaVuSans-74" transform="translate(104.589844 0)"/>
     <use xlink:href="#DejaVuSans-64" transform="translate(143.798828 0)"/>
     <use xlink:href="#DejaVuSans-2d" transform="translate(207.275391 0)"/>
     <use xlink:href="#DejaVuSans-39" transform="translate(243.359375 0)"/>
    </g>
   </g>
   <g id="text_24">
    <!-- TraceFold · ours (loghub-bgl) -->
    <g style="fill: #8f2c18" transform="translate(78.485495 252.809446) scale(0.09 -0.09)">
     <defs>
      <path id="DejaVuSans-Bold-54" d="M 31 4666
L 4331 4666
L 4331 3756
L 2784 3756
L 2784 0
L 1581 0
L 1581 3756
L 31 3756
L 31 4666
z
" transform="scale(0.015625)"/>
      <path id="DejaVuSans-Bold-72" d="M 3138 2547
Q 2991 2616 2845 2648
Q 2700 2681 2553 2681
Q 2122 2681 1889 2404
Q 1656 2128 1656 1613
L 1656 0
L 538 0
L 538 3500
L 1656 3500
L 1656 2925
Q 1872 3269 2151 3426
Q 2431 3584 2822 3584
Q 2878 3584 2943 3579
Q 3009 3575 3134 3559
L 3138 2547
z
" transform="scale(0.015625)"/>
      <path id="DejaVuSans-Bold-61" d="M 2106 1575
Q 1756 1575 1579 1456
Q 1403 1338 1403 1106
Q 1403 894 1545 773
Q 1688 653 1941 653
Q 2256 653 2472 879
Q 2688 1106 2688 1447
L 2688 1575
L 2106 1575
z
M 3816 1997
L 3816 0
L 2688 0
L 2688 519
Q 2463 200 2181 54
Q 1900 -91 1497 -91
Q 953 -91 614 226
Q 275 544 275 1050
Q 275 1666 698 1953
Q 1122 2241 2028 2241
L 2688 2241
L 2688 2328
Q 2688 2594 2478 2717
Q 2269 2841 1825 2841
Q 1466 2841 1156 2769
Q 847 2697 581 2553
L 581 3406
Q 941 3494 1303 3539
Q 1666 3584 2028 3584
Q 2975 3584 3395 3211
Q 3816 2838 3816 1997
z
" transform="scale(0.015625)"/>
      <path id="DejaVuSans-Bold-63" d="M 3366 3391
L 3366 2478
Q 3138 2634 2908 2709
Q 2678 2784 2431 2784
Q 1963 2784 1702 2511
Q 1441 2238 1441 1747
Q 1441 1256 1702 982
Q 1963 709 2431 709
Q 2694 709 2930 787
Q 3166 866 3366 1019
L 3366 103
Q 3103 6 2833 -42
Q 2563 -91 2291 -91
Q 1344 -91 809 395
Q 275 881 275 1747
Q 275 2613 809 3098
Q 1344 3584 2291 3584
Q 2566 3584 2833 3536
Q 3100 3488 3366 3391
z
" transform="scale(0.015625)"/>
      <path id="DejaVuSans-Bold-65" d="M 4031 1759
L 4031 1441
L 1416 1441
Q 1456 1047 1700 850
Q 1944 653 2381 653
Q 2734 653 3104 758
Q 3475 863 3866 1075
L 3866 213
Q 3469 63 3072 -14
Q 2675 -91 2278 -91
Q 1328 -91 801 392
Q 275 875 275 1747
Q 275 2603 792 3093
Q 1309 3584 2216 3584
Q 3041 3584 3536 3087
Q 4031 2591 4031 1759
z
M 2881 2131
Q 2881 2450 2695 2645
Q 2509 2841 2209 2841
Q 1884 2841 1681 2658
Q 1478 2475 1428 2131
L 2881 2131
z
" transform="scale(0.015625)"/>
      <path id="DejaVuSans-Bold-46" d="M 588 4666
L 3834 4666
L 3834 3756
L 1791 3756
L 1791 2888
L 3713 2888
L 3713 1978
L 1791 1978
L 1791 0
L 588 0
L 588 4666
z
" transform="scale(0.015625)"/>
      <path id="DejaVuSans-Bold-6f" d="M 2203 2784
Q 1831 2784 1636 2517
Q 1441 2250 1441 1747
Q 1441 1244 1636 976
Q 1831 709 2203 709
Q 2569 709 2762 976
Q 2956 1244 2956 1747
Q 2956 2250 2762 2517
Q 2569 2784 2203 2784
z
M 2203 3584
Q 3106 3584 3614 3096
Q 4122 2609 4122 1747
Q 4122 884 3614 396
Q 3106 -91 2203 -91
Q 1297 -91 786 396
Q 275 884 275 1747
Q 275 2609 786 3096
Q 1297 3584 2203 3584
z
" transform="scale(0.015625)"/>
      <path id="DejaVuSans-Bold-6c" d="M 538 4863
L 1656 4863
L 1656 0
L 538 0
L 538 4863
z
" transform="scale(0.015625)"/>
      <path id="DejaVuSans-Bold-64" d="M 2919 2988
L 2919 4863
L 4044 4863
L 4044 0
L 2919 0
L 2919 506
Q 2688 197 2409 53
Q 2131 -91 1766 -91
Q 1119 -91 703 423
Q 288 938 288 1747
Q 288 2556 703 3070
Q 1119 3584 1766 3584
Q 2128 3584 2408 3439
Q 2688 3294 2919 2988
z
M 2181 722
Q 2541 722 2730 984
Q 2919 1247 2919 1747
Q 2919 2247 2730 2509
Q 2541 2772 2181 2772
Q 1825 2772 1636 2509
Q 1447 2247 1447 1747
Q 1447 1247 1636 984
Q 1825 722 2181 722
z
" transform="scale(0.015625)"/>
      <path id="DejaVuSans-Bold-20" transform="scale(0.015625)"/>
      <path id="DejaVuSans-Bold-b7" d="M 653 2828
L 1778 2828
L 1778 1619
L 653 1619
L 653 2828
z
" transform="scale(0.015625)"/>
      <path id="DejaVuSans-Bold-75" d="M 500 1363
L 500 3500
L 1625 3500
L 1625 3150
Q 1625 2866 1622 2436
Q 1619 2006 1619 1863
Q 1619 1441 1641 1255
Q 1663 1069 1716 984
Q 1784 875 1895 815
Q 2006 756 2150 756
Q 2500 756 2700 1025
Q 2900 1294 2900 1772
L 2900 3500
L 4019 3500
L 4019 0
L 2900 0
L 2900 506
Q 2647 200 2364 54
Q 2081 -91 1741 -91
Q 1134 -91 817 281
Q 500 653 500 1363
z
" transform="scale(0.015625)"/>
      <path id="DejaVuSans-Bold-73" d="M 3272 3391
L 3272 2541
Q 2913 2691 2578 2766
Q 2244 2841 1947 2841
Q 1628 2841 1473 2761
Q 1319 2681 1319 2516
Q 1319 2381 1436 2309
Q 1553 2238 1856 2203
L 2053 2175
Q 2913 2066 3209 1816
Q 3506 1566 3506 1031
Q 3506 472 3093 190
Q 2681 -91 1863 -91
Q 1516 -91 1145 -36
Q 775 19 384 128
L 384 978
Q 719 816 1070 734
Q 1422 653 1784 653
Q 2113 653 2278 743
Q 2444 834 2444 1013
Q 2444 1163 2330 1236
Q 2216 1309 1875 1350
L 1678 1375
Q 931 1469 631 1722
Q 331 1975 331 2491
Q 331 3047 712 3315
Q 1094 3584 1881 3584
Q 2191 3584 2531 3537
Q 2872 3491 3272 3391
z
" transform="scale(0.015625)"/>
      <path id="DejaVuSans-Bold-28" d="M 2413 -844
L 1484 -844
Q 1006 -72 778 623
Q 550 1319 550 2003
Q 550 2688 779 3389
Q 1009 4091 1484 4856
L 2413 4856
Q 2013 4116 1813 3408
Q 1613 2700 1613 2009
Q 1613 1319 1811 609
Q 2009 -100 2413 -844
z
" transform="scale(0.015625)"/>
      <path id="DejaVuSans-Bold-67" d="M 2919 594
Q 2688 288 2409 144
Q 2131 0 1766 0
Q 1125 0 706 504
Q 288 1009 288 1791
Q 288 2575 706 3076
Q 1125 3578 1766 3578
Q 2131 3578 2409 3434
Q 2688 3291 2919 2981
L 2919 3500
L 4044 3500
L 4044 353
Q 4044 -491 3511 -936
Q 2978 -1381 1966 -1381
Q 1638 -1381 1331 -1331
Q 1025 -1281 716 -1178
L 716 -306
Q 1009 -475 1290 -558
Q 1572 -641 1856 -641
Q 2406 -641 2662 -400
Q 2919 -159 2919 353
L 2919 594
z
M 2181 2772
Q 1834 2772 1640 2515
Q 1447 2259 1447 1791
Q 1447 1309 1634 1061
Q 1822 813 2181 813
Q 2531 813 2725 1069
Q 2919 1325 2919 1791
Q 2919 2259 2725 2515
Q 2531 2772 2181 2772
z
" transform="scale(0.015625)"/>
      <path id="DejaVuSans-Bold-68" d="M 4056 2131
L 4056 0
L 2931 0
L 2931 347
L 2931 1625
Q 2931 2084 2911 2256
Q 2891 2428 2841 2509
Q 2775 2619 2662 2680
Q 2550 2741 2406 2741
Q 2056 2741 1856 2470
Q 1656 2200 1656 1722
L 1656 0
L 538 0
L 538 4863
L 1656 4863
L 1656 2988
Q 1909 3294 2193 3439
Q 2478 3584 2822 3584
Q 3428 3584 3742 3212
Q 4056 2841 4056 2131
z
" transform="scale(0.015625)"/>
      <path id="DejaVuSans-Bold-62" d="M 2400 722
Q 2759 722 2948 984
Q 3138 1247 3138 1747
Q 3138 2247 2948 2509
Q 2759 2772 2400 2772
Q 2041 2772 1848 2508
Q 1656 2244 1656 1747
Q 1656 1250 1848 986
Q 2041 722 2400 722
z
M 1656 2988
Q 1888 3294 2169 3439
Q 2450 3584 2816 3584
Q 3463 3584 3878 3070
Q 4294 2556 4294 1747
Q 4294 938 3878 423
Q 3463 -91 2816 -91
Q 2450 -91 2169 54
Q 1888 200 1656 506
L 1656 0
L 538 0
L 538 4863
L 1656 4863
L 1656 2988
z
" transform="scale(0.015625)"/>
      <path id="DejaVuSans-Bold-2d" d="M 347 2297
L 2309 2297
L 2309 1388
L 347 1388
L 347 2297
z
" transform="scale(0.015625)"/>
      <path id="DejaVuSans-Bold-29" d="M 513 -844
Q 913 -100 1113 609
Q 1313 1319 1313 2009
Q 1313 2700 1113 3408
Q 913 4116 513 4856
L 1441 4856
Q 1916 4091 2145 3389
Q 2375 2688 2375 2003
Q 2375 1319 2147 623
Q 1919 -72 1441 -844
L 513 -844
z
" transform="scale(0.015625)"/>
     </defs>
     <use xlink:href="#DejaVuSans-Bold-54"/>
     <use xlink:href="#DejaVuSans-Bold-72" transform="translate(57.212891 0)"/>
     <use xlink:href="#DejaVuSans-Bold-61" transform="translate(106.529297 0)"/>
     <use xlink:href="#DejaVuSans-Bold-63" transform="translate(174.009766 0)"/>
     <use xlink:href="#DejaVuSans-Bold-65" transform="translate(233.287109 0)"/>
     <use xlink:href="#DejaVuSans-Bold-46" transform="translate(301.109375 0)"/>
     <use xlink:href="#DejaVuSans-Bold-6f" transform="translate(365.419922 0)"/>
     <use xlink:href="#DejaVuSans-Bold-6c" transform="translate(434.121094 0)"/>
     <use xlink:href="#DejaVuSans-Bold-64" transform="translate(468.398438 0)"/>
     <use xlink:href="#DejaVuSans-Bold-20" transform="translate(539.980469 0)"/>
     <use xlink:href="#DejaVuSans-Bold-b7" transform="translate(574.794922 0)"/>
     <use xlink:href="#DejaVuSans-Bold-20" transform="translate(612.783203 0)"/>
     <use xlink:href="#DejaVuSans-Bold-6f" transform="translate(647.597656 0)"/>
     <use xlink:href="#DejaVuSans-Bold-75" transform="translate(716.298828 0)"/>
     <use xlink:href="#DejaVuSans-Bold-72" transform="translate(787.490234 0)"/>
     <use xlink:href="#DejaVuSans-Bold-73" transform="translate(836.806641 0)"/>
     <use xlink:href="#DejaVuSans-Bold-20" transform="translate(896.328125 0)"/>
     <use xlink:href="#DejaVuSans-Bold-28" transform="translate(931.142578 0)"/>
     <use xlink:href="#DejaVuSans-Bold-6c" transform="translate(976.845703 0)"/>
     <use xlink:href="#DejaVuSans-Bold-6f" transform="translate(1011.123047 0)"/>
     <use xlink:href="#DejaVuSans-Bold-67" transform="translate(1079.824219 0)"/>
     <use xlink:href="#DejaVuSans-Bold-68" transform="translate(1151.40625 0)"/>
     <use xlink:href="#DejaVuSans-Bold-75" transform="translate(1222.597656 0)"/>
     <use xlink:href="#DejaVuSans-Bold-62" transform="translate(1293.789062 0)"/>
     <use xlink:href="#DejaVuSans-Bold-2d" transform="translate(1365.371094 0)"/>
     <use xlink:href="#DejaVuSans-Bold-62" transform="translate(1406.875 0)"/>
     <use xlink:href="#DejaVuSans-Bold-67" transform="translate(1478.457031 0)"/>
     <use xlink:href="#DejaVuSans-Bold-6c" transform="translate(1550.039062 0)"/>
     <use xlink:href="#DejaVuSans-Bold-29" transform="translate(1584.316406 0)"/>
    </g>
   </g>
   <g id="text_25">
    <!-- duckdb-raw -->
    <g style="fill: #566159" transform="translate(153.133436 77.203533) scale(0.07 -0.07)">
     <defs>
      <path id="DejaVuSans-6b" d="M 581 4863
L 1159 4863
L 1159 1991
L 2875 3500
L 3609 3500
L 1753 1863
L 3688 0
L 2938 0
L 1159 1709
L 1159 0
L 581 0
L 581 4863
z
" transform="scale(0.015625)"/>
     </defs>
     <use xlink:href="#DejaVuSans-64"/>
     <use xlink:href="#DejaVuSans-75" transform="translate(63.476562 0)"/>
     <use xlink:href="#DejaVuSans-63" transform="translate(126.855469 0)"/>
     <use xlink:href="#DejaVuSans-6b" transform="translate(181.835938 0)"/>
     <use xlink:href="#DejaVuSans-64" transform="translate(239.746094 0)"/>
     <use xlink:href="#DejaVuSans-62" transform="translate(303.222656 0)"/>
     <use xlink:href="#DejaVuSans-2d" transform="translate(366.699219 0)"/>
     <use xlink:href="#DejaVuSans-72" transform="translate(402.783203 0)"/>
     <use xlink:href="#DejaVuSans-61" transform="translate(443.896484 0)"/>
     <use xlink:href="#DejaVuSans-77" transform="translate(505.175781 0)"/>
    </g>
   </g>
   <g id="text_26">
    <!-- parquet-raw-zstd -->
    <g style="fill: #566159" transform="translate(91.903102 63.445962) scale(0.07 -0.07)">
     <use xlink:href="#DejaVuSans-70"/>
     <use xlink:href="#DejaVuSans-61" transform="translate(63.476562 0)"/>
     <use xlink:href="#DejaVuSans-72" transform="translate(124.755859 0)"/>
     <use xlink:href="#DejaVuSans-71" transform="translate(164.119141 0)"/>
     <use xlink:href="#DejaVuSans-75" transform="translate(227.595703 0)"/>
     <use xlink:href="#DejaVuSans-65" transform="translate(290.974609 0)"/>
     <use xlink:href="#DejaVuSans-74" transform="translate(352.498047 0)"/>
     <use xlink:href="#DejaVuSans-2d" transform="translate(391.707031 0)"/>
     <use xlink:href="#DejaVuSans-72" transform="translate(427.791016 0)"/>
     <use xlink:href="#DejaVuSans-61" transform="translate(468.904297 0)"/>
     <use xlink:href="#DejaVuSans-77" transform="translate(530.183594 0)"/>
     <use xlink:href="#DejaVuSans-2d" transform="translate(611.970703 0)"/>
     <use xlink:href="#DejaVuSans-7a" transform="translate(648.054688 0)"/>
     <use xlink:href="#DejaVuSans-73" transform="translate(700.544922 0)"/>
     <use xlink:href="#DejaVuSans-74" transform="translate(752.644531 0)"/>
     <use xlink:href="#DejaVuSans-64" transform="translate(791.853516 0)"/>
    </g>
   </g>
   <g id="text_27">
    <!-- views-parquet-zstd -->
    <g style="fill: #566159" transform="translate(74.402314 37.232926) scale(0.07 -0.07)">
     <use xlink:href="#DejaVuSans-76"/>
     <use xlink:href="#DejaVuSans-69" transform="translate(59.179688 0)"/>
     <use xlink:href="#DejaVuSans-65" transform="translate(86.962891 0)"/>
     <use xlink:href="#DejaVuSans-77" transform="translate(148.486328 0)"/>
     <use xlink:href="#DejaVuSans-73" transform="translate(230.273438 0)"/>
     <use xlink:href="#DejaVuSans-2d" transform="translate(282.373047 0)"/>
     <use xlink:href="#DejaVuSans-70" transform="translate(318.457031 0)"/>
     <use xlink:href="#DejaVuSans-61" transform="translate(381.933594 0)"/>
     <use xlink:href="#DejaVuSans-72" transform="translate(443.212891 0)"/>
     <use xlink:href="#DejaVuSans-71" transform="translate(482.576172 0)"/>
     <use xlink:href="#DejaVuSans-75" transform="translate(546.052734 0)"/>
     <use xlink:href="#DejaVuSans-65" transform="translate(609.431641 0)"/>
     <use xlink:href="#DejaVuSans-74" transform="translate(670.955078 0)"/>
     <use xlink:href="#DejaVuSans-2d" transform="translate(710.164062 0)"/>
     <use xlink:href="#DejaVuSans-7a" transform="translate(746.248047 0)"/>
     <use xlink:href="#DejaVuSans-73" transform="translate(798.738281 0)"/>
     <use xlink:href="#DejaVuSans-74" transform="translate(850.837891 0)"/>
     <use xlink:href="#DejaVuSans-64" transform="translate(890.046875 0)"/>
    </g>
   </g>
   <g id="text_28">
    <!-- jsonl -->
    <g style="fill: #566159" transform="translate(73.983044 303.319492) scale(0.07 -0.07)">
     <use xlink:href="#DejaVuSans-6a"/>
     <use xlink:href="#DejaVuSans-73" transform="translate(27.783203 0)"/>
     <use xlink:href="#DejaVuSans-6f" transform="translate(79.882812 0)"/>
     <use xlink:href="#DejaVuSans-6e" transform="translate(141.064453 0)"/>
     <use xlink:href="#DejaVuSans-6c" transform="translate(204.443359 0)"/>
    </g>
   </g>
   <g id="text_29">
    <!-- gzip-6 -->
    <g style="fill: #566159" transform="translate(73.00156 303.488986) scale(0.07 -0.07)">
     <use xlink:href="#DejaVuSans-67"/>
     <use xlink:href="#DejaVuSans-7a" transform="translate(63.476562 0)"/>
     <use xlink:href="#DejaVuSans-69" transform="translate(115.966797 0)"/>
     <use xlink:href="#DejaVuSans-70" transform="translate(143.75 0)"/>
     <use xlink:href="#DejaVuSans-2d" transform="translate(207.226562 0)"/>
     <use xlink:href="#DejaVuSans-36" transform="translate(243.310547 0)"/>
    </g>
   </g>
   <g id="text_30">
    <!-- zstd-3 -->
    <g style="fill: #566159" transform="translate(73.000934 303.528949) scale(0.07 -0.07)">
     <use xlink:href="#DejaVuSans-7a"/>
     <use xlink:href="#DejaVuSans-73" transform="translate(52.490234 0)"/>
     <use xlink:href="#DejaVuSans-74" transform="translate(104.589844 0)"/>
     <use xlink:href="#DejaVuSans-64" transform="translate(143.798828 0)"/>
     <use xlink:href="#DejaVuSans-2d" transform="translate(207.275391 0)"/>
     <use xlink:href="#DejaVuSans-33" transform="translate(243.359375 0)"/>
    </g>
   </g>
   <g id="text_31">
    <!-- zstd-9 -->
    <g style="fill: #566159" transform="translate(72.985311 303.404721) scale(0.07 -0.07)">
     <use xlink:href="#DejaVuSans-7a"/>
     <use xlink:href="#DejaVuSans-73" transform="translate(52.490234 0)"/>
     <use xlink:href="#DejaVuSans-74" transform="translate(104.589844 0)"/>
     <use xlink:href="#DejaVuSans-64" transform="translate(143.798828 0)"/>
     <use xlink:href="#DejaVuSans-2d" transform="translate(207.275391 0)"/>
     <use xlink:href="#DejaVuSans-39" transform="translate(243.359375 0)"/>
    </g>
   </g>
   <g id="text_32">
    <!-- TraceFold · ours (smoke-standard-10000) -->
    <g style="fill: #8f2c18" transform="translate(76.982473 280.143075) scale(0.09 -0.09)">
     <defs>
      <path id="DejaVuSans-Bold-6d" d="M 3781 2919
Q 3994 3244 4286 3414
Q 4578 3584 4928 3584
Q 5531 3584 5847 3212
Q 6163 2841 6163 2131
L 6163 0
L 5038 0
L 5038 1825
Q 5041 1866 5042 1909
Q 5044 1953 5044 2034
Q 5044 2406 4934 2573
Q 4825 2741 4581 2741
Q 4263 2741 4089 2478
Q 3916 2216 3909 1719
L 3909 0
L 2784 0
L 2784 1825
Q 2784 2406 2684 2573
Q 2584 2741 2328 2741
Q 2006 2741 1831 2477
Q 1656 2213 1656 1722
L 1656 0
L 531 0
L 531 3500
L 1656 3500
L 1656 2988
Q 1863 3284 2130 3434
Q 2397 3584 2719 3584
Q 3081 3584 3359 3409
Q 3638 3234 3781 2919
z
" transform="scale(0.015625)"/>
      <path id="DejaVuSans-Bold-6b" d="M 538 4863
L 1656 4863
L 1656 2216
L 2944 3500
L 4244 3500
L 2534 1894
L 4378 0
L 3022 0
L 1656 1459
L 1656 0
L 538 0
L 538 4863
z
" transform="scale(0.015625)"/>
      <path id="DejaVuSans-Bold-74" d="M 1759 4494
L 1759 3500
L 2913 3500
L 2913 2700
L 1759 2700
L 1759 1216
Q 1759 972 1856 886
Q 1953 800 2241 800
L 2816 800
L 2816 0
L 1856 0
Q 1194 0 917 276
Q 641 553 641 1216
L 641 2700
L 84 2700
L 84 3500
L 641 3500
L 641 4494
L 1759 4494
z
" transform="scale(0.015625)"/>
      <path id="DejaVuSans-Bold-6e" d="M 4056 2131
L 4056 0
L 2931 0
L 2931 347
L 2931 1631
Q 2931 2084 2911 2256
Q 2891 2428 2841 2509
Q 2775 2619 2662 2680
Q 2550 2741 2406 2741
Q 2056 2741 1856 2470
Q 1656 2200 1656 1722
L 1656 0
L 538 0
L 538 3500
L 1656 3500
L 1656 2988
Q 1909 3294 2193 3439
Q 2478 3584 2822 3584
Q 3428 3584 3742 3212
Q 4056 2841 4056 2131
z
" transform="scale(0.015625)"/>
      <path id="DejaVuSans-Bold-31" d="M 750 831
L 1813 831
L 1813 3847
L 722 3622
L 722 4441
L 1806 4666
L 2950 4666
L 2950 831
L 4013 831
L 4013 0
L 750 0
L 750 831
z
" transform="scale(0.015625)"/>
      <path id="DejaVuSans-Bold-30" d="M 2944 2338
Q 2944 3213 2780 3570
Q 2616 3928 2228 3928
Q 1841 3928 1675 3570
Q 1509 3213 1509 2338
Q 1509 1453 1675 1090
Q 1841 728 2228 728
Q 2613 728 2778 1090
Q 2944 1453 2944 2338
z
M 4147 2328
Q 4147 1169 3647 539
Q 3147 -91 2228 -91
Q 1306 -91 806 539
Q 306 1169 306 2328
Q 306 3491 806 4120
Q 1306 4750 2228 4750
Q 3147 4750 3647 4120
Q 4147 3491 4147 2328
z
" transform="scale(0.015625)"/>
     </defs>
     <use xlink:href="#DejaVuSans-Bold-54"/>
     <use xlink:href="#DejaVuSans-Bold-72" transform="translate(57.212891 0)"/>
     <use xlink:href="#DejaVuSans-Bold-61" transform="translate(106.529297 0)"/>
     <use xlink:href="#DejaVuSans-Bold-63" transform="translate(174.009766 0)"/>
     <use xlink:href="#DejaVuSans-Bold-65" transform="translate(233.287109 0)"/>
     <use xlink:href="#DejaVuSans-Bold-46" transform="translate(301.109375 0)"/>
     <use xlink:href="#DejaVuSans-Bold-6f" transform="translate(365.419922 0)"/>
     <use xlink:href="#DejaVuSans-Bold-6c" transform="translate(434.121094 0)"/>
     <use xlink:href="#DejaVuSans-Bold-64" transform="translate(468.398438 0)"/>
     <use xlink:href="#DejaVuSans-Bold-20" transform="translate(539.980469 0)"/>
     <use xlink:href="#DejaVuSans-Bold-b7" transform="translate(574.794922 0)"/>
     <use xlink:href="#DejaVuSans-Bold-20" transform="translate(612.783203 0)"/>
     <use xlink:href="#DejaVuSans-Bold-6f" transform="translate(647.597656 0)"/>
     <use xlink:href="#DejaVuSans-Bold-75" transform="translate(716.298828 0)"/>
     <use xlink:href="#DejaVuSans-Bold-72" transform="translate(787.490234 0)"/>
     <use xlink:href="#DejaVuSans-Bold-73" transform="translate(836.806641 0)"/>
     <use xlink:href="#DejaVuSans-Bold-20" transform="translate(896.328125 0)"/>
     <use xlink:href="#DejaVuSans-Bold-28" transform="translate(931.142578 0)"/>
     <use xlink:href="#DejaVuSans-Bold-73" transform="translate(976.845703 0)"/>
     <use xlink:href="#DejaVuSans-Bold-6d" transform="translate(1036.367188 0)"/>
     <use xlink:href="#DejaVuSans-Bold-6f" transform="translate(1140.566406 0)"/>
     <use xlink:href="#DejaVuSans-Bold-6b" transform="translate(1209.267578 0)"/>
     <use xlink:href="#DejaVuSans-Bold-65" transform="translate(1273.146484 0)"/>
     <use xlink:href="#DejaVuSans-Bold-2d" transform="translate(1340.96875 0)"/>
     <use xlink:href="#DejaVuSans-Bold-73" transform="translate(1382.472656 0)"/>
     <use xlink:href="#DejaVuSans-Bold-74" transform="translate(1441.994141 0)"/>
     <use xlink:href="#DejaVuSans-Bold-61" transform="translate(1489.796875 0)"/>
     <use xlink:href="#DejaVuSans-Bold-6e" transform="translate(1557.277344 0)"/>
     <use xlink:href="#DejaVuSans-Bold-64" transform="translate(1628.46875 0)"/>
     <use xlink:href="#DejaVuSans-Bold-61" transform="translate(1700.050781 0)"/>
     <use xlink:href="#DejaVuSans-Bold-72" transform="translate(1767.53125 0)"/>
     <use xlink:href="#DejaVuSans-Bold-64" transform="translate(1816.847656 0)"/>
     <use xlink:href="#DejaVuSans-Bold-2d" transform="translate(1888.429688 0)"/>
     <use xlink:href="#DejaVuSans-Bold-31" transform="translate(1929.933594 0)"/>
     <use xlink:href="#DejaVuSans-Bold-30" transform="translate(1999.513672 0)"/>
     <use xlink:href="#DejaVuSans-Bold-30" transform="translate(2069.09375 0)"/>
     <use xlink:href="#DejaVuSans-Bold-30" transform="translate(2138.673828 0)"/>
     <use xlink:href="#DejaVuSans-Bold-30" transform="translate(2208.253906 0)"/>
     <use xlink:href="#DejaVuSans-Bold-29" transform="translate(2277.833984 0)"/>
    </g>
   </g>
   <g id="text_33">
    <!-- duckdb-raw -->
    <g style="fill: #566159" transform="translate(73.081279 269.320448) scale(0.07 -0.07)">
     <use xlink:href="#DejaVuSans-64"/>
     <use xlink:href="#DejaVuSans-75" transform="translate(63.476562 0)"/>
     <use xlink:href="#DejaVuSans-63" transform="translate(126.855469 0)"/>
     <use xlink:href="#DejaVuSans-6b" transform="translate(181.835938 0)"/>
     <use xlink:href="#DejaVuSans-64" transform="translate(239.746094 0)"/>
     <use xlink:href="#DejaVuSans-62" transform="translate(303.222656 0)"/>
     <use xlink:href="#DejaVuSans-2d" transform="translate(366.699219 0)"/>
     <use xlink:href="#DejaVuSans-72" transform="translate(402.783203 0)"/>
     <use xlink:href="#DejaVuSans-61" transform="translate(443.896484 0)"/>
     <use xlink:href="#DejaVuSans-77" transform="translate(505.175781 0)"/>
    </g>
   </g>
   <g id="text_34">
    <!-- parquet-raw-zstd -->
    <g style="fill: #566159" transform="translate(72.952528 267.208606) scale(0.07 -0.07)">
     <use xlink:href="#DejaVuSans-70"/>
     <use xlink:href="#DejaVuSans-61" transform="translate(63.476562 0)"/>
     <use xlink:href="#DejaVuSans-72" transform="translate(124.755859 0)"/>
     <use xlink:href="#DejaVuSans-71" transform="translate(164.119141 0)"/>
     <use xlink:href="#DejaVuSans-75" transform="translate(227.595703 0)"/>
     <use xlink:href="#DejaVuSans-65" transform="translate(290.974609 0)"/>
     <use xlink:href="#DejaVuSans-74" transform="translate(352.498047 0)"/>
     <use xlink:href="#DejaVuSans-2d" transform="translate(391.707031 0)"/>
     <use xlink:href="#DejaVuSans-72" transform="translate(427.791016 0)"/>
     <use xlink:href="#DejaVuSans-61" transform="translate(468.904297 0)"/>
     <use xlink:href="#DejaVuSans-77" transform="translate(530.183594 0)"/>
     <use xlink:href="#DejaVuSans-2d" transform="translate(611.970703 0)"/>
     <use xlink:href="#DejaVuSans-7a" transform="translate(648.054688 0)"/>
     <use xlink:href="#DejaVuSans-73" transform="translate(700.544922 0)"/>
     <use xlink:href="#DejaVuSans-74" transform="translate(752.644531 0)"/>
     <use xlink:href="#DejaVuSans-64" transform="translate(791.853516 0)"/>
    </g>
   </g>
   <g id="text_35">
    <!-- views-parquet-zstd -->
    <g style="fill: #566159" transform="translate(73.217191 262.590203) scale(0.07 -0.07)">
     <use xlink:href="#DejaVuSans-76"/>
     <use xlink:href="#DejaVuSans-69" transform="translate(59.179688 0)"/>
     <use xlink:href="#DejaVuSans-65" transform="translate(86.962891 0)"/>
     <use xlink:href="#DejaVuSans-77" transform="translate(148.486328 0)"/>
     <use xlink:href="#DejaVuSans-73" transform="translate(230.273438 0)"/>
     <use xlink:href="#DejaVuSans-2d" transform="translate(282.373047 0)"/>
     <use xlink:href="#DejaVuSans-70" transform="translate(318.457031 0)"/>
     <use xlink:href="#DejaVuSans-61" transform="translate(381.933594 0)"/>
     <use xlink:href="#DejaVuSans-72" transform="translate(443.212891 0)"/>
     <use xlink:href="#DejaVuSans-71" transform="translate(482.576172 0)"/>
     <use xlink:href="#DejaVuSans-75" transform="translate(546.052734 0)"/>
     <use xlink:href="#DejaVuSans-65" transform="translate(609.431641 0)"/>
     <use xlink:href="#DejaVuSans-74" transform="translate(670.955078 0)"/>
     <use xlink:href="#DejaVuSans-2d" transform="translate(710.164062 0)"/>
     <use xlink:href="#DejaVuSans-7a" transform="translate(746.248047 0)"/>
     <use xlink:href="#DejaVuSans-73" transform="translate(798.738281 0)"/>
     <use xlink:href="#DejaVuSans-74" transform="translate(850.837891 0)"/>
     <use xlink:href="#DejaVuSans-64" transform="translate(890.046875 0)"/>
    </g>
   </g>
   <g id="text_36">
    <!-- jsonl -->
    <g style="fill: #566159" transform="translate(79.884071 297.609346) scale(0.07 -0.07)">
     <use xlink:href="#DejaVuSans-6a"/>
     <use xlink:href="#DejaVuSans-73" transform="translate(27.783203 0)"/>
     <use xlink:href="#DejaVuSans-6f" transform="translate(79.882812 0)"/>
     <use xlink:href="#DejaVuSans-6e" transform="translate(141.064453 0)"/>
     <use xlink:href="#DejaVuSans-6c" transform="translate(204.443359 0)"/>
    </g>
   </g>
   <g id="text_37">
    <!-- gzip-6 -->
    <g style="fill: #566159" transform="translate(73.114398 297.682346) scale(0.07 -0.07)">
     <use xlink:href="#DejaVuSans-67"/>
     <use xlink:href="#DejaVuSans-7a" transform="translate(63.476562 0)"/>
     <use xlink:href="#DejaVuSans-69" transform="translate(115.966797 0)"/>
     <use xlink:href="#DejaVuSans-70" transform="translate(143.75 0)"/>
     <use xlink:href="#DejaVuSans-2d" transform="translate(207.226562 0)"/>
     <use xlink:href="#DejaVuSans-36" transform="translate(243.310547 0)"/>
    </g>
   </g>
   <g id="text_38">
    <!-- zstd-3 -->
    <g style="fill: #566159" transform="translate(73.123511 297.503715) scale(0.07 -0.07)">
     <use xlink:href="#DejaVuSans-7a"/>
     <use xlink:href="#DejaVuSans-73" transform="translate(52.490234 0)"/>
     <use xlink:href="#DejaVuSans-74" transform="translate(104.589844 0)"/>
     <use xlink:href="#DejaVuSans-64" transform="translate(143.798828 0)"/>
     <use xlink:href="#DejaVuSans-2d" transform="translate(207.275391 0)"/>
     <use xlink:href="#DejaVuSans-33" transform="translate(243.359375 0)"/>
    </g>
   </g>
   <g id="text_39">
    <!-- zstd-9 -->
    <g style="fill: #566159" transform="translate(73.056564 297.702876) scale(0.07 -0.07)">
     <use xlink:href="#DejaVuSans-7a"/>
     <use xlink:href="#DejaVuSans-73" transform="translate(52.490234 0)"/>
     <use xlink:href="#DejaVuSans-74" transform="translate(104.589844 0)"/>
     <use xlink:href="#DejaVuSans-64" transform="translate(143.798828 0)"/>
     <use xlink:href="#DejaVuSans-2d" transform="translate(207.275391 0)"/>
     <use xlink:href="#DejaVuSans-39" transform="translate(243.359375 0)"/>
    </g>
   </g>
   <g id="text_40">
    <!-- TraceFold · ours (loghub-zookeeper) -->
    <g style="fill: #8f2c18" transform="translate(76.918466 271.733841) scale(0.09 -0.09)">
     <defs>
      <path id="DejaVuSans-Bold-7a" d="M 366 3500
L 3419 3500
L 3419 2719
L 1575 800
L 3419 800
L 3419 0
L 288 0
L 288 781
L 2131 2700
L 366 2700
L 366 3500
z
" transform="scale(0.015625)"/>
      <path id="DejaVuSans-Bold-70" d="M 1656 506
L 1656 -1331
L 538 -1331
L 538 3500
L 1656 3500
L 1656 2988
Q 1888 3294 2169 3439
Q 2450 3584 2816 3584
Q 3463 3584 3878 3070
Q 4294 2556 4294 1747
Q 4294 938 3878 423
Q 3463 -91 2816 -91
Q 2450 -91 2169 54
Q 1888 200 1656 506
z
M 2400 2772
Q 2041 2772 1848 2508
Q 1656 2244 1656 1747
Q 1656 1250 1848 986
Q 2041 722 2400 722
Q 2759 722 2948 984
Q 3138 1247 3138 1747
Q 3138 2247 2948 2509
Q 2759 2772 2400 2772
z
" transform="scale(0.015625)"/>
     </defs>
     <use xlink:href="#DejaVuSans-Bold-54"/>
     <use xlink:href="#DejaVuSans-Bold-72" transform="translate(57.212891 0)"/>
     <use xlink:href="#DejaVuSans-Bold-61" transform="translate(106.529297 0)"/>
     <use xlink:href="#DejaVuSans-Bold-63" transform="translate(174.009766 0)"/>
     <use xlink:href="#DejaVuSans-Bold-65" transform="translate(233.287109 0)"/>
     <use xlink:href="#DejaVuSans-Bold-46" transform="translate(301.109375 0)"/>
     <use xlink:href="#DejaVuSans-Bold-6f" transform="translate(365.419922 0)"/>
     <use xlink:href="#DejaVuSans-Bold-6c" transform="translate(434.121094 0)"/>
     <use xlink:href="#DejaVuSans-Bold-64" transform="translate(468.398438 0)"/>
     <use xlink:href="#DejaVuSans-Bold-20" transform="translate(539.980469 0)"/>
     <use xlink:href="#DejaVuSans-Bold-b7" transform="translate(574.794922 0)"/>
     <use xlink:href="#DejaVuSans-Bold-20" transform="translate(612.783203 0)"/>
     <use xlink:href="#DejaVuSans-Bold-6f" transform="translate(647.597656 0)"/>
     <use xlink:href="#DejaVuSans-Bold-75" transform="translate(716.298828 0)"/>
     <use xlink:href="#DejaVuSans-Bold-72" transform="translate(787.490234 0)"/>
     <use xlink:href="#DejaVuSans-Bold-73" transform="translate(836.806641 0)"/>
     <use xlink:href="#DejaVuSans-Bold-20" transform="translate(896.328125 0)"/>
     <use xlink:href="#DejaVuSans-Bold-28" transform="translate(931.142578 0)"/>
     <use xlink:href="#DejaVuSans-Bold-6c" transform="translate(976.845703 0)"/>
     <use xlink:href="#DejaVuSans-Bold-6f" transform="translate(1011.123047 0)"/>
     <use xlink:href="#DejaVuSans-Bold-67" transform="translate(1079.824219 0)"/>
     <use xlink:href="#DejaVuSans-Bold-68" transform="translate(1151.40625 0)"/>
     <use xlink:href="#DejaVuSans-Bold-75" transform="translate(1222.597656 0)"/>
     <use xlink:href="#DejaVuSans-Bold-62" transform="translate(1293.789062 0)"/>
     <use xlink:href="#DejaVuSans-Bold-2d" transform="translate(1365.371094 0)"/>
     <use xlink:href="#DejaVuSans-Bold-7a" transform="translate(1406.875 0)"/>
     <use xlink:href="#DejaVuSans-Bold-6f" transform="translate(1465.078125 0)"/>
     <use xlink:href="#DejaVuSans-Bold-6f" transform="translate(1533.779297 0)"/>
     <use xlink:href="#DejaVuSans-Bold-6b" transform="translate(1602.480469 0)"/>
     <use xlink:href="#DejaVuSans-Bold-65" transform="translate(1666.359375 0)"/>
     <use xlink:href="#DejaVuSans-Bold-65" transform="translate(1734.181641 0)"/>
     <use xlink:href="#DejaVuSans-Bold-70" transform="translate(1802.003906 0)"/>
     <use xlink:href="#DejaVuSans-Bold-65" transform="translate(1873.585938 0)"/>
     <use xlink:href="#DejaVuSans-Bold-72" transform="translate(1941.408203 0)"/>
     <use xlink:href="#DejaVuSans-Bold-29" transform="translate(1990.724609 0)"/>
    </g>
   </g>
   <g id="text_41">
    <!-- duckdb-raw -->
    <g style="fill: #566159" transform="translate(74.251272 231.718586) scale(0.07 -0.07)">
     <use xlink:href="#DejaVuSans-64"/>
     <use xlink:href="#DejaVuSans-75" transform="translate(63.476562 0)"/>
     <use xlink:href="#DejaVuSans-63" transform="translate(126.855469 0)"/>
     <use xlink:href="#DejaVuSans-6b" transform="translate(181.835938 0)"/>
     <use xlink:href="#DejaVuSans-64" transform="translate(239.746094 0)"/>
     <use xlink:href="#DejaVuSans-62" transform="translate(303.222656 0)"/>
     <use xlink:href="#DejaVuSans-2d" transform="translate(366.699219 0)"/>
     <use xlink:href="#DejaVuSans-72" transform="translate(402.783203 0)"/>
     <use xlink:href="#DejaVuSans-61" transform="translate(443.896484 0)"/>
     <use xlink:href="#DejaVuSans-77" transform="translate(505.175781 0)"/>
    </g>
   </g>
   <g id="text_42">
    <!-- parquet-raw-zstd -->
    <g style="fill: #566159" transform="translate(73.044646 229.031169) scale(0.07 -0.07)">
     <use xlink:href="#DejaVuSans-70"/>
     <use xlink:href="#DejaVuSans-61" transform="translate(63.476562 0)"/>
     <use xlink:href="#DejaVuSans-72" transform="translate(124.755859 0)"/>
     <use xlink:href="#DejaVuSans-71" transform="translate(164.119141 0)"/>
     <use xlink:href="#DejaVuSans-75" transform="translate(227.595703 0)"/>
     <use xlink:href="#DejaVuSans-65" transform="translate(290.974609 0)"/>
     <use xlink:href="#DejaVuSans-74" transform="translate(352.498047 0)"/>
     <use xlink:href="#DejaVuSans-2d" transform="translate(391.707031 0)"/>
     <use xlink:href="#DejaVuSans-72" transform="translate(427.791016 0)"/>
     <use xlink:href="#DejaVuSans-61" transform="translate(468.904297 0)"/>
     <use xlink:href="#DejaVuSans-77" transform="translate(530.183594 0)"/>
     <use xlink:href="#DejaVuSans-2d" transform="translate(611.970703 0)"/>
     <use xlink:href="#DejaVuSans-7a" transform="translate(648.054688 0)"/>
     <use xlink:href="#DejaVuSans-73" transform="translate(700.544922 0)"/>
     <use xlink:href="#DejaVuSans-74" transform="translate(752.644531 0)"/>
     <use xlink:href="#DejaVuSans-64" transform="translate(791.853516 0)"/>
    </g>
   </g>
   <g id="text_43">
    <!-- views-parquet-zstd -->
    <g style="fill: #566159" transform="translate(72.943252 223.798233) scale(0.07 -0.07)">
     <use xlink:href="#DejaVuSans-76"/>
     <use xlink:href="#DejaVuSans-69" transform="translate(59.179688 0)"/>
     <use xlink:href="#DejaVuSans-65" transform="translate(86.962891 0)"/>
     <use xlink:href="#DejaVuSans-77" transform="translate(148.486328 0)"/>
     <use xlink:href="#DejaVuSans-73" transform="translate(230.273438 0)"/>
     <use xlink:href="#DejaVuSans-2d" transform="translate(282.373047 0)"/>
     <use xlink:href="#DejaVuSans-70" transform="translate(318.457031 0)"/>
     <use xlink:href="#DejaVuSans-61" transform="translate(381.933594 0)"/>
     <use xlink:href="#DejaVuSans-72" transform="translate(443.212891 0)"/>
     <use xlink:href="#DejaVuSans-71" transform="translate(482.576172 0)"/>
     <use xlink:href="#DejaVuSans-75" transform="translate(546.052734 0)"/>
     <use xlink:href="#DejaVuSans-65" transform="translate(609.431641 0)"/>
     <use xlink:href="#DejaVuSans-74" transform="translate(670.955078 0)"/>
     <use xlink:href="#DejaVuSans-2d" transform="translate(710.164062 0)"/>
     <use xlink:href="#DejaVuSans-7a" transform="translate(746.248047 0)"/>
     <use xlink:href="#DejaVuSans-73" transform="translate(798.738281 0)"/>
     <use xlink:href="#DejaVuSans-74" transform="translate(850.837891 0)"/>
     <use xlink:href="#DejaVuSans-64" transform="translate(890.046875 0)"/>
    </g>
   </g>
   <g id="text_44">
    <!-- Storage–query latency frontier -->
    <g transform="translate(214.543125 19.918125) scale(0.12 -0.12)">
     <defs>
      <path id="DejaVuSans-53" d="M 3425 4513
L 3425 3897
Q 3066 4069 2747 4153
Q 2428 4238 2131 4238
Q 1616 4238 1336 4038
Q 1056 3838 1056 3469
Q 1056 3159 1242 3001
Q 1428 2844 1947 2747
L 2328 2669
Q 3034 2534 3370 2195
Q 3706 1856 3706 1288
Q 3706 609 3251 259
Q 2797 -91 1919 -91
Q 1588 -91 1214 -16
Q 841 59 441 206
L 441 856
Q 825 641 1194 531
Q 1563 422 1919 422
Q 2459 422 2753 634
Q 3047 847 3047 1241
Q 3047 1584 2836 1778
Q 2625 1972 2144 2069
L 1759 2144
Q 1053 2284 737 2584
Q 422 2884 422 3419
Q 422 4038 858 4394
Q 1294 4750 2059 4750
Q 2388 4750 2728 4690
Q 3069 4631 3425 4513
z
" transform="scale(0.015625)"/>
      <path id="DejaVuSans-2013" d="M 313 1978
L 2888 1978
L 2888 1528
L 313 1528
L 313 1978
z
" transform="scale(0.015625)"/>
      <path id="DejaVuSans-66" d="M 2375 4863
L 2375 4384
L 1825 4384
Q 1516 4384 1395 4259
Q 1275 4134 1275 3809
L 1275 3500
L 2222 3500
L 2222 3053
L 1275 3053
L 1275 0
L 697 0
L 697 3053
L 147 3053
L 147 3500
L 697 3500
L 697 3744
Q 697 4328 969 4595
Q 1241 4863 1831 4863
L 2375 4863
z
" transform="scale(0.015625)"/>
     </defs>
     <use xlink:href="#DejaVuSans-53"/>
     <use xlink:href="#DejaVuSans-74" transform="translate(63.476562 0)"/>
     <use xlink:href="#DejaVuSans-6f" transform="translate(102.685547 0)"/>
     <use xlink:href="#DejaVuSans-72" transform="translate(163.867188 0)"/>
     <use xlink:href="#DejaVuSans-61" transform="translate(204.980469 0)"/>
     <use xlink:href="#DejaVuSans-67" transform="translate(266.259766 0)"/>
     <use xlink:href="#DejaVuSans-65" transform="translate(329.736328 0)"/>
     <use xlink:href="#DejaVuSans-2013" transform="translate(391.259766 0)"/>
     <use xlink:href="#DejaVuSans-71" transform="translate(441.259766 0)"/>
     <use xlink:href="#DejaVuSans-75" transform="translate(504.736328 0)"/>
     <use xlink:href="#DejaVuSans-65" transform="translate(568.115234 0)"/>
     <use xlink:href="#DejaVuSans-72" transform="translate(629.638672 0)"/>
     <use xlink:href="#DejaVuSans-79" transform="translate(670.751953 0)"/>
     <use xlink:href="#DejaVuSans-20" transform="translate(729.931641 0)"/>
     <use xlink:href="#DejaVuSans-6c" transform="translate(761.71875 0)"/>
     <use xlink:href="#DejaVuSans-61" transform="translate(789.501953 0)"/>
     <use xlink:href="#DejaVuSans-74" transform="translate(850.78125 0)"/>
     <use xlink:href="#DejaVuSans-65" transform="translate(889.990234 0)"/>
     <use xlink:href="#DejaVuSans-6e" transform="translate(951.513672 0)"/>
     <use xlink:href="#DejaVuSans-63" transform="translate(1014.892578 0)"/>
     <use xlink:href="#DejaVuSans-79" transform="translate(1069.873047 0)"/>
     <use xlink:href="#DejaVuSans-20" transform="translate(1129.052734 0)"/>
     <use xlink:href="#DejaVuSans-66" transform="translate(1160.839844 0)"/>
     <use xlink:href="#DejaVuSans-72" transform="translate(1196.044922 0)"/>
     <use xlink:href="#DejaVuSans-6f" transform="translate(1234.908203 0)"/>
     <use xlink:href="#DejaVuSans-6e" transform="translate(1296.089844 0)"/>
     <use xlink:href="#DejaVuSans-74" transform="translate(1359.46875 0)"/>
     <use xlink:href="#DejaVuSans-69" transform="translate(1398.677734 0)"/>
     <use xlink:href="#DejaVuSans-65" transform="translate(1426.460938 0)"/>
     <use xlink:href="#DejaVuSans-72" transform="translate(1487.984375 0)"/>
    </g>
   </g>
   <g id="PathCollection_22">
    <defs>
     <path id="m12b14585d6" d="M 0 -6.892024
L -1.547356 -2.129753
L -6.554705 -2.129753
L -2.503674 0.813493
L -4.05103 5.575765
L -0 2.632519
L 4.05103 5.575765
L 2.503674 0.813493
L 6.554705 -2.129753
L 1.547356 -2.129753
z
" style="stroke: #8f2c18; stroke-width: 1.2"/>
    </defs>
    <g clip-path="url(#p3de57a5adb)">
     <use xlink:href="#m12b14585d6" x="72.485495" y="259.809446" style="fill: #d64b2a; stroke: #8f2c18; stroke-width: 1.2"/>
    </g>
   </g>
   <g id="PathCollection_23">
    <g clip-path="url(#p3de57a5adb)">
     <use xlink:href="#m12b14585d6" x="70.982473" y="295.143075" style="fill: #d64b2a; stroke: #8f2c18; stroke-width: 1.2"/>
    </g>
   </g>
   <g id="PathCollection_24">
    <g clip-path="url(#p3de57a5adb)">
     <use xlink:href="#m12b14585d6" x="70.918466" y="294.733841" style="fill: #d64b2a; stroke: #8f2c18; stroke-width: 1.2"/>
    </g>
   </g>
   <g id="legend_1">
    <g id="line2d_31">
     <path d="M 418.053125 289.585938
L 428.053125 289.585938
L 438.053125 289.585938
" style="fill: none; stroke: #000000; stroke-opacity: 0; stroke-width: 1.5; stroke-linecap: square"/>
     <defs>
      <path id="m07f8589810" d="M 0 -7
L -1.571598 -2.163119
L -6.657396 -2.163119
L -2.542899 0.826238
L -4.114497 5.663119
L -0 2.673762
L 4.114497 5.663119
L 2.542899 0.826238
L 6.657396 -2.163119
L 1.571598 -2.163119
z
" style="stroke: #8f2c18; stroke-linejoin: bevel"/>
     </defs>
     <g>
      <use xlink:href="#m07f8589810" x="428.053125" y="289.585938" style="fill: #d64b2a; stroke: #8f2c18; stroke-linejoin: bevel"/>
     </g>
    </g>
    <g id="text_45">
     <!-- TraceFold · ours -->
     <g transform="translate(446.053125 293.085938) scale(0.1 -0.1)">
      <defs>
       <path id="DejaVuSans-54" d="M -19 4666
L 3928 4666
L 3928 4134
L 2272 4134
L 2272 0
L 1638 0
L 1638 4134
L -19 4134
L -19 4666
z
" transform="scale(0.015625)"/>
       <path id="DejaVuSans-46" d="M 628 4666
L 3309 4666
L 3309 4134
L 1259 4134
L 1259 2759
L 3109 2759
L 3109 2228
L 1259 2228
L 1259 0
L 628 0
L 628 4666
z
" transform="scale(0.015625)"/>
       <path id="DejaVuSans-b7" d="M 684 2619
L 1344 2619
L 1344 1825
L 684 1825
L 684 2619
z
" transform="scale(0.015625)"/>
      </defs>
      <use xlink:href="#DejaVuSans-54"/>
      <use xlink:href="#DejaVuSans-72" transform="translate(46.333984 0)"/>
      <use xlink:href="#DejaVuSans-61" transform="translate(87.447266 0)"/>
      <use xlink:href="#DejaVuSans-63" transform="translate(148.726562 0)"/>
      <use xlink:href="#DejaVuSans-65" transform="translate(203.707031 0)"/>
      <use xlink:href="#DejaVuSans-46" transform="translate(265.230469 0)"/>
      <use xlink:href="#DejaVuSans-6f" transform="translate(319.125 0)"/>
      <use xlink:href="#DejaVuSans-6c" transform="translate(380.306641 0)"/>
      <use xlink:href="#DejaVuSans-64" transform="translate(408.089844 0)"/>
      <use xlink:href="#DejaVuSans-20" transform="translate(471.566406 0)"/>
      <use xlink:href="#DejaVuSans-b7" transform="translate(503.353516 0)"/>
      <use xlink:href="#DejaVuSans-20" transform="translate(535.140625 0)"/>
      <use xlink:href="#DejaVuSans-6f" transform="translate(566.927734 0)"/>
      <use xlink:href="#DejaVuSans-75" transform="translate(628.109375 0)"/>
      <use xlink:href="#DejaVuSans-72" transform="translate(691.488281 0)"/>
      <use xlink:href="#DejaVuSans-73" transform="translate(732.601562 0)"/>
     </g>
    </g>
    <g id="line2d_32">
     <path d="M 418.053125 304.264062
L 428.053125 304.264062
L 438.053125 304.264062
" style="fill: none; stroke: #000000; stroke-opacity: 0; stroke-width: 1.5; stroke-linecap: square"/>
     <defs>
      <path id="mecd248205c" d="M 0 3.5
C 0.928211 3.5 1.81853 3.131218 2.474874 2.474874
C 3.131218 1.81853 3.5 0.928211 3.5 0
C 3.5 -0.928211 3.131218 -1.81853 2.474874 -2.474874
C 1.81853 -3.131218 0.928211 -3.5 0 -3.5
C -0.928211 -3.5 -1.81853 -3.131218 -2.474874 -2.474874
C -3.131218 -1.81853 -3.5 -0.928211 -3.5 0
C -3.5 0.928211 -3.131218 1.81853 -2.474874 2.474874
C -1.81853 3.131218 -0.928211 3.5 0 3.5
z
" style="stroke: #000000"/>
     </defs>
     <g>
      <use xlink:href="#mecd248205c" x="428.053125" y="304.264062" style="fill: #829087; stroke: #000000"/>
     </g>
    </g>
    <g id="text_46">
     <!-- Comparison baselines -->
     <g transform="translate(446.053125 307.764062) scale(0.1 -0.1)">
      <defs>
       <path id="DejaVuSans-43" d="M 4122 4306
L 4122 3641
Q 3803 3938 3442 4084
Q 3081 4231 2675 4231
Q 1875 4231 1450 3742
Q 1025 3253 1025 2328
Q 1025 1406 1450 917
Q 1875 428 2675 428
Q 3081 428 3442 575
Q 3803 722 4122 1019
L 4122 359
Q 3791 134 3420 21
Q 3050 -91 2638 -91
Q 1578 -91 968 557
Q 359 1206 359 2328
Q 359 3453 968 4101
Q 1578 4750 2638 4750
Q 3056 4750 3426 4639
Q 3797 4528 4122 4306
z
" transform="scale(0.015625)"/>
      </defs>
      <use xlink:href="#DejaVuSans-43"/>
      <use xlink:href="#DejaVuSans-6f" transform="translate(69.824219 0)"/>
      <use xlink:href="#DejaVuSans-6d" transform="translate(131.005859 0)"/>
      <use xlink:href="#DejaVuSans-70" transform="translate(228.417969 0)"/>
      <use xlink:href="#DejaVuSans-61" transform="translate(291.894531 0)"/>
      <use xlink:href="#DejaVuSans-72" transform="translate(353.173828 0)"/>
      <use xlink:href="#DejaVuSans-69" transform="translate(394.287109 0)"/>
      <use xlink:href="#DejaVuSans-73" transform="translate(422.070312 0)"/>
      <use xlink:href="#DejaVuSans-6f" transform="translate(474.169922 0)"/>
      <use xlink:href="#DejaVuSans-6e" transform="translate(535.351562 0)"/>
      <use xlink:href="#DejaVuSans-20" transform="translate(598.730469 0)"/>
      <use xlink:href="#DejaVuSans-62" transform="translate(630.517578 0)"/>
      <use xlink:href="#DejaVuSans-61" transform="translate(693.994141 0)"/>
      <use xlink:href="#DejaVuSans-73" transform="translate(755.273438 0)"/>
      <use xlink:href="#DejaVuSans-65" transform="translate(807.373047 0)"/>
      <use xlink:href="#DejaVuSans-6c" transform="translate(868.896484 0)"/>
      <use xlink:href="#DejaVuSans-69" transform="translate(896.679688 0)"/>
      <use xlink:href="#DejaVuSans-6e" transform="translate(924.462891 0)"/>
      <use xlink:href="#DejaVuSans-65" transform="translate(987.841797 0)"/>
      <use xlink:href="#DejaVuSans-73" transform="translate(1049.365234 0)"/>
     </g>
    </g>
   </g>
  </g>
 </g>
 <defs>
  <clipPath id="p3de57a5adb">
   <rect x="47.38125" y="25.918125" width="517.81875" height="292.925625"/>
  </clipPath>
 </defs>
</svg>
